<?xml version="1.0" encoding="UTF-8" standalone="no"?>
<!DOCTYPE svg PUBLIC "-//W3C//DTD SVG 1.1//EN" "http://www.w3.org/Graphics/SVG/1.1/DTD/svg11.dtd">
<svg width="100%" height="100%" viewBox="0 0 1200 1080" version="1.1" xmlns="http://www.w3.org/2000/svg" xmlns:xlink="http://www.w3.org/1999/xlink" xml:space="preserve" xmlns:serif="http://www.serif.com/" style="fill-rule:evenodd;clip-rule:evenodd;stroke-linejoin:round;stroke-miterlimit:2;">
    <g transform="matrix(1,0,0,1.09091,-720,207.273)">
        <rect x="720" y="-190" width="1200" height="990" style="fill:rgb(46,46,46);"/>
    </g>
    <g transform="matrix(0.707107,-0.707107,0.707107,0.707107,-575.938,-155.145)">
        <path d="M-466.129,1280.63L207,607.5L207,1953.76L-466.129,1280.63Z" style="fill:rgb(51,51,51);"/>
    </g>
    <g id="Cemu">
        <g transform="matrix(1,0,0,1,14.6837,-61.2735)">
            <path d="M501.045,841.294C492.129,841.294 485.059,838.489 479.837,832.878C474.615,827.267 472.004,819.517 472.004,809.628C472.004,800.239 474.733,792.704 480.191,787.024C485.65,781.343 492.795,778.503 501.629,778.503C508.768,778.503 514.809,780.155 519.754,783.461L516.212,792.003C511.462,789.086 506.684,787.628 501.879,787.628C496.268,787.628 491.83,789.649 488.566,793.69C485.302,797.732 483.67,803.155 483.67,809.961C483.67,817.017 485.247,822.475 488.4,826.336C491.552,830.197 496.045,832.128 501.879,832.128C506.99,832.128 512.059,830.85 517.087,828.294L518.587,837.128C513.92,839.905 508.073,841.294 501.045,841.294Z" style="fill:white;fill-rule:nonzero;"/>
            <path d="M548.754,841.294C541.393,841.294 535.664,839.176 531.566,834.94C527.469,830.704 525.42,824.85 525.42,817.378C525.42,810.1 527.351,804.308 531.212,800.003C535.073,795.697 540.337,793.53 547.004,793.503C553.309,793.503 558.205,795.475 561.691,799.419C565.177,803.364 566.92,808.6 566.92,815.128C566.92,815.6 566.914,816.364 566.9,817.419C566.886,818.475 566.879,819.253 566.879,819.753L536.42,819.753C536.532,824.03 537.705,827.343 539.941,829.69C542.177,832.037 545.254,833.211 549.17,833.211C554.17,833.211 558.976,831.905 563.587,829.294L565.129,837.044C560.545,839.878 555.087,841.294 548.754,841.294ZM536.629,812.878L556.629,812.878C556.629,809.155 555.782,806.294 554.087,804.294C552.393,802.294 550.045,801.294 547.045,801.294C544.24,801.294 541.872,802.267 539.941,804.211C538.011,806.155 536.907,809.044 536.629,812.878Z" style="fill:white;fill-rule:nonzero;"/>
            <path d="M575.795,840.419L575.795,794.628L584.629,794.628L585.879,800.461C586.434,799.767 586.969,799.149 587.483,798.607C587.997,798.065 588.705,797.454 589.608,796.774C590.511,796.093 591.469,795.53 592.483,795.086C593.497,794.642 594.747,794.267 596.233,793.961C597.719,793.655 599.309,793.503 601.004,793.503C604.643,793.503 607.552,794.239 609.733,795.711C611.914,797.183 613.448,798.905 614.337,800.878C615.976,798.517 618.101,796.697 620.712,795.419C623.323,794.142 626.226,793.503 629.42,793.503C634.67,793.503 638.525,794.989 640.983,797.961C643.441,800.933 644.67,805.336 644.67,811.169L644.67,840.419L633.712,840.419L633.712,814.419C633.712,809.947 633.219,806.718 632.233,804.732C631.247,802.746 629.365,801.753 626.587,801.753C622.337,801.753 619.282,803.669 617.42,807.503C616.643,809.197 616.115,811.239 615.837,813.628L615.837,840.419L604.92,840.419L604.92,813.919C604.92,809.836 604.379,806.794 603.295,804.794C602.212,802.794 600.254,801.794 597.42,801.794C595.115,801.794 593.129,802.378 591.462,803.544C589.795,804.711 588.532,806.239 587.67,808.128C587.032,810.933 586.712,814.294 586.712,818.211L586.712,840.419L575.795,840.419Z" style="fill:white;fill-rule:nonzero;"/>
            <path d="M688.462,836.836C684.823,839.808 680.032,841.294 674.087,841.294C668.143,841.294 663.358,839.808 659.733,836.836C656.108,833.864 654.295,829.503 654.295,823.753L654.295,794.628L665.254,794.628L665.254,823.336C665.254,826.753 665.969,829.225 667.4,830.753C668.83,832.28 671.101,833.044 674.212,833.044C677.268,833.044 679.497,832.287 680.9,830.774C682.302,829.26 683.004,826.78 683.004,823.336L683.004,794.628L693.92,794.628L693.92,823.753C693.92,829.475 692.101,833.836 688.462,836.836Z" style="fill:white;fill-rule:nonzero;"/>
        </g>
        <g transform="matrix(2.08715,0,0,2.08715,-823.401,-307.372)">
            <path d="M646.567,281.433L646.567,363.2C646.567,417.733 711.033,409.933 711.033,371.733L711.033,281.5L646.567,281.5L646.567,281.433Z" style="fill:white;fill-rule:nonzero;"/>
        </g>
        <g transform="matrix(2.08715,0,0,2.08715,-823.401,-307.372)">
            <path d="M590.6,281.433C572.933,281.433 557.6,292.6 557.6,310.033L557.6,420.533C557.6,447.5 576.267,463.5 603.5,463.5L758.4,463.5C781.367,463.5 800,447.6 800,424.767L800,311.5C800,297.767 789.733,282.833 777.067,282.833L741.233,282.833L741.233,376.133C741.233,446.867 617.867,446.267 617.867,377.467L617.867,281.467L590.6,281.467L590.6,281.433Z" style="fill:white;fill-rule:nonzero;"/>
        </g>
    </g>
</svg>
