<?xml version="1.0" encoding="UTF-8" standalone="no"?>
<!DOCTYPE svg PUBLIC "-//W3C//DTD SVG 1.1//EN" "http://www.w3.org/Graphics/SVG/1.1/DTD/svg11.dtd">
<svg width="100%" height="100%" viewBox="0 0 1200 1080" version="1.1" xmlns="http://www.w3.org/2000/svg" xmlns:xlink="http://www.w3.org/1999/xlink" xml:space="preserve" xmlns:serif="http://www.serif.com/" style="fill-rule:evenodd;clip-rule:evenodd;stroke-linejoin:round;stroke-miterlimit:2;">
    <g transform="matrix(1,0,0,1.09091,-720,207.273)">
        <rect x="720" y="-190" width="1200" height="990" style="fill:rgb(46,46,46);"/>
    </g>
    <g transform="matrix(0.707107,-0.707107,0.707107,0.707107,-575.938,-155.145)">
        <path d="M-466.129,1280.63L207,607.5L207,1953.76L-466.129,1280.63Z" style="fill:rgb(51,51,51);"/>
    </g>
    <g id="File-Manager" serif:id="File Manager" transform="matrix(0.742188,0,0,0.742188,363,280.021)">
        <path d="M128,0C92.7,0 64,28.7 64,64L64,288L19.2,288C8.6,288 0,296.6 0,307.2C0,349.6 34.4,384 76.8,384L320,384L320,288L128,288L128,64L448,64L448,96L512,96L512,64C512,28.7 483.3,0 448,0L128,0ZM512,128L400,128C373.5,128 352,149.5 352,176L352,464C352,490.5 373.5,512 400,512L592,512C618.5,512 640,490.5 640,464L640,256L544,256C526.3,256 512,241.7 512,224L512,128ZM544,128L544,224L640,224L544,128Z" style="fill:white;fill-rule:nonzero;"/>
    </g>
    <g transform="matrix(1,0,0,1,14.6837,-61.2735)">
        <path d="M326.4,840.419L326.4,779.378L362.525,779.378L362.108,788.336L337.608,788.336L337.608,805.669L360.9,805.669L360.9,814.544L337.608,814.544L337.608,840.419L326.4,840.419Z" style="fill:white;fill-rule:nonzero;"/>
        <path d="M371.566,840.419L371.566,794.628L382.483,794.628L382.483,840.419L371.566,840.419ZM371.566,787.961L371.566,778.628L382.525,778.628L382.525,787.961L371.566,787.961Z" style="fill:white;fill-rule:nonzero;"/>
        <path d="M409.9,841.044C406.761,841.044 404.157,840.676 402.087,839.94C400.018,839.204 398.386,838.03 397.191,836.419C395.997,834.808 395.164,832.892 394.691,830.669C394.219,828.447 393.983,825.683 393.983,822.378L393.983,777.753L404.9,777.044L404.9,822.169C404.9,826.28 405.386,829.065 406.358,830.524C407.33,831.982 409.219,832.711 412.025,832.711C413.414,832.711 415.177,832.558 417.316,832.253L417.608,840.044C417.58,840.044 417.24,840.114 416.587,840.253C415.934,840.392 415.309,840.51 414.712,840.607C414.115,840.704 413.358,840.801 412.441,840.899C411.525,840.996 410.677,841.044 409.9,841.044Z" style="fill:white;fill-rule:nonzero;"/>
        <path d="M443.941,841.294C436.58,841.294 430.851,839.176 426.754,834.94C422.657,830.704 420.608,824.85 420.608,817.378C420.608,810.1 422.539,804.308 426.4,800.003C430.261,795.697 435.525,793.53 442.191,793.503C448.497,793.503 453.393,795.475 456.879,799.419C460.365,803.364 462.108,808.6 462.108,815.128C462.108,815.6 462.101,816.364 462.087,817.419C462.073,818.475 462.066,819.253 462.066,819.753L431.608,819.753C431.719,824.03 432.893,827.343 435.129,829.69C437.365,832.037 440.441,833.211 444.358,833.211C449.358,833.211 454.164,831.905 458.775,829.294L460.316,837.044C455.733,839.878 450.275,841.294 443.941,841.294ZM431.816,812.878L451.816,812.878C451.816,809.155 450.969,806.294 449.275,804.294C447.58,802.294 445.233,801.294 442.233,801.294C439.427,801.294 437.059,802.267 435.129,804.211C433.198,806.155 432.094,809.044 431.816,812.878Z" style="fill:white;fill-rule:nonzero;"/>
        <path d="M494.566,840.419L494.566,779.378L507.9,779.378L526.358,823.461L544.941,779.378L558.108,779.378L558.108,840.419L547.691,840.419L547.691,810.253L548.025,792.961L546.483,797.544L530.858,836.253L521.191,836.253L505.9,797.336L504.358,792.753L504.733,810.419L504.733,840.419L494.566,840.419Z" style="fill:white;fill-rule:nonzero;"/>
        <path d="M582.316,841.294C578.066,841.294 574.629,840.121 572.004,837.774C569.379,835.426 568.066,832.044 568.066,827.628C568.066,822.878 569.622,819.357 572.733,817.065C575.844,814.774 580.539,813.322 586.816,812.711C587.677,812.6 588.608,812.489 589.608,812.378C590.608,812.267 591.733,812.155 592.983,812.044C594.233,811.933 595.219,811.836 595.941,811.753L595.941,809.336C595.941,806.558 595.302,804.537 594.025,803.274C592.747,802.01 590.802,801.378 588.191,801.378C584.469,801.378 579.872,802.419 574.4,804.503C574.372,804.419 573.914,803.155 573.025,800.711C572.136,798.267 571.677,797.017 571.65,796.961C577.039,794.655 582.872,793.503 589.15,793.503C595.316,793.503 599.802,794.843 602.608,797.524C605.414,800.204 606.816,804.544 606.816,810.544L606.816,840.419L598.733,840.419C598.705,840.308 598.4,839.378 597.816,837.628C597.233,835.878 596.941,834.947 596.941,834.836C594.664,837.058 592.434,838.69 590.254,839.732C588.073,840.774 585.427,841.294 582.316,841.294ZM585.275,833.544C587.802,833.544 590.004,832.94 591.879,831.732C593.754,830.524 595.094,829.058 595.9,827.336L595.9,818.503C595.816,818.503 595.087,818.558 593.712,818.669C592.337,818.78 591.594,818.836 591.483,818.836C587.066,819.225 583.83,820.058 581.775,821.336C579.719,822.614 578.691,824.669 578.691,827.503C578.691,829.447 579.261,830.94 580.4,831.982C581.539,833.024 583.164,833.544 585.275,833.544Z" style="fill:white;fill-rule:nonzero;"/>
        <path d="M617.816,840.419L617.816,794.628L626.608,794.628L627.816,800.419C632.483,795.808 637.664,793.503 643.358,793.503C648.691,793.503 652.684,795.037 655.337,798.107C657.99,801.176 659.316,805.628 659.316,811.461L659.316,840.419L648.358,840.419L648.358,812.794C648.33,809.1 647.733,806.336 646.566,804.503C645.4,802.669 643.302,801.753 640.275,801.753C637.914,801.753 635.754,802.357 633.795,803.565C631.837,804.774 630.414,806.294 629.525,808.128C628.997,810.294 628.733,813.628 628.733,818.128L628.733,840.419L617.816,840.419Z" style="fill:white;fill-rule:nonzero;"/>
        <path d="M682.15,841.294C677.9,841.294 674.462,840.121 671.837,837.774C669.212,835.426 667.9,832.044 667.9,827.628C667.9,822.878 669.455,819.357 672.566,817.065C675.677,814.774 680.372,813.322 686.65,812.711C687.511,812.6 688.441,812.489 689.441,812.378C690.441,812.267 691.566,812.155 692.816,812.044C694.066,811.933 695.052,811.836 695.775,811.753L695.775,809.336C695.775,806.558 695.136,804.537 693.858,803.274C692.58,802.01 690.636,801.378 688.025,801.378C684.302,801.378 679.705,802.419 674.233,804.503C674.205,804.419 673.747,803.155 672.858,800.711C671.969,798.267 671.511,797.017 671.483,796.961C676.872,794.655 682.705,793.503 688.983,793.503C695.15,793.503 699.636,794.843 702.441,797.524C705.247,800.204 706.65,804.544 706.65,810.544L706.65,840.419L698.566,840.419C698.539,840.308 698.233,839.378 697.65,837.628C697.066,835.878 696.775,834.947 696.775,834.836C694.497,837.058 692.268,838.69 690.087,839.732C687.907,840.774 685.261,841.294 682.15,841.294ZM685.108,833.544C687.636,833.544 689.837,832.94 691.712,831.732C693.587,830.524 694.927,829.058 695.733,827.336L695.733,818.503C695.65,818.503 694.92,818.558 693.545,818.669C692.17,818.78 691.427,818.836 691.316,818.836C686.9,819.225 683.664,820.058 681.608,821.336C679.552,822.614 678.525,824.669 678.525,827.503C678.525,829.447 679.094,830.94 680.233,831.982C681.372,833.024 682.997,833.544 685.108,833.544Z" style="fill:white;fill-rule:nonzero;"/>
        <path d="M726.816,860.919L726.191,852.086L731.733,852.086C738.15,852.086 742.636,851.232 745.191,849.524C747.747,847.815 749.025,844.683 749.025,840.128C749.025,838.267 748.941,836.253 748.775,834.086C748.052,835.086 747.365,835.912 746.712,836.565C746.059,837.218 745.24,837.864 744.254,838.503C743.268,839.142 742.087,839.621 740.712,839.94C739.337,840.26 737.775,840.419 736.025,840.419C729.969,840.419 724.99,838.239 721.087,833.878C717.184,829.517 715.233,823.892 715.233,817.003C715.233,813.336 715.775,809.996 716.858,806.982C717.941,803.968 719.414,801.489 721.275,799.544C723.136,797.6 725.282,796.107 727.712,795.065C730.143,794.024 732.733,793.503 735.483,793.503C741.622,793.503 746.191,795.739 749.191,800.211L749.941,794.628L759.691,794.628L759.691,837.169C759.691,839.447 759.58,841.496 759.358,843.315C759.136,845.135 758.747,846.885 758.191,848.565C757.636,850.246 756.907,851.711 756.004,852.961C755.101,854.211 753.969,855.35 752.608,856.378C751.247,857.405 749.643,858.246 747.795,858.899C745.948,859.551 743.802,860.051 741.358,860.399C738.914,860.746 736.164,860.919 733.108,860.919L726.816,860.919ZM737.775,832.794C745.302,832.794 749.108,827.753 749.191,817.669L749.191,816.086C749.136,811.558 748.191,808.058 746.358,805.586C744.525,803.114 741.844,801.864 738.316,801.836C734.316,801.836 731.289,803.204 729.233,805.94C727.177,808.676 726.15,812.364 726.15,817.003C726.15,821.475 727.184,825.225 729.254,828.253C731.323,831.28 734.164,832.794 737.775,832.794Z" style="fill:white;fill-rule:nonzero;"/>
        <path d="M791.608,841.294C784.247,841.294 778.518,839.176 774.42,834.94C770.323,830.704 768.275,824.85 768.275,817.378C768.275,810.1 770.205,804.308 774.066,800.003C777.927,795.697 783.191,793.53 789.858,793.503C796.164,793.503 801.059,795.475 804.545,799.419C808.032,803.364 809.775,808.6 809.775,815.128C809.775,815.6 809.768,816.364 809.754,817.419C809.74,818.475 809.733,819.253 809.733,819.753L779.275,819.753C779.386,824.03 780.559,827.343 782.795,829.69C785.032,832.037 788.108,833.211 792.025,833.211C797.025,833.211 801.83,831.905 806.441,829.294L807.983,837.044C803.4,839.878 797.941,841.294 791.608,841.294ZM779.483,812.878L799.483,812.878C799.483,809.155 798.636,806.294 796.941,804.294C795.247,802.294 792.9,801.294 789.9,801.294C787.094,801.294 784.726,802.267 782.795,804.211C780.865,806.155 779.761,809.044 779.483,812.878Z" style="fill:white;fill-rule:nonzero;"/>
        <path d="M818.691,840.419L818.691,794.628L827.858,794.628L829.275,801.628C832.275,796.822 836.622,794.419 842.316,794.419C843.511,794.419 844.483,794.475 845.233,794.586L845.066,803.711C843.955,803.544 842.802,803.461 841.608,803.461C837.58,803.461 834.573,804.53 832.587,806.669C830.601,808.808 829.608,811.78 829.608,815.586L829.608,840.419L818.691,840.419Z" style="fill:white;fill-rule:nonzero;"/>
    </g>
</svg>
