<?xml version="1.0" encoding="UTF-8" standalone="no"?>
<!DOCTYPE svg PUBLIC "-//W3C//DTD SVG 1.1//EN" "http://www.w3.org/Graphics/SVG/1.1/DTD/svg11.dtd">
<svg width="100%" height="100%" viewBox="0 0 1200 1080" version="1.1" xmlns="http://www.w3.org/2000/svg" xmlns:xlink="http://www.w3.org/1999/xlink" xml:space="preserve" xmlns:serif="http://www.serif.com/" style="fill-rule:evenodd;clip-rule:evenodd;stroke-linejoin:round;stroke-miterlimit:2;">
    <g transform="matrix(1,0,0,1.09091,-720,207.273)">
        <rect x="720" y="-190" width="1200" height="990" style="fill:rgb(46,46,46);"/>
    </g>
    <g transform="matrix(0.707107,-0.707107,0.707107,0.707107,-575.938,-155.145)">
        <path d="M-466.129,1280.63L207,607.5L207,1953.76L-466.129,1280.63Z" style="fill:rgb(51,51,51);"/>
    </g>
    <g id="Hatari">
        <g id="Text-Template" serif:id="Text Template" transform="matrix(1,0,0,1,14.6837,-61.2735)">
            <path d="M465.816,840.419L465.816,779.378L477.108,779.378L477.108,804.336L504.691,804.336L504.691,779.378L515.983,779.378L515.983,840.419L504.691,840.419L504.691,813.253L477.108,813.253L477.108,840.419L465.816,840.419Z" style="fill:white;fill-rule:nonzero;"/>
            <path d="M540.191,841.294C535.941,841.294 532.504,840.121 529.879,837.774C527.254,835.426 525.941,832.044 525.941,827.628C525.941,822.878 527.497,819.357 530.608,817.065C533.719,814.774 538.414,813.322 544.691,812.711C545.552,812.6 546.483,812.489 547.483,812.378C548.483,812.267 549.608,812.155 550.858,812.044C552.108,811.933 553.094,811.836 553.816,811.753L553.816,809.336C553.816,806.558 553.177,804.537 551.9,803.274C550.622,802.01 548.677,801.378 546.066,801.378C542.344,801.378 537.747,802.419 532.275,804.503C532.247,804.419 531.789,803.155 530.9,800.711C530.011,798.267 529.552,797.017 529.525,796.961C534.914,794.655 540.747,793.503 547.025,793.503C553.191,793.503 557.677,794.843 560.483,797.524C563.289,800.204 564.691,804.544 564.691,810.544L564.691,840.419L556.608,840.419C556.58,840.308 556.275,839.378 555.691,837.628C555.108,835.878 554.816,834.947 554.816,834.836C552.539,837.058 550.309,838.69 548.129,839.732C545.948,840.774 543.302,841.294 540.191,841.294ZM543.15,833.544C545.677,833.544 547.879,832.94 549.754,831.732C551.629,830.524 552.969,829.058 553.775,827.336L553.775,818.503C553.691,818.503 552.962,818.558 551.587,818.669C550.212,818.78 549.469,818.836 549.358,818.836C544.941,819.225 541.705,820.058 539.65,821.336C537.594,822.614 536.566,824.669 536.566,827.503C536.566,829.447 537.136,830.94 538.275,831.982C539.414,833.024 541.039,833.544 543.15,833.544Z" style="fill:white;fill-rule:nonzero;"/>
            <path d="M593.983,841.044C590.872,841.044 588.282,840.676 586.212,839.94C584.143,839.204 582.525,838.044 581.358,836.461C580.191,834.878 579.365,833.01 578.879,830.857C578.393,828.704 578.15,826.044 578.15,822.878L578.15,801.253L570.65,801.253L571.066,795.336L578.9,794.628L582.4,782.211L589.066,782.169L589.066,794.628L600.441,794.628L600.441,801.253L589.066,801.253L589.066,823.086C589.066,826.558 589.566,829.03 590.566,830.503C591.566,831.975 593.414,832.711 596.108,832.711C597.691,832.711 599.386,832.572 601.191,832.294L601.483,840.128C601.427,840.128 601.087,840.19 600.462,840.315C599.837,840.44 599.24,840.551 598.67,840.649C598.101,840.746 597.372,840.836 596.483,840.919C595.594,841.003 594.761,841.044 593.983,841.044Z" style="fill:white;fill-rule:nonzero;"/>
            <path d="M621.191,841.294C616.941,841.294 613.504,840.121 610.879,837.774C608.254,835.426 606.941,832.044 606.941,827.628C606.941,822.878 608.497,819.357 611.608,817.065C614.719,814.774 619.414,813.322 625.691,812.711C626.552,812.6 627.483,812.489 628.483,812.378C629.483,812.267 630.608,812.155 631.858,812.044C633.108,811.933 634.094,811.836 634.816,811.753L634.816,809.336C634.816,806.558 634.177,804.537 632.9,803.274C631.622,802.01 629.677,801.378 627.066,801.378C623.344,801.378 618.747,802.419 613.275,804.503C613.247,804.419 612.789,803.155 611.9,800.711C611.011,798.267 610.552,797.017 610.525,796.961C615.914,794.655 621.747,793.503 628.025,793.503C634.191,793.503 638.677,794.843 641.483,797.524C644.289,800.204 645.691,804.544 645.691,810.544L645.691,840.419L637.608,840.419C637.58,840.308 637.275,839.378 636.691,837.628C636.108,835.878 635.816,834.947 635.816,834.836C633.539,837.058 631.309,838.69 629.129,839.732C626.948,840.774 624.302,841.294 621.191,841.294ZM624.15,833.544C626.677,833.544 628.879,832.94 630.754,831.732C632.629,830.524 633.969,829.058 634.775,827.336L634.775,818.503C634.691,818.503 633.962,818.558 632.587,818.669C631.212,818.78 630.469,818.836 630.358,818.836C625.941,819.225 622.705,820.058 620.65,821.336C618.594,822.614 617.566,824.669 617.566,827.503C617.566,829.447 618.136,830.94 619.275,831.982C620.414,833.024 622.039,833.544 624.15,833.544Z" style="fill:white;fill-rule:nonzero;"/>
            <path d="M656.733,840.419L656.733,794.628L665.9,794.628L667.316,801.628C670.316,796.822 674.664,794.419 680.358,794.419C681.552,794.419 682.525,794.475 683.275,794.586L683.108,803.711C681.997,803.544 680.844,803.461 679.65,803.461C675.622,803.461 672.615,804.53 670.629,806.669C668.643,808.808 667.65,811.78 667.65,815.586L667.65,840.419L656.733,840.419Z" style="fill:white;fill-rule:nonzero;"/>
            <path d="M690.191,840.419L690.191,794.628L701.108,794.628L701.108,840.419L690.191,840.419ZM690.191,787.961L690.191,778.628L701.15,778.628L701.15,787.961L690.191,787.961Z" style="fill:white;fill-rule:nonzero;"/>
        </g>
        <g transform="matrix(6.67635,0,0,6.67635,-2723.96,-2001.33)">
            <path d="M474.575,341.706L492.751,341.706L492.751,361.077L502.905,361.077L502.905,341.706L521.167,341.706L521.167,398.623L502.905,398.623L502.905,377.546L492.751,377.546L492.751,398.623L474.575,398.623L474.575,341.706Z" style="fill:white;fill-rule:nonzero;"/>
        </g>
    </g>
</svg>
