<?xml version="1.0" encoding="UTF-8" standalone="no"?>
<!DOCTYPE svg PUBLIC "-//W3C//DTD SVG 1.1//EN" "http://www.w3.org/Graphics/SVG/1.1/DTD/svg11.dtd">
<svg width="100%" height="100%" viewBox="0 0 1200 1080" version="1.1" xmlns="http://www.w3.org/2000/svg" xmlns:xlink="http://www.w3.org/1999/xlink" xml:space="preserve" xmlns:serif="http://www.serif.com/" style="fill-rule:evenodd;clip-rule:evenodd;stroke-linejoin:round;stroke-miterlimit:2;">
    <g transform="matrix(1,0,0,1.09091,-720,207.273)">
        <rect x="720" y="-190" width="1200" height="990" style="fill:rgb(46,46,46);"/>
    </g>
    <g transform="matrix(0.707107,-0.707107,0.707107,0.707107,-575.938,-155.145)">
        <path d="M-466.129,1280.63L207,607.5L207,1953.76L-466.129,1280.63Z" style="fill:rgb(51,51,51);"/>
    </g>
    <g id="Install-JELOS" serif:id="Install JELOS">
        <g transform="matrix(1,0,0,1,14.6837,-61.2735)">
            <rect x="331.691" y="779.378" width="11.292" height="61.042" style="fill:white;fill-rule:nonzero;"/>
            <path d="M355.441,840.419L355.441,794.628L364.233,794.628L365.441,800.419C370.108,795.808 375.289,793.503 380.983,793.503C386.316,793.503 390.309,795.037 392.962,798.107C395.615,801.176 396.941,805.628 396.941,811.461L396.941,840.419L385.983,840.419L385.983,812.794C385.955,809.1 385.358,806.336 384.191,804.503C383.025,802.669 380.927,801.753 377.9,801.753C375.539,801.753 373.379,802.357 371.42,803.565C369.462,804.774 368.039,806.294 367.15,808.128C366.622,810.294 366.358,813.628 366.358,818.128L366.358,840.419L355.441,840.419Z" style="fill:white;fill-rule:nonzero;"/>
            <path d="M422.316,841.253C415.566,841.253 410.164,840.1 406.108,837.794L407.233,829.586C409.066,830.586 411.4,831.482 414.233,832.274C417.066,833.065 419.65,833.461 421.983,833.461C424.4,833.461 426.282,833.01 427.629,832.107C428.976,831.204 429.664,829.878 429.691,828.128C429.691,826.544 429.059,825.294 427.795,824.378C426.532,823.461 424.122,822.322 420.566,820.961C419.344,820.517 418.552,820.225 418.191,820.086C413.969,818.447 410.927,816.621 409.066,814.607C407.205,812.593 406.275,809.864 406.275,806.419C406.275,802.253 407.782,799.058 410.795,796.836C413.809,794.614 418.011,793.503 423.4,793.503C429.233,793.503 434.358,794.6 438.775,796.794L436.066,804.336C431.705,802.308 427.552,801.294 423.608,801.294C421.414,801.294 419.698,801.662 418.462,802.399C417.226,803.135 416.608,804.253 416.608,805.753C416.608,807.169 417.205,808.274 418.4,809.065C419.594,809.857 421.927,810.892 425.4,812.169C425.511,812.197 425.872,812.322 426.483,812.544C427.094,812.767 427.566,812.947 427.9,813.086C432.094,814.614 435.177,816.44 437.15,818.565C439.122,820.69 440.108,823.461 440.108,826.878C440.08,831.461 438.525,835.003 435.441,837.503C432.358,840.003 427.983,841.253 422.316,841.253Z" style="fill:white;fill-rule:nonzero;"/>
            <path d="M467.025,841.044C463.914,841.044 461.323,840.676 459.254,839.94C457.184,839.204 455.566,838.044 454.4,836.461C453.233,834.878 452.407,833.01 451.92,830.857C451.434,828.704 451.191,826.044 451.191,822.878L451.191,801.253L443.691,801.253L444.108,795.336L451.941,794.628L455.441,782.211L462.108,782.169L462.108,794.628L473.483,794.628L473.483,801.253L462.108,801.253L462.108,823.086C462.108,826.558 462.608,829.03 463.608,830.503C464.608,831.975 466.455,832.711 469.15,832.711C470.733,832.711 472.427,832.572 474.233,832.294L474.525,840.128C474.469,840.128 474.129,840.19 473.504,840.315C472.879,840.44 472.282,840.551 471.712,840.649C471.143,840.746 470.414,840.836 469.525,840.919C468.636,841.003 467.802,841.044 467.025,841.044Z" style="fill:white;fill-rule:nonzero;"/>
            <path d="M494.233,841.294C489.983,841.294 486.545,840.121 483.92,837.774C481.295,835.426 479.983,832.044 479.983,827.628C479.983,822.878 481.539,819.357 484.65,817.065C487.761,814.774 492.455,813.322 498.733,812.711C499.594,812.6 500.525,812.489 501.525,812.378C502.525,812.267 503.65,812.155 504.9,812.044C506.15,811.933 507.136,811.836 507.858,811.753L507.858,809.336C507.858,806.558 507.219,804.537 505.941,803.274C504.664,802.01 502.719,801.378 500.108,801.378C496.386,801.378 491.789,802.419 486.316,804.503C486.289,804.419 485.83,803.155 484.941,800.711C484.052,798.267 483.594,797.017 483.566,796.961C488.955,794.655 494.789,793.503 501.066,793.503C507.233,793.503 511.719,794.843 514.525,797.524C517.33,800.204 518.733,804.544 518.733,810.544L518.733,840.419L510.65,840.419C510.622,840.308 510.316,839.378 509.733,837.628C509.15,835.878 508.858,834.947 508.858,834.836C506.58,837.058 504.351,838.69 502.17,839.732C499.99,840.774 497.344,841.294 494.233,841.294ZM497.191,833.544C499.719,833.544 501.92,832.94 503.795,831.732C505.67,830.524 507.011,829.058 507.816,827.336L507.816,818.503C507.733,818.503 507.004,818.558 505.629,818.669C504.254,818.78 503.511,818.836 503.4,818.836C498.983,819.225 495.747,820.058 493.691,821.336C491.636,822.614 490.608,824.669 490.608,827.503C490.608,829.447 491.177,830.94 492.316,831.982C493.455,833.024 495.08,833.544 497.191,833.544Z" style="fill:white;fill-rule:nonzero;"/>
            <path d="M545.775,841.044C542.636,841.044 540.032,840.676 537.962,839.94C535.893,839.204 534.261,838.03 533.066,836.419C531.872,834.808 531.039,832.892 530.566,830.669C530.094,828.447 529.858,825.683 529.858,822.378L529.858,777.753L540.775,777.044L540.775,822.169C540.775,826.28 541.261,829.065 542.233,830.524C543.205,831.982 545.094,832.711 547.9,832.711C549.289,832.711 551.052,832.558 553.191,832.253L553.483,840.044C553.455,840.044 553.115,840.114 552.462,840.253C551.809,840.392 551.184,840.51 550.587,840.607C549.99,840.704 549.233,840.801 548.316,840.899C547.4,840.996 546.552,841.044 545.775,841.044Z" style="fill:white;fill-rule:nonzero;"/>
            <path d="M574.941,841.044C571.802,841.044 569.198,840.676 567.129,839.94C565.059,839.204 563.427,838.03 562.233,836.419C561.039,834.808 560.205,832.892 559.733,830.669C559.261,828.447 559.025,825.683 559.025,822.378L559.025,777.753L569.941,777.044L569.941,822.169C569.941,826.28 570.427,829.065 571.4,830.524C572.372,831.982 574.261,832.711 577.066,832.711C578.455,832.711 580.219,832.558 582.358,832.253L582.65,840.044C582.622,840.044 582.282,840.114 581.629,840.253C580.976,840.392 580.351,840.51 579.754,840.607C579.157,840.704 578.4,840.801 577.483,840.899C576.566,840.996 575.719,841.044 574.941,841.044Z" style="fill:white;fill-rule:nonzero;"/>
            <path d="M602.025,853.794L601.566,844.919C602.9,845.142 604.358,845.253 605.941,845.253C609.025,845.253 611.108,844.461 612.191,842.878C613.275,841.294 613.816,838.683 613.816,835.044L613.816,779.211L625.15,779.211L625.15,834.294C625.15,837.794 624.837,840.746 624.212,843.149C623.587,845.551 622.532,847.593 621.045,849.274C619.559,850.954 617.587,852.183 615.129,852.961C612.67,853.739 609.622,854.128 605.983,854.128C604.455,854.128 603.136,854.017 602.025,853.794Z" style="fill:white;fill-rule:nonzero;"/>
            <path d="M638.025,840.419L638.025,779.378L675.025,779.378L674.566,788.336L649.316,788.336L649.316,804.086L673.316,804.086L673.316,813.044L649.316,813.044L649.316,831.419L675.483,831.419L675.108,840.419L638.025,840.419Z" style="fill:white;fill-rule:nonzero;"/>
            <path d="M686.025,840.419L686.025,779.378L697.316,779.378L697.316,831.419L722.858,831.419L722.525,840.419L686.025,840.419Z" style="fill:white;fill-rule:nonzero;"/>
            <path d="M744.566,826.294C747.594,830.155 752.066,832.086 757.983,832.086C763.9,832.086 768.365,830.162 771.379,826.315C774.393,822.468 775.9,817.03 775.9,810.003C775.9,802.892 774.393,797.378 771.379,793.461C768.365,789.544 763.914,787.586 758.025,787.586C752.108,787.586 747.629,789.551 744.587,793.482C741.545,797.412 740.025,802.919 740.025,810.003C740.025,817.003 741.539,822.433 744.566,826.294ZM757.941,841.294C748.747,841.294 741.49,838.51 736.17,832.94C730.851,827.371 728.191,819.683 728.191,809.878C728.191,800.017 730.858,792.322 736.191,786.794C741.525,781.267 748.789,778.503 757.983,778.503C767.177,778.503 774.427,781.274 779.733,786.815C785.039,792.357 787.691,800.058 787.691,809.919C787.691,819.669 785.025,827.336 779.691,832.919C774.358,838.503 767.108,841.294 757.941,841.294Z" style="fill:white;fill-rule:nonzero;"/>
            <path d="M815.525,841.253C808.164,841.253 801.566,839.558 795.733,836.169L798.483,827.211C801.094,828.655 803.934,829.822 807.004,830.711C810.073,831.6 813.066,832.044 815.983,832.044C819.566,832.044 822.275,831.274 824.108,829.732C825.941,828.19 826.858,825.975 826.858,823.086C826.858,819.253 824.302,816.6 819.191,815.128C818.83,815.017 817.816,814.718 816.15,814.232C814.483,813.746 812.92,813.274 811.462,812.815C810.004,812.357 808.955,812.003 808.316,811.753C800.122,808.864 796.025,803.475 796.025,795.586C796.025,790.058 797.99,785.794 801.92,782.794C805.851,779.794 811.066,778.294 817.566,778.294C824.927,778.294 831.275,779.808 836.608,782.836L833.191,791.086C827.747,788.642 822.691,787.419 818.025,787.419C814.664,787.419 812.129,788.01 810.42,789.19C808.712,790.371 807.802,792.336 807.691,795.086C807.691,798.475 809.372,800.683 812.733,801.711C813.4,801.961 815.039,802.503 817.65,803.336C820.261,804.169 821.955,804.711 822.733,804.961C828.316,806.794 832.309,809.072 834.712,811.794C837.115,814.517 838.316,818.308 838.316,823.169C838.316,828.975 836.261,833.44 832.15,836.565C828.039,839.69 822.497,841.253 815.525,841.253Z" style="fill:white;fill-rule:nonzero;"/>
        </g>
        <g transform="matrix(0.848214,0,0,0.848214,382.141,252.878)">
            <path d="M0,96C0,60.7 28.7,32 64,32L448,32C483.3,32 512,60.7 512,96L512,280.4C495,265.2 472.6,256 448,256L64,256C39.4,256 17,265.2 0,280.4L0,96ZM64,288L448,288C483.3,288 512,316.7 512,352L512,416C512,451.3 483.3,480 448,480L64,480C28.7,480 0,451.3 0,416L0,352C0,316.7 28.7,288 64,288ZM320,416C337.555,416 352,401.555 352,384C352,366.445 337.555,352 320,352C302.445,352 288,366.445 288,384C288,401.555 302.445,416 320,416ZM448,384C448,366.445 433.555,352 416,352C398.445,352 384,366.445 384,384C384,401.555 398.445,416 416,416C433.555,416 448,401.555 448,384Z" style="fill:white;fill-rule:nonzero;"/>
        </g>
    </g>
</svg>
