<?xml version="1.0" encoding="UTF-8" standalone="no"?>
<!DOCTYPE svg PUBLIC "-//W3C//DTD SVG 1.1//EN" "http://www.w3.org/Graphics/SVG/1.1/DTD/svg11.dtd">
<svg width="100%" height="100%" viewBox="0 0 1200 1080" version="1.1" xmlns="http://www.w3.org/2000/svg" xmlns:xlink="http://www.w3.org/1999/xlink" xml:space="preserve" xmlns:serif="http://www.serif.com/" style="fill-rule:evenodd;clip-rule:evenodd;stroke-linejoin:round;stroke-miterlimit:2;">
    <g transform="matrix(1,0,0,1.09091,-720,207.273)">
        <rect x="720" y="-190" width="1200" height="990" style="fill:rgb(46,46,46);"/>
    </g>
    <g transform="matrix(0.707107,-0.707107,0.707107,0.707107,-575.938,-155.145)">
        <path d="M-466.129,1280.63L207,607.5L207,1953.76L-466.129,1280.63Z" style="fill:rgb(51,51,51);"/>
    </g>
    <g id="Moonlight">
        <g id="path106" transform="matrix(3.08452,0,0,3.08452,410.002,278.79)">
            <path d="M61.598,23.132C40.133,23.132 22.733,40.533 22.733,61.997C22.733,83.462 40.133,100.863 61.598,100.863C83.063,100.863 100.463,83.462 100.463,61.997C100.463,40.533 83.063,23.132 61.598,23.132M123.195,61.997C123.195,96.017 95.618,123.595 61.598,123.595C27.578,123.595 0,96.017 0,61.997C0,27.978 27.578,0.399 61.598,0.399C95.618,0.399 123.195,27.978 123.195,61.997" style="fill:white;fill-rule:nonzero;"/>
        </g>
        <g id="path108" transform="matrix(3.08452,0,0,3.08452,410.002,278.79)">
            <rect x="59.098" y="23.131" width="3.69" height="77.732" style="fill:white;fill-rule:nonzero;"/>
        </g>
        <g id="path110" transform="matrix(3.08452,0,0,3.08452,410.002,278.79)">
            <rect x="21.859" y="61.403" width="78.605" height="3.69" style="fill:white;fill-rule:nonzero;"/>
        </g>
        <g id="path114" transform="matrix(3.08452,0,0,3.08452,410.002,278.79)">
            <path d="M34.675,92.343L32.065,89.733L88.167,33.632L90.776,36.242L34.675,92.343Z" style="fill:white;fill-rule:nonzero;"/>
        </g>
        <g id="path118" transform="matrix(3.08452,0,0,3.08452,410.002,278.79)">
            <path d="M89.957,88.914L87.347,91.524L32.066,36.241L34.675,33.631L89.957,88.914Z" style="fill:white;fill-rule:nonzero;"/>
        </g>
        <g id="Text-Template" serif:id="Text Template" transform="matrix(1,0,0,1,14.6837,-61.2735)">
            <path d="M379.191,840.419L379.191,779.378L392.525,779.378L410.983,823.461L429.566,779.378L442.733,779.378L442.733,840.419L432.316,840.419L432.316,810.253L432.65,792.961L431.108,797.544L415.483,836.253L405.816,836.253L390.525,797.336L388.983,792.753L389.358,810.419L389.358,840.419L379.191,840.419Z" style="fill:white;fill-rule:nonzero;"/>
            <path d="M474.816,833.003C478.511,833.003 481.289,831.655 483.15,828.961C485.011,826.267 485.941,822.405 485.941,817.378C485.941,812.294 485.011,808.419 483.15,805.753C481.289,803.086 478.483,801.753 474.733,801.753C471.039,801.753 468.254,803.093 466.379,805.774C464.504,808.454 463.566,812.336 463.566,817.419C463.566,822.419 464.511,826.267 466.4,828.961C468.289,831.655 471.094,833.003 474.816,833.003ZM474.525,841.294C467.747,841.294 462.414,839.1 458.525,834.711C454.636,830.322 452.691,824.544 452.691,817.378C452.691,809.989 454.636,804.162 458.525,799.899C462.414,795.635 467.9,793.503 474.983,793.503C481.816,793.503 487.17,795.676 491.045,800.024C494.92,804.371 496.858,810.155 496.858,817.378C496.858,824.683 494.9,830.496 490.983,834.815C487.066,839.135 481.58,841.294 474.525,841.294Z" style="fill:white;fill-rule:nonzero;"/>
            <path d="M525.733,833.003C529.427,833.003 532.205,831.655 534.066,828.961C535.927,826.267 536.858,822.405 536.858,817.378C536.858,812.294 535.927,808.419 534.066,805.753C532.205,803.086 529.4,801.753 525.65,801.753C521.955,801.753 519.17,803.093 517.295,805.774C515.42,808.454 514.483,812.336 514.483,817.419C514.483,822.419 515.427,826.267 517.316,828.961C519.205,831.655 522.011,833.003 525.733,833.003ZM525.441,841.294C518.664,841.294 513.33,839.1 509.441,834.711C505.552,830.322 503.608,824.544 503.608,817.378C503.608,809.989 505.552,804.162 509.441,799.899C513.33,795.635 518.816,793.503 525.9,793.503C532.733,793.503 538.087,795.676 541.962,800.024C545.837,804.371 547.775,810.155 547.775,817.378C547.775,824.683 545.816,830.496 541.9,834.815C537.983,839.135 532.497,841.294 525.441,841.294Z" style="fill:white;fill-rule:nonzero;"/>
            <path d="M556.691,840.419L556.691,794.628L565.483,794.628L566.691,800.419C571.358,795.808 576.539,793.503 582.233,793.503C587.566,793.503 591.559,795.037 594.212,798.107C596.865,801.176 598.191,805.628 598.191,811.461L598.191,840.419L587.233,840.419L587.233,812.794C587.205,809.1 586.608,806.336 585.441,804.503C584.275,802.669 582.177,801.753 579.15,801.753C576.789,801.753 574.629,802.357 572.67,803.565C570.712,804.774 569.289,806.294 568.4,808.128C567.872,810.294 567.608,813.628 567.608,818.128L567.608,840.419L556.691,840.419Z" style="fill:white;fill-rule:nonzero;"/>
            <path d="M624.983,841.044C621.844,841.044 619.24,840.676 617.17,839.94C615.101,839.204 613.469,838.03 612.275,836.419C611.08,834.808 610.247,832.892 609.775,830.669C609.302,828.447 609.066,825.683 609.066,822.378L609.066,777.753L619.983,777.044L619.983,822.169C619.983,826.28 620.469,829.065 621.441,830.524C622.414,831.982 624.302,832.711 627.108,832.711C628.497,832.711 630.261,832.558 632.4,832.253L632.691,840.044C632.664,840.044 632.323,840.114 631.67,840.253C631.018,840.392 630.393,840.51 629.795,840.607C629.198,840.704 628.441,840.801 627.525,840.899C626.608,840.996 625.761,841.044 624.983,841.044Z" style="fill:white;fill-rule:nonzero;"/>
            <path d="M638.358,840.419L638.358,794.628L649.275,794.628L649.275,840.419L638.358,840.419ZM638.358,787.961L638.358,778.628L649.316,778.628L649.316,787.961L638.358,787.961Z" style="fill:white;fill-rule:nonzero;"/>
            <path d="M669.816,860.919L669.191,852.086L674.733,852.086C681.15,852.086 685.636,851.232 688.191,849.524C690.747,847.815 692.025,844.683 692.025,840.128C692.025,838.267 691.941,836.253 691.775,834.086C691.052,835.086 690.365,835.912 689.712,836.565C689.059,837.218 688.24,837.864 687.254,838.503C686.268,839.142 685.087,839.621 683.712,839.94C682.337,840.26 680.775,840.419 679.025,840.419C672.969,840.419 667.99,838.239 664.087,833.878C660.184,829.517 658.233,823.892 658.233,817.003C658.233,813.336 658.775,809.996 659.858,806.982C660.941,803.968 662.414,801.489 664.275,799.544C666.136,797.6 668.282,796.107 670.712,795.065C673.143,794.024 675.733,793.503 678.483,793.503C684.622,793.503 689.191,795.739 692.191,800.211L692.941,794.628L702.691,794.628L702.691,837.169C702.691,839.447 702.58,841.496 702.358,843.315C702.136,845.135 701.747,846.885 701.191,848.565C700.636,850.246 699.907,851.711 699.004,852.961C698.101,854.211 696.969,855.35 695.608,856.378C694.247,857.405 692.643,858.246 690.795,858.899C688.948,859.551 686.802,860.051 684.358,860.399C681.914,860.746 679.164,860.919 676.108,860.919L669.816,860.919ZM680.775,832.794C688.302,832.794 692.108,827.753 692.191,817.669L692.191,816.086C692.136,811.558 691.191,808.058 689.358,805.586C687.525,803.114 684.844,801.864 681.316,801.836C677.316,801.836 674.289,803.204 672.233,805.94C670.177,808.676 669.15,812.364 669.15,817.003C669.15,821.475 670.184,825.225 672.254,828.253C674.323,831.28 677.164,832.794 680.775,832.794Z" style="fill:white;fill-rule:nonzero;"/>
            <path d="M713.441,840.419L713.441,777.753L724.358,777.044L724.358,790.253C724.358,790.892 724.316,792.662 724.233,795.565C724.15,798.468 724.108,799.947 724.108,800.003C727.747,795.669 732.636,793.503 738.775,793.503C743.886,793.503 747.851,794.968 750.67,797.899C753.49,800.829 754.9,805.336 754.9,811.419L754.9,840.419L743.983,840.419L743.983,812.628C743.983,808.878 743.386,806.128 742.191,804.378C740.997,802.628 738.969,801.753 736.108,801.753C733.664,801.753 731.497,802.371 729.608,803.607C727.719,804.843 726.302,806.433 725.358,808.378C724.691,810.933 724.358,814.267 724.358,818.378L724.358,840.419L713.441,840.419Z" style="fill:white;fill-rule:nonzero;"/>
            <path d="M783.941,841.044C780.83,841.044 778.24,840.676 776.17,839.94C774.101,839.204 772.483,838.044 771.316,836.461C770.15,834.878 769.323,833.01 768.837,830.857C768.351,828.704 768.108,826.044 768.108,822.878L768.108,801.253L760.608,801.253L761.025,795.336L768.858,794.628L772.358,782.211L779.025,782.169L779.025,794.628L790.4,794.628L790.4,801.253L779.025,801.253L779.025,823.086C779.025,826.558 779.525,829.03 780.525,830.503C781.525,831.975 783.372,832.711 786.066,832.711C787.65,832.711 789.344,832.572 791.15,832.294L791.441,840.128C791.386,840.128 791.045,840.19 790.42,840.315C789.795,840.44 789.198,840.551 788.629,840.649C788.059,840.746 787.33,840.836 786.441,840.919C785.552,841.003 784.719,841.044 783.941,841.044Z" style="fill:white;fill-rule:nonzero;"/>
        </g>
    </g>
</svg>
