<?xml version="1.0" encoding="UTF-8" standalone="no"?>
<!DOCTYPE svg PUBLIC "-//W3C//DTD SVG 1.1//EN" "http://www.w3.org/Graphics/SVG/1.1/DTD/svg11.dtd">
<svg width="100%" height="100%" viewBox="0 0 1200 1080" version="1.1" xmlns="http://www.w3.org/2000/svg" xmlns:xlink="http://www.w3.org/1999/xlink" xml:space="preserve" xmlns:serif="http://www.serif.com/" style="fill-rule:evenodd;clip-rule:evenodd;stroke-linejoin:round;stroke-miterlimit:2;">
    <g transform="matrix(1,0,0,1.09091,-720,207.273)">
        <rect x="720" y="-190" width="1200" height="990" style="fill:rgb(46,46,46);"/>
    </g>
    <g transform="matrix(0.707107,-0.707107,0.707107,0.707107,-575.938,-155.145)">
        <path d="M-466.129,1280.63L207,607.5L207,1953.76L-466.129,1280.63Z" style="fill:rgb(51,51,51);"/>
    </g>
    <g id="PCSX2">
        <g transform="matrix(1,0,0,1,14.6837,-61.2735)">
            <path d="M461.754,840.419L461.754,779.211L482.087,779.211C486.893,779.211 491.004,779.829 494.42,781.065C497.837,782.301 500.539,784.308 502.525,787.086C504.511,789.864 505.504,793.35 505.504,797.544C505.504,800.461 505.129,803.051 504.379,805.315C503.629,807.579 502.393,809.635 500.67,811.482C498.948,813.329 496.525,814.753 493.4,815.753C490.275,816.753 486.504,817.253 482.087,817.253C478.309,817.253 475.24,817.142 472.879,816.919L472.879,840.419L461.754,840.419ZM480.879,809.086C483.184,809.086 485.191,808.864 486.9,808.419C488.608,807.975 489.941,807.405 490.9,806.711C491.858,806.017 492.622,805.155 493.191,804.128C493.761,803.1 494.136,802.107 494.316,801.149C494.497,800.19 494.587,799.114 494.587,797.919C494.587,794.558 493.504,792.003 491.337,790.253C489.17,788.503 486.115,787.628 482.17,787.628L472.879,787.628L472.879,809.003C473.212,809.058 475.879,809.086 480.879,809.086Z" style="fill:white;fill-rule:nonzero;"/>
            <path d="M540.545,841.294C531.629,841.294 524.559,838.489 519.337,832.878C514.115,827.267 511.504,819.517 511.504,809.628C511.504,800.239 514.233,792.704 519.691,787.024C525.15,781.343 532.295,778.503 541.129,778.503C548.268,778.503 554.309,780.155 559.254,783.461L555.712,792.003C550.962,789.086 546.184,787.628 541.379,787.628C535.768,787.628 531.33,789.649 528.066,793.69C524.802,797.732 523.17,803.155 523.17,809.961C523.17,817.017 524.747,822.475 527.9,826.336C531.052,830.197 535.545,832.128 541.379,832.128C546.49,832.128 551.559,830.85 556.587,828.294L558.087,837.128C553.42,839.905 547.573,841.294 540.545,841.294Z" style="fill:white;fill-rule:nonzero;"/>
            <path d="M585.254,841.253C577.893,841.253 571.295,839.558 565.462,836.169L568.212,827.211C570.823,828.655 573.664,829.822 576.733,830.711C579.802,831.6 582.795,832.044 585.712,832.044C589.295,832.044 592.004,831.274 593.837,829.732C595.67,828.19 596.587,825.975 596.587,823.086C596.587,819.253 594.032,816.6 588.92,815.128C588.559,815.017 587.545,814.718 585.879,814.232C584.212,813.746 582.65,813.274 581.191,812.815C579.733,812.357 578.684,812.003 578.045,811.753C569.851,808.864 565.754,803.475 565.754,795.586C565.754,790.058 567.719,785.794 571.65,782.794C575.58,779.794 580.795,778.294 587.295,778.294C594.657,778.294 601.004,779.808 606.337,782.836L602.92,791.086C597.476,788.642 592.42,787.419 587.754,787.419C584.393,787.419 581.858,788.01 580.15,789.19C578.441,790.371 577.532,792.336 577.42,795.086C577.42,798.475 579.101,800.683 582.462,801.711C583.129,801.961 584.768,802.503 587.379,803.336C589.99,804.169 591.684,804.711 592.462,804.961C598.045,806.794 602.039,809.072 604.441,811.794C606.844,814.517 608.045,818.308 608.045,823.169C608.045,828.975 605.99,833.44 601.879,836.565C597.768,839.69 592.226,841.253 585.254,841.253Z" style="fill:white;fill-rule:nonzero;"/>
            <path d="M610.629,840.419L632.004,809.169L612.212,779.378L624.92,779.378L639.295,802.128L654.087,779.378L666.129,779.378L645.92,809.336L667.212,840.419L654.17,840.419L638.754,816.669L623.004,840.419L610.629,840.419Z" style="fill:white;fill-rule:nonzero;"/>
            <path d="M670.337,840.419L670.087,831.419L689.379,809.586C691.768,807.03 693.511,804.676 694.608,802.524C695.705,800.371 696.254,798.1 696.254,795.711C696.254,793.072 695.393,790.968 693.67,789.399C691.948,787.829 689.684,787.044 686.879,787.044C684.295,787.044 681.747,787.524 679.233,788.482C676.719,789.44 674.657,790.642 673.045,792.086L669.92,783.836C674.087,780.169 679.948,778.336 687.504,778.336C693.504,778.336 698.33,779.843 701.983,782.857C705.636,785.871 707.462,790.128 707.462,795.628C707.462,799.517 706.427,803.225 704.358,806.753C702.289,810.28 699.462,813.905 695.879,817.628L682.129,832.211L706.754,832.211L706.004,840.419L670.337,840.419Z" style="fill:white;fill-rule:nonzero;"/>
        </g>
        <g transform="matrix(1.20167,0,0,1.20167,410,280.021)">
            <path d="M0,0L316.228,0L316.228,316.228L0,316.228L0,0ZM69.045,66.999L68.879,106.596L227.267,106.596L227.101,143.531L70.044,143.531L70.21,240.361L262.039,240.195L262.039,201.097L99.824,201.097L99.824,172.98L262.538,172.98L262.538,67.166L69.045,66.999Z" style="fill:white;"/>
        </g>
    </g>
</svg>
