<?xml version="1.0" encoding="UTF-8" standalone="no"?>
<!DOCTYPE svg PUBLIC "-//W3C//DTD SVG 1.1//EN" "http://www.w3.org/Graphics/SVG/1.1/DTD/svg11.dtd">
<svg width="100%" height="100%" viewBox="0 0 1200 1080" version="1.1" xmlns="http://www.w3.org/2000/svg" xmlns:xlink="http://www.w3.org/1999/xlink" xml:space="preserve" xmlns:serif="http://www.serif.com/" style="fill-rule:evenodd;clip-rule:evenodd;stroke-linejoin:round;stroke-miterlimit:2;">
    <g transform="matrix(1,0,0,1.09091,-720,207.273)">
        <rect x="720" y="-190" width="1200" height="990" style="fill:rgb(46,46,46);"/>
    </g>
    <g transform="matrix(0.707107,-0.707107,0.707107,0.707107,-575.938,-155.145)">
        <path d="M-466.129,1280.63L207,607.5L207,1953.76L-466.129,1280.63Z" style="fill:rgb(51,51,51);"/>
    </g>
    <g id="PortMaster">
        <g transform="matrix(1,0,0,1,14.6837,-61.2735)">
            <path d="M364.983,840.419L364.983,779.211L385.316,779.211C390.122,779.211 394.233,779.829 397.65,781.065C401.066,782.301 403.768,784.308 405.754,787.086C407.74,789.864 408.733,793.35 408.733,797.544C408.733,800.461 408.358,803.051 407.608,805.315C406.858,807.579 405.622,809.635 403.9,811.482C402.177,813.329 399.754,814.753 396.629,815.753C393.504,816.753 389.733,817.253 385.316,817.253C381.539,817.253 378.469,817.142 376.108,816.919L376.108,840.419L364.983,840.419ZM384.108,809.086C386.414,809.086 388.42,808.864 390.129,808.419C391.837,807.975 393.17,807.405 394.129,806.711C395.087,806.017 395.851,805.155 396.42,804.128C396.99,803.1 397.365,802.107 397.545,801.149C397.726,800.19 397.816,799.114 397.816,797.919C397.816,794.558 396.733,792.003 394.566,790.253C392.4,788.503 389.344,787.628 385.4,787.628L376.108,787.628L376.108,809.003C376.441,809.058 379.108,809.086 384.108,809.086Z" style="fill:white;fill-rule:nonzero;"/>
            <path d="M435.483,833.003C439.177,833.003 441.955,831.655 443.816,828.961C445.677,826.267 446.608,822.405 446.608,817.378C446.608,812.294 445.677,808.419 443.816,805.753C441.955,803.086 439.15,801.753 435.4,801.753C431.705,801.753 428.92,803.093 427.045,805.774C425.17,808.454 424.233,812.336 424.233,817.419C424.233,822.419 425.177,826.267 427.066,828.961C428.955,831.655 431.761,833.003 435.483,833.003ZM435.191,841.294C428.414,841.294 423.08,839.1 419.191,834.711C415.302,830.322 413.358,824.544 413.358,817.378C413.358,809.989 415.302,804.162 419.191,799.899C423.08,795.635 428.566,793.503 435.65,793.503C442.483,793.503 447.837,795.676 451.712,800.024C455.587,804.371 457.525,810.155 457.525,817.378C457.525,824.683 455.566,830.496 451.65,834.815C447.733,839.135 442.247,841.294 435.191,841.294Z" style="fill:white;fill-rule:nonzero;"/>
            <path d="M466.483,840.419L466.483,794.628L475.65,794.628L477.066,801.628C480.066,796.822 484.414,794.419 490.108,794.419C491.302,794.419 492.275,794.475 493.025,794.586L492.858,803.711C491.747,803.544 490.594,803.461 489.4,803.461C485.372,803.461 482.365,804.53 480.379,806.669C478.393,808.808 477.4,811.78 477.4,815.586L477.4,840.419L466.483,840.419Z" style="fill:white;fill-rule:nonzero;"/>
            <path d="M517.983,841.044C514.872,841.044 512.282,840.676 510.212,839.94C508.143,839.204 506.525,838.044 505.358,836.461C504.191,834.878 503.365,833.01 502.879,830.857C502.393,828.704 502.15,826.044 502.15,822.878L502.15,801.253L494.65,801.253L495.066,795.336L502.9,794.628L506.4,782.211L513.066,782.169L513.066,794.628L524.441,794.628L524.441,801.253L513.066,801.253L513.066,823.086C513.066,826.558 513.566,829.03 514.566,830.503C515.566,831.975 517.414,832.711 520.108,832.711C521.691,832.711 523.386,832.572 525.191,832.294L525.483,840.128C525.427,840.128 525.087,840.19 524.462,840.315C523.837,840.44 523.24,840.551 522.67,840.649C522.101,840.746 521.372,840.836 520.483,840.919C519.594,841.003 518.761,841.044 517.983,841.044Z" style="fill:white;fill-rule:nonzero;"/>
            <path d="M534.191,840.419L534.191,779.378L547.525,779.378L565.983,823.461L584.566,779.378L597.733,779.378L597.733,840.419L587.316,840.419L587.316,810.253L587.65,792.961L586.108,797.544L570.483,836.253L560.816,836.253L545.525,797.336L543.983,792.753L544.358,810.419L544.358,840.419L534.191,840.419Z" style="fill:white;fill-rule:nonzero;"/>
            <path d="M621.941,841.294C617.691,841.294 614.254,840.121 611.629,837.774C609.004,835.426 607.691,832.044 607.691,827.628C607.691,822.878 609.247,819.357 612.358,817.065C615.469,814.774 620.164,813.322 626.441,812.711C627.302,812.6 628.233,812.489 629.233,812.378C630.233,812.267 631.358,812.155 632.608,812.044C633.858,811.933 634.844,811.836 635.566,811.753L635.566,809.336C635.566,806.558 634.927,804.537 633.65,803.274C632.372,802.01 630.427,801.378 627.816,801.378C624.094,801.378 619.497,802.419 614.025,804.503C613.997,804.419 613.539,803.155 612.65,800.711C611.761,798.267 611.302,797.017 611.275,796.961C616.664,794.655 622.497,793.503 628.775,793.503C634.941,793.503 639.427,794.843 642.233,797.524C645.039,800.204 646.441,804.544 646.441,810.544L646.441,840.419L638.358,840.419C638.33,840.308 638.025,839.378 637.441,837.628C636.858,835.878 636.566,834.947 636.566,834.836C634.289,837.058 632.059,838.69 629.879,839.732C627.698,840.774 625.052,841.294 621.941,841.294ZM624.9,833.544C627.427,833.544 629.629,832.94 631.504,831.732C633.379,830.524 634.719,829.058 635.525,827.336L635.525,818.503C635.441,818.503 634.712,818.558 633.337,818.669C631.962,818.78 631.219,818.836 631.108,818.836C626.691,819.225 623.455,820.058 621.4,821.336C619.344,822.614 618.316,824.669 618.316,827.503C618.316,829.447 618.886,830.94 620.025,831.982C621.164,833.024 622.789,833.544 624.9,833.544Z" style="fill:white;fill-rule:nonzero;"/>
            <path d="M672.066,841.253C665.316,841.253 659.914,840.1 655.858,837.794L656.983,829.586C658.816,830.586 661.15,831.482 663.983,832.274C666.816,833.065 669.4,833.461 671.733,833.461C674.15,833.461 676.032,833.01 677.379,832.107C678.726,831.204 679.414,829.878 679.441,828.128C679.441,826.544 678.809,825.294 677.545,824.378C676.282,823.461 673.872,822.322 670.316,820.961C669.094,820.517 668.302,820.225 667.941,820.086C663.719,818.447 660.677,816.621 658.816,814.607C656.955,812.593 656.025,809.864 656.025,806.419C656.025,802.253 657.532,799.058 660.545,796.836C663.559,794.614 667.761,793.503 673.15,793.503C678.983,793.503 684.108,794.6 688.525,796.794L685.816,804.336C681.455,802.308 677.302,801.294 673.358,801.294C671.164,801.294 669.448,801.662 668.212,802.399C666.976,803.135 666.358,804.253 666.358,805.753C666.358,807.169 666.955,808.274 668.15,809.065C669.344,809.857 671.677,810.892 675.15,812.169C675.261,812.197 675.622,812.322 676.233,812.544C676.844,812.767 677.316,812.947 677.65,813.086C681.844,814.614 684.927,816.44 686.9,818.565C688.872,820.69 689.858,823.461 689.858,826.878C689.83,831.461 688.275,835.003 685.191,837.503C682.108,840.003 677.733,841.253 672.066,841.253Z" style="fill:white;fill-rule:nonzero;"/>
            <path d="M716.775,841.044C713.664,841.044 711.073,840.676 709.004,839.94C706.934,839.204 705.316,838.044 704.15,836.461C702.983,834.878 702.157,833.01 701.67,830.857C701.184,828.704 700.941,826.044 700.941,822.878L700.941,801.253L693.441,801.253L693.858,795.336L701.691,794.628L705.191,782.211L711.858,782.169L711.858,794.628L723.233,794.628L723.233,801.253L711.858,801.253L711.858,823.086C711.858,826.558 712.358,829.03 713.358,830.503C714.358,831.975 716.205,832.711 718.9,832.711C720.483,832.711 722.177,832.572 723.983,832.294L724.275,840.128C724.219,840.128 723.879,840.19 723.254,840.315C722.629,840.44 722.032,840.551 721.462,840.649C720.893,840.746 720.164,840.836 719.275,840.919C718.386,841.003 717.552,841.044 716.775,841.044Z" style="fill:white;fill-rule:nonzero;"/>
            <path d="M752.733,841.294C745.372,841.294 739.643,839.176 735.545,834.94C731.448,830.704 729.4,824.85 729.4,817.378C729.4,810.1 731.33,804.308 735.191,800.003C739.052,795.697 744.316,793.53 750.983,793.503C757.289,793.503 762.184,795.475 765.67,799.419C769.157,803.364 770.9,808.6 770.9,815.128C770.9,815.6 770.893,816.364 770.879,817.419C770.865,818.475 770.858,819.253 770.858,819.753L740.4,819.753C740.511,824.03 741.684,827.343 743.92,829.69C746.157,832.037 749.233,833.211 753.15,833.211C758.15,833.211 762.955,831.905 767.566,829.294L769.108,837.044C764.525,839.878 759.066,841.294 752.733,841.294ZM740.608,812.878L760.608,812.878C760.608,809.155 759.761,806.294 758.066,804.294C756.372,802.294 754.025,801.294 751.025,801.294C748.219,801.294 745.851,802.267 743.92,804.211C741.99,806.155 740.886,809.044 740.608,812.878Z" style="fill:white;fill-rule:nonzero;"/>
            <path d="M779.816,840.419L779.816,794.628L788.983,794.628L790.4,801.628C793.4,796.822 797.747,794.419 803.441,794.419C804.636,794.419 805.608,794.475 806.358,794.586L806.191,803.711C805.08,803.544 803.927,803.461 802.733,803.461C798.705,803.461 795.698,804.53 793.712,806.669C791.726,808.808 790.733,811.78 790.733,815.586L790.733,840.419L779.816,840.419Z" style="fill:white;fill-rule:nonzero;"/>
        </g>
        <g transform="matrix(0.742132,0,0,0.742132,379.621,280.021)">
            <path d="M192,32C192,14.3 206.3,0 224,0L352,0C369.7,0 384,14.3 384,32L384,64L432,64C458.5,64 480,85.5 480,112L480,240L524.4,254.8C547.5,262.5 553.9,292.3 535.9,308.7L434.9,401.3C418.7,410.7 400.2,416.4 384,416.4C364.4,416.4 343.2,408.7 324.8,396.1C302.7,380.6 273.2,380.6 251.1,396.1C234,407.9 213.1,416.4 191.9,416.4C175.7,416.4 157.2,410.7 141,401.3L40,308.7C22,292.2 28.4,262.5 51.5,254.8L96,240L96,112C96,85.5 117.5,64 144,64L192,64L192,32ZM160,218.7L267.8,182.8C280.9,178.4 295.1,178.4 308.3,182.8L416,218.7L416,128L160,128L160,218.7ZM306.5,421.9C329,437.4 356.5,448 384,448C410.9,448 439.4,437.2 461.4,421.9C473.3,413.4 489.5,414.1 500.6,423.6C515,435.5 533.1,444.6 551.2,448.8C568.4,452.8 579.1,470 575.1,487.2C571.1,504.4 553.9,515.1 536.7,511.1C512.2,505.4 491.8,494.6 478.5,486.1C449.5,501.7 417,512 384,512C352.1,512 323.4,502.1 303.6,493.1C297.8,490.4 292.5,487.8 288,485.4C283.5,487.8 278.3,490.5 272.4,493.1C252.6,502.1 223.9,512 192,512C159,512 126.5,501.7 97.5,486.2C84.1,494.6 63.8,505.5 39.3,511.2C22.1,515.2 4.9,504.5 0.9,487.3C-3.1,470.1 7.6,452.9 24.8,448.9C42.9,444.7 61,435.6 75.4,423.7C86.5,414.3 102.7,413.6 114.6,422C136.7,437.2 165.1,448 192,448C219.5,448 247,437.4 269.5,421.9C280.6,414 295.4,414 306.5,421.9Z" style="fill:white;fill-rule:nonzero;"/>
        </g>
    </g>
</svg>
