<?xml version="1.0" encoding="UTF-8" standalone="no"?>
<!DOCTYPE svg PUBLIC "-//W3C//DTD SVG 1.1//EN" "http://www.w3.org/Graphics/SVG/1.1/DTD/svg11.dtd">
<svg width="100%" height="100%" viewBox="0 0 1200 1080" version="1.1" xmlns="http://www.w3.org/2000/svg" xmlns:xlink="http://www.w3.org/1999/xlink" xml:space="preserve" xmlns:serif="http://www.serif.com/" style="fill-rule:evenodd;clip-rule:evenodd;stroke-linejoin:round;stroke-miterlimit:2;">
    <g transform="matrix(1,0,0,1.09091,-720,207.273)">
        <rect x="720" y="-190" width="1200" height="990" style="fill:rgb(46,46,46);"/>
    </g>
    <g transform="matrix(0.707107,-0.707107,0.707107,0.707107,-575.938,-155.145)">
        <path d="M-466.129,1280.63L207,607.5L207,1953.76L-466.129,1280.63Z" style="fill:rgb(51,51,51);"/>
    </g>
    <g id="PPSSPP">
        <g transform="matrix(1,0,0,1,14.6837,-61.2735)">
            <path d="M436.087,840.419L436.087,779.211L456.42,779.211C461.226,779.211 465.337,779.829 468.754,781.065C472.17,782.301 474.872,784.308 476.858,787.086C478.844,789.864 479.837,793.35 479.837,797.544C479.837,800.461 479.462,803.051 478.712,805.315C477.962,807.579 476.726,809.635 475.004,811.482C473.282,813.329 470.858,814.753 467.733,815.753C464.608,816.753 460.837,817.253 456.42,817.253C452.643,817.253 449.573,817.142 447.212,816.919L447.212,840.419L436.087,840.419ZM455.212,809.086C457.518,809.086 459.525,808.864 461.233,808.419C462.941,807.975 464.275,807.405 465.233,806.711C466.191,806.017 466.955,805.155 467.525,804.128C468.094,803.1 468.469,802.107 468.65,801.149C468.83,800.19 468.92,799.114 468.92,797.919C468.92,794.558 467.837,792.003 465.67,790.253C463.504,788.503 460.448,787.628 456.504,787.628L447.212,787.628L447.212,809.003C447.545,809.058 450.212,809.086 455.212,809.086Z" style="fill:white;fill-rule:nonzero;"/>
            <path d="M487.962,840.419L487.962,779.211L508.295,779.211C513.101,779.211 517.212,779.829 520.629,781.065C524.045,782.301 526.747,784.308 528.733,787.086C530.719,789.864 531.712,793.35 531.712,797.544C531.712,800.461 531.337,803.051 530.587,805.315C529.837,807.579 528.601,809.635 526.879,811.482C525.157,813.329 522.733,814.753 519.608,815.753C516.483,816.753 512.712,817.253 508.295,817.253C504.518,817.253 501.448,817.142 499.087,816.919L499.087,840.419L487.962,840.419ZM507.087,809.086C509.393,809.086 511.4,808.864 513.108,808.419C514.816,807.975 516.15,807.405 517.108,806.711C518.066,806.017 518.83,805.155 519.4,804.128C519.969,803.1 520.344,802.107 520.525,801.149C520.705,800.19 520.795,799.114 520.795,797.919C520.795,794.558 519.712,792.003 517.545,790.253C515.379,788.503 512.323,787.628 508.379,787.628L499.087,787.628L499.087,809.003C499.42,809.058 502.087,809.086 507.087,809.086Z" style="fill:white;fill-rule:nonzero;"/>
            <path d="M557.254,841.253C549.893,841.253 543.295,839.558 537.462,836.169L540.212,827.211C542.823,828.655 545.664,829.822 548.733,830.711C551.802,831.6 554.795,832.044 557.712,832.044C561.295,832.044 564.004,831.274 565.837,829.732C567.67,828.19 568.587,825.975 568.587,823.086C568.587,819.253 566.032,816.6 560.92,815.128C560.559,815.017 559.545,814.718 557.879,814.232C556.212,813.746 554.65,813.274 553.191,812.815C551.733,812.357 550.684,812.003 550.045,811.753C541.851,808.864 537.754,803.475 537.754,795.586C537.754,790.058 539.719,785.794 543.65,782.794C547.58,779.794 552.795,778.294 559.295,778.294C566.657,778.294 573.004,779.808 578.337,782.836L574.92,791.086C569.476,788.642 564.42,787.419 559.754,787.419C556.393,787.419 553.858,788.01 552.15,789.19C550.441,790.371 549.532,792.336 549.42,795.086C549.42,798.475 551.101,800.683 554.462,801.711C555.129,801.961 556.768,802.503 559.379,803.336C561.99,804.169 563.684,804.711 564.462,804.961C570.045,806.794 574.039,809.072 576.441,811.794C578.844,814.517 580.045,818.308 580.045,823.169C580.045,828.975 577.99,833.44 573.879,836.565C569.768,839.69 564.226,841.253 557.254,841.253Z" style="fill:white;fill-rule:nonzero;"/>
            <path d="M606.795,841.253C599.434,841.253 592.837,839.558 587.004,836.169L589.754,827.211C592.365,828.655 595.205,829.822 598.275,830.711C601.344,831.6 604.337,832.044 607.254,832.044C610.837,832.044 613.545,831.274 615.379,829.732C617.212,828.19 618.129,825.975 618.129,823.086C618.129,819.253 615.573,816.6 610.462,815.128C610.101,815.017 609.087,814.718 607.42,814.232C605.754,813.746 604.191,813.274 602.733,812.815C601.275,812.357 600.226,812.003 599.587,811.753C591.393,808.864 587.295,803.475 587.295,795.586C587.295,790.058 589.261,785.794 593.191,782.794C597.122,779.794 602.337,778.294 608.837,778.294C616.198,778.294 622.545,779.808 627.879,782.836L624.462,791.086C619.018,788.642 613.962,787.419 609.295,787.419C605.934,787.419 603.4,788.01 601.691,789.19C599.983,790.371 599.073,792.336 598.962,795.086C598.962,798.475 600.643,800.683 604.004,801.711C604.67,801.961 606.309,802.503 608.92,803.336C611.532,804.169 613.226,804.711 614.004,804.961C619.587,806.794 623.58,809.072 625.983,811.794C628.386,814.517 629.587,818.308 629.587,823.169C629.587,828.975 627.532,833.44 623.42,836.565C619.309,839.69 613.768,841.253 606.795,841.253Z" style="fill:white;fill-rule:nonzero;"/>
            <path d="M638.92,840.419L638.92,779.211L659.254,779.211C664.059,779.211 668.17,779.829 671.587,781.065C675.004,782.301 677.705,784.308 679.691,787.086C681.677,789.864 682.67,793.35 682.67,797.544C682.67,800.461 682.295,803.051 681.545,805.315C680.795,807.579 679.559,809.635 677.837,811.482C676.115,813.329 673.691,814.753 670.566,815.753C667.441,816.753 663.67,817.253 659.254,817.253C655.476,817.253 652.407,817.142 650.045,816.919L650.045,840.419L638.92,840.419ZM658.045,809.086C660.351,809.086 662.358,808.864 664.066,808.419C665.775,807.975 667.108,807.405 668.066,806.711C669.025,806.017 669.789,805.155 670.358,804.128C670.927,803.1 671.302,802.107 671.483,801.149C671.664,800.19 671.754,799.114 671.754,797.919C671.754,794.558 670.67,792.003 668.504,790.253C666.337,788.503 663.282,787.628 659.337,787.628L650.045,787.628L650.045,809.003C650.379,809.058 653.045,809.086 658.045,809.086Z" style="fill:white;fill-rule:nonzero;"/>
            <path d="M690.795,840.419L690.795,779.211L711.129,779.211C715.934,779.211 720.045,779.829 723.462,781.065C726.879,782.301 729.58,784.308 731.566,787.086C733.552,789.864 734.545,793.35 734.545,797.544C734.545,800.461 734.17,803.051 733.42,805.315C732.67,807.579 731.434,809.635 729.712,811.482C727.99,813.329 725.566,814.753 722.441,815.753C719.316,816.753 715.545,817.253 711.129,817.253C707.351,817.253 704.282,817.142 701.92,816.919L701.92,840.419L690.795,840.419ZM709.92,809.086C712.226,809.086 714.233,808.864 715.941,808.419C717.65,807.975 718.983,807.405 719.941,806.711C720.9,806.017 721.664,805.155 722.233,804.128C722.802,803.1 723.177,802.107 723.358,801.149C723.539,800.19 723.629,799.114 723.629,797.919C723.629,794.558 722.545,792.003 720.379,790.253C718.212,788.503 715.157,787.628 711.212,787.628L701.92,787.628L701.92,809.003C702.254,809.058 704.92,809.086 709.92,809.086Z" style="fill:white;fill-rule:nonzero;"/>
        </g>
        <g id="PPSSPP1" serif:id="PPSSPP" transform="matrix(0.78566,0,0,0.78566,398.561,267.607)">
            <g transform="matrix(1,0,0,1,0,-540)">
                <path d="M272.44,577.6L294.88,675.94L245.05,753.6L166.73,705.09L144.29,606.75L272.44,577.6ZM123.46,592.65L152.72,721.35L251.94,784.6L314.2,684.5L284.94,555.8L123.46,592.65Z" style="fill:white;fill-rule:nonzero;"/>
            </g>
            <g transform="matrix(1,0,0,1,0,-540)">
                <path d="M34.84,780L133.18,757.56L210.84,807.39L162.33,885.71L63.99,908.15L34.84,780ZM50.2,928.48L178.9,899.22L242.15,800L142.05,737.74L13.35,767L50.2,928.48Z" style="fill:white;fill-rule:nonzero;"/>
            </g>
            <g transform="matrix(1,0,0,1,0,-540)">
                <path d="M238.34,1018.01L215.9,919.667L265.73,842.007L344.05,890.517L366.49,988.857L238.34,1018.01ZM387.02,1002.62L357.76,873.92L258.54,810.67L196.28,910.77L225.54,1039.47L387.02,1002.62Z" style="fill:white;fill-rule:nonzero;"/>
            </g>
            <g transform="matrix(1,0,0,1,0,-540)">
                <path d="M478.14,815.2L379.8,837.64L302.14,787.81L350.65,709.49L448.99,687.05L478.14,815.2ZM462.59,666.02L333.89,695.28L270.64,794.5L370.74,856.76L499.44,827.5L462.59,666.02Z" style="fill:white;fill-rule:nonzero;"/>
            </g>
        </g>
    </g>
</svg>
