<?xml version="1.0" encoding="UTF-8" standalone="no"?>
<!DOCTYPE svg PUBLIC "-//W3C//DTD SVG 1.1//EN" "http://www.w3.org/Graphics/SVG/1.1/DTD/svg11.dtd">
<svg width="100%" height="100%" viewBox="0 0 1200 1080" version="1.1" xmlns="http://www.w3.org/2000/svg" xmlns:xlink="http://www.w3.org/1999/xlink" xml:space="preserve" xmlns:serif="http://www.serif.com/" style="fill-rule:evenodd;clip-rule:evenodd;stroke-linejoin:round;stroke-miterlimit:2;">
    <g transform="matrix(1,0,0,1.09091,-720,207.273)">
        <rect x="720" y="-190" width="1200" height="990" style="fill:rgb(46,46,46);"/>
    </g>
    <g transform="matrix(0.707107,-0.707107,0.707107,0.707107,-575.938,-155.145)">
        <path d="M-466.129,1280.63L207,607.5L207,1953.76L-466.129,1280.63Z" style="fill:rgb(51,51,51);"/>
    </g>
    <g id="RCLONE-Backup" serif:id="RCLONE Backup">
        <g transform="matrix(1,0,0,1,14.6837,-61.2735)">
            <path d="M270.358,784.544L270.358,805.378C271.497,805.378 273.851,805.405 277.42,805.461C280.99,805.517 283.747,805.544 285.691,805.544C290.997,805.544 294.691,804.662 296.775,802.899C298.858,801.135 299.9,798.336 299.9,794.503C299.9,791.142 298.9,788.642 296.9,787.003C294.9,785.364 291.552,784.544 286.858,784.544L270.358,784.544ZM309.858,840.419L301.525,840.419L293.025,821.086C290.719,815.892 289.247,812.767 288.608,811.711C286.58,811.85 284.177,811.919 281.4,811.919L270.358,811.586L270.358,840.419L262.983,840.419L262.983,778.086L282.691,778.086C284.969,778.086 286.983,778.142 288.733,778.253C290.483,778.364 292.226,778.565 293.962,778.857C295.698,779.149 297.205,779.551 298.483,780.065C299.761,780.579 300.955,781.246 302.066,782.065C303.177,782.885 304.073,783.864 304.754,785.003C305.434,786.142 305.969,787.496 306.358,789.065C306.747,790.635 306.941,792.405 306.941,794.378C306.941,798.267 305.92,801.614 303.879,804.419C301.837,807.225 298.941,809.169 295.191,810.253C295.191,810.308 295.469,810.808 296.025,811.753C296.58,812.697 297.24,813.857 298.004,815.232C298.768,816.607 299.358,817.753 299.775,818.669L309.858,840.419Z" style="fill:white;fill-rule:nonzero;"/>
            <path d="M345.858,841.294C336.941,841.294 329.872,838.489 324.65,832.878C319.427,827.267 316.816,819.517 316.816,809.628C316.816,800.239 319.545,792.704 325.004,787.024C330.462,781.343 337.608,778.503 346.441,778.503C353.58,778.503 359.622,780.155 364.566,783.461L361.025,792.003C356.275,789.086 351.497,787.628 346.691,787.628C341.08,787.628 336.643,789.649 333.379,793.69C330.115,797.732 328.483,803.155 328.483,809.961C328.483,817.017 330.059,822.475 333.212,826.336C336.365,830.197 340.858,832.128 346.691,832.128C351.802,832.128 356.872,830.85 361.9,828.294L363.4,837.128C358.733,839.905 352.886,841.294 345.858,841.294Z" style="fill:white;fill-rule:nonzero;"/>
            <path d="M373.441,840.419L373.441,779.378L384.733,779.378L384.733,831.419L410.275,831.419L409.941,840.419L373.441,840.419Z" style="fill:white;fill-rule:nonzero;"/>
            <path d="M431.983,826.294C435.011,830.155 439.483,832.086 445.4,832.086C451.316,832.086 455.782,830.162 458.795,826.315C461.809,822.468 463.316,817.03 463.316,810.003C463.316,802.892 461.809,797.378 458.795,793.461C455.782,789.544 451.33,787.586 445.441,787.586C439.525,787.586 435.045,789.551 432.004,793.482C428.962,797.412 427.441,802.919 427.441,810.003C427.441,817.003 428.955,822.433 431.983,826.294ZM445.358,841.294C436.164,841.294 428.907,838.51 423.587,832.94C418.268,827.371 415.608,819.683 415.608,809.878C415.608,800.017 418.275,792.322 423.608,786.794C428.941,781.267 436.205,778.503 445.4,778.503C454.594,778.503 461.844,781.274 467.15,786.815C472.455,792.357 475.108,800.058 475.108,809.919C475.108,819.669 472.441,827.336 467.108,832.919C461.775,838.503 454.525,841.294 445.358,841.294Z" style="fill:white;fill-rule:nonzero;"/>
            <path d="M485.816,840.419L485.816,779.378L497.816,779.378C499.983,782.767 504.386,789.6 511.025,799.878C517.664,810.155 521.705,816.405 523.15,818.628C523.566,819.267 524.282,820.343 525.295,821.857C526.309,823.371 527.025,824.447 527.441,825.086C527.247,815.558 527.15,810.614 527.15,810.253L527.15,779.378L537.441,779.378L537.441,840.419L525.275,840.419L497.733,797.503L495.733,794.211C495.955,801.544 496.066,806.697 496.066,809.669L496.066,840.419L485.816,840.419Z" style="fill:white;fill-rule:nonzero;"/>
            <path d="M550.566,840.419L550.566,779.378L587.566,779.378L587.108,788.336L561.858,788.336L561.858,804.086L585.858,804.086L585.858,813.044L561.858,813.044L561.858,831.419L588.025,831.419L587.65,840.419L550.566,840.419Z" style="fill:white;fill-rule:nonzero;"/>
            <path d="M621.108,840.419L621.108,779.378L640.15,779.378C648.233,779.378 654.261,780.558 658.233,782.919C662.205,785.28 664.191,789.211 664.191,794.711C664.191,795.6 664.136,796.475 664.025,797.336C663.914,798.197 663.664,799.176 663.275,800.274C662.886,801.371 662.372,802.364 661.733,803.253C661.094,804.142 660.205,805.01 659.066,805.857C657.927,806.704 656.594,807.364 655.066,807.836C658.844,808.753 661.733,810.51 663.733,813.107C665.733,815.704 666.733,818.905 666.733,822.711C666.733,828.461 664.698,832.85 660.629,835.878C656.559,838.905 650.927,840.419 643.733,840.419L621.108,840.419ZM632.4,832.253L642.191,832.253C650.858,832.253 655.191,828.864 655.191,822.086C655.191,818.669 654.108,816.211 651.941,814.711C649.775,813.211 646.427,812.461 641.9,812.461L632.4,812.461L632.4,832.253ZM632.4,804.586L642.066,804.586C649.539,804.586 653.275,801.739 653.275,796.044C653.275,792.85 652.198,790.655 650.045,789.461C647.893,788.267 644.469,787.669 639.775,787.669L632.4,787.669L632.4,804.586Z" style="fill:white;fill-rule:nonzero;"/>
            <path d="M687.691,841.294C683.441,841.294 680.004,840.121 677.379,837.774C674.754,835.426 673.441,832.044 673.441,827.628C673.441,822.878 674.997,819.357 678.108,817.065C681.219,814.774 685.914,813.322 692.191,812.711C693.052,812.6 693.983,812.489 694.983,812.378C695.983,812.267 697.108,812.155 698.358,812.044C699.608,811.933 700.594,811.836 701.316,811.753L701.316,809.336C701.316,806.558 700.677,804.537 699.4,803.274C698.122,802.01 696.177,801.378 693.566,801.378C689.844,801.378 685.247,802.419 679.775,804.503C679.747,804.419 679.289,803.155 678.4,800.711C677.511,798.267 677.052,797.017 677.025,796.961C682.414,794.655 688.247,793.503 694.525,793.503C700.691,793.503 705.177,794.843 707.983,797.524C710.789,800.204 712.191,804.544 712.191,810.544L712.191,840.419L704.108,840.419C704.08,840.308 703.775,839.378 703.191,837.628C702.608,835.878 702.316,834.947 702.316,834.836C700.039,837.058 697.809,838.69 695.629,839.732C693.448,840.774 690.802,841.294 687.691,841.294ZM690.65,833.544C693.177,833.544 695.379,832.94 697.254,831.732C699.129,830.524 700.469,829.058 701.275,827.336L701.275,818.503C701.191,818.503 700.462,818.558 699.087,818.669C697.712,818.78 696.969,818.836 696.858,818.836C692.441,819.225 689.205,820.058 687.15,821.336C685.094,822.614 684.066,824.669 684.066,827.503C684.066,829.447 684.636,830.94 685.775,831.982C686.914,833.024 688.539,833.544 690.65,833.544Z" style="fill:white;fill-rule:nonzero;"/>
            <path d="M743.233,841.294C736.233,841.294 730.782,839.211 726.879,835.044C722.976,830.878 721.025,824.919 721.025,817.169C721.025,809.669 723.073,803.85 727.17,799.711C731.268,795.572 736.664,793.503 743.358,793.503C748.719,793.503 753.247,794.655 756.941,796.961L754.358,804.753C750.58,802.78 747.066,801.794 743.816,801.794C740.122,801.794 737.212,803.114 735.087,805.753C732.962,808.392 731.9,812.239 731.9,817.294C731.9,822.405 732.948,826.294 735.045,828.961C737.143,831.628 740.108,832.961 743.941,832.961C747.941,832.961 751.789,831.78 755.483,829.419L756.525,837.711C754.608,838.989 752.622,839.905 750.566,840.461C748.511,841.017 746.066,841.294 743.233,841.294Z" style="fill:white;fill-rule:nonzero;"/>
            <path d="M765.191,840.419L765.191,777.753L776.108,777.044L776.108,805.169L775.858,814.419C775.886,814.392 776.17,814.114 776.712,813.586C777.254,813.058 777.552,812.767 777.608,812.711C779.136,810.905 780.795,809.044 782.587,807.128C784.379,805.211 786.643,802.864 789.379,800.086C792.115,797.308 793.9,795.489 794.733,794.628L807.733,794.628L788.9,814.128L808.941,840.419L795.733,840.419L780.65,819.628L776.108,823.211L776.108,840.419L765.191,840.419Z" style="fill:white;fill-rule:nonzero;"/>
            <path d="M847.108,836.836C843.469,839.808 838.677,841.294 832.733,841.294C826.789,841.294 822.004,839.808 818.379,836.836C814.754,833.864 812.941,829.503 812.941,823.753L812.941,794.628L823.9,794.628L823.9,823.336C823.9,826.753 824.615,829.225 826.045,830.753C827.476,832.28 829.747,833.044 832.858,833.044C835.914,833.044 838.143,832.287 839.545,830.774C840.948,829.26 841.65,826.78 841.65,823.336L841.65,794.628L852.566,794.628L852.566,823.753C852.566,829.475 850.747,833.836 847.108,836.836Z" style="fill:white;fill-rule:nonzero;"/>
            <path d="M862.525,859.461L862.525,794.628L871.9,794.628L873.066,801.044C874.566,798.628 876.559,796.76 879.045,795.44C881.532,794.121 884.302,793.461 887.358,793.461C891.108,793.461 894.407,794.503 897.254,796.586C900.101,798.669 902.261,801.51 903.733,805.107C905.205,808.704 905.941,812.767 905.941,817.294C905.941,824.378 904.226,830.149 900.795,834.607C897.365,839.065 892.719,841.294 886.858,841.294C883.969,841.294 881.351,840.718 879.004,839.565C876.657,838.412 874.691,836.85 873.108,834.878C873.33,838.878 873.441,841.128 873.441,841.628L873.441,858.919L862.525,859.461ZM884.525,832.961C887.775,832.961 890.337,831.6 892.212,828.878C894.087,826.155 895.025,822.267 895.025,817.211C895.025,812.072 894.08,808.211 892.191,805.628C890.302,803.044 887.677,801.753 884.316,801.753C877.094,801.753 873.441,806.669 873.358,816.503C873.358,822.169 874.295,826.329 876.17,828.982C878.045,831.635 880.83,832.961 884.525,832.961Z" style="fill:white;fill-rule:nonzero;"/>
        </g>
        <g transform="matrix(5.74545,0,0,5.74545,783.992,628.591)">
            <path d="M0,-26.524C-2.206,-30.345 -5.416,-33.225 -9.105,-35.023C-9.577,-32.503 -10.47,-30.019 -11.823,-27.675L-13.958,-23.97C-12.536,-23.18 -11.298,-22.017 -10.425,-20.505C-7.86,-16.063 -9.383,-10.381 -13.826,-7.816C-18.268,-5.251 -23.95,-6.773 -26.515,-11.216L-30.823,-18.666L-37.775,-18.666L-41.251,-12.646L-36.94,-5.197C-31.05,5.004 -18.007,8.499 -7.806,2.609C2.394,-3.28 5.889,-16.323 0,-26.524" style="fill:white;fill-rule:nonzero;"/>
        </g>
        <g transform="matrix(5.74545,0,0,5.74545,661.246,472.859)">
            <path d="M0,-30.703C-10.201,-36.592 -23.244,-33.097 -29.133,-22.897C-31.34,-19.076 -32.228,-14.856 -31.941,-10.762C-29.523,-11.613 -26.925,-12.082 -24.218,-12.082L-19.943,-12.086C-19.97,-13.712 -19.581,-15.366 -18.709,-16.877C-16.143,-21.32 -10.462,-22.843 -6.019,-20.277C-1.576,-17.712 -0.054,-12.031 -2.619,-7.588L-6.916,-0.132L-3.441,5.889L3.511,5.888L7.806,-1.57C13.696,-11.77 10.201,-24.814 0,-30.703" style="fill:white;fill-rule:nonzero;"/>
        </g>
        <g transform="matrix(5.74545,0,0,5.74545,561.801,470.411)">
            <path d="M0,23.335L-2.142,19.634C-3.537,20.471 -5.163,20.961 -6.908,20.961C-12.039,20.961 -16.198,16.802 -16.198,11.671C-16.198,6.541 -12.039,2.382 -6.908,2.382L1.697,2.376L5.174,-3.644L1.697,-9.664L-6.909,-9.656C-18.688,-9.656 -28.236,-0.107 -28.236,11.671C-28.236,23.45 -18.688,32.999 -6.909,32.999C-2.498,32.999 1.599,31.659 5,29.366C3.054,27.697 1.353,25.678 0,23.335" style="fill:white;fill-rule:nonzero;"/>
        </g>
    </g>
</svg>
