<?xml version="1.0" encoding="UTF-8" standalone="no"?>
<!DOCTYPE svg PUBLIC "-//W3C//DTD SVG 1.1//EN" "http://www.w3.org/Graphics/SVG/1.1/DTD/svg11.dtd">
<svg width="100%" height="100%" viewBox="0 0 1200 1080" version="1.1" xmlns="http://www.w3.org/2000/svg" xmlns:xlink="http://www.w3.org/1999/xlink" xml:space="preserve" xmlns:serif="http://www.serif.com/" style="fill-rule:evenodd;clip-rule:evenodd;stroke-linejoin:round;stroke-miterlimit:2;">
    <g transform="matrix(1,0,0,1.09091,-720,207.273)">
        <rect x="720" y="-190" width="1200" height="990" style="fill:rgb(46,46,46);"/>
    </g>
    <g transform="matrix(0.707107,-0.707107,0.707107,0.707107,-575.938,-155.145)">
        <path d="M-466.129,1280.63L207,607.5L207,1953.76L-466.129,1280.63Z" style="fill:rgb(51,51,51);"/>
    </g>
    <g id="RClone-Restore" serif:id="RClone Restore">
        <g transform="matrix(5.74545,0,0,5.74545,783.992,628.591)">
            <path d="M0,-26.524C-2.206,-30.345 -5.416,-33.225 -9.105,-35.023C-9.577,-32.503 -10.47,-30.019 -11.823,-27.675L-13.958,-23.97C-12.536,-23.18 -11.298,-22.017 -10.425,-20.505C-7.86,-16.063 -9.383,-10.381 -13.826,-7.816C-18.268,-5.251 -23.95,-6.773 -26.515,-11.216L-30.823,-18.666L-37.775,-18.666L-41.251,-12.646L-36.94,-5.197C-31.05,5.004 -18.007,8.499 -7.806,2.609C2.394,-3.28 5.889,-16.323 0,-26.524" style="fill:white;fill-rule:nonzero;"/>
        </g>
        <g transform="matrix(5.74545,0,0,5.74545,661.246,472.859)">
            <path d="M0,-30.703C-10.201,-36.592 -23.244,-33.097 -29.133,-22.897C-31.34,-19.076 -32.228,-14.856 -31.941,-10.762C-29.523,-11.613 -26.925,-12.082 -24.218,-12.082L-19.943,-12.086C-19.97,-13.712 -19.581,-15.366 -18.709,-16.877C-16.143,-21.32 -10.462,-22.843 -6.019,-20.277C-1.576,-17.712 -0.054,-12.031 -2.619,-7.588L-6.916,-0.132L-3.441,5.889L3.511,5.888L7.806,-1.57C13.696,-11.77 10.201,-24.814 0,-30.703" style="fill:white;fill-rule:nonzero;"/>
        </g>
        <g transform="matrix(5.74545,0,0,5.74545,561.801,470.411)">
            <path d="M0,23.335L-2.142,19.634C-3.537,20.471 -5.163,20.961 -6.908,20.961C-12.039,20.961 -16.198,16.802 -16.198,11.671C-16.198,6.541 -12.039,2.382 -6.908,2.382L1.697,2.376L5.174,-3.644L1.697,-9.664L-6.909,-9.656C-18.688,-9.656 -28.236,-0.107 -28.236,11.671C-28.236,23.45 -18.688,32.999 -6.909,32.999C-2.498,32.999 1.599,31.659 5,29.366C3.054,27.697 1.353,25.678 0,23.335" style="fill:white;fill-rule:nonzero;"/>
        </g>
        <g transform="matrix(1,0,0,1,14.6837,-61.2735)">
            <path d="M261.566,784.544L261.566,805.378C262.705,805.378 265.059,805.405 268.629,805.461C272.198,805.517 274.955,805.544 276.9,805.544C282.205,805.544 285.9,804.662 287.983,802.899C290.066,801.135 291.108,798.336 291.108,794.503C291.108,791.142 290.108,788.642 288.108,787.003C286.108,785.364 282.761,784.544 278.066,784.544L261.566,784.544ZM301.066,840.419L292.733,840.419L284.233,821.086C281.927,815.892 280.455,812.767 279.816,811.711C277.789,811.85 275.386,811.919 272.608,811.919L261.566,811.586L261.566,840.419L254.191,840.419L254.191,778.086L273.9,778.086C276.177,778.086 278.191,778.142 279.941,778.253C281.691,778.364 283.434,778.565 285.17,778.857C286.907,779.149 288.414,779.551 289.691,780.065C290.969,780.579 292.164,781.246 293.275,782.065C294.386,782.885 295.282,783.864 295.962,785.003C296.643,786.142 297.177,787.496 297.566,789.065C297.955,790.635 298.15,792.405 298.15,794.378C298.15,798.267 297.129,801.614 295.087,804.419C293.045,807.225 290.15,809.169 286.4,810.253C286.4,810.308 286.677,810.808 287.233,811.753C287.789,812.697 288.448,813.857 289.212,815.232C289.976,816.607 290.566,817.753 290.983,818.669L301.066,840.419Z" style="fill:white;fill-rule:nonzero;"/>
            <path d="M337.066,841.294C328.15,841.294 321.08,838.489 315.858,832.878C310.636,827.267 308.025,819.517 308.025,809.628C308.025,800.239 310.754,792.704 316.212,787.024C321.67,781.343 328.816,778.503 337.65,778.503C344.789,778.503 350.83,780.155 355.775,783.461L352.233,792.003C347.483,789.086 342.705,787.628 337.9,787.628C332.289,787.628 327.851,789.649 324.587,793.69C321.323,797.732 319.691,803.155 319.691,809.961C319.691,817.017 321.268,822.475 324.42,826.336C327.573,830.197 332.066,832.128 337.9,832.128C343.011,832.128 348.08,830.85 353.108,828.294L354.608,837.128C349.941,839.905 344.094,841.294 337.066,841.294Z" style="fill:white;fill-rule:nonzero;"/>
            <path d="M364.65,840.419L364.65,779.378L375.941,779.378L375.941,831.419L401.483,831.419L401.15,840.419L364.65,840.419Z" style="fill:white;fill-rule:nonzero;"/>
            <path d="M423.191,826.294C426.219,830.155 430.691,832.086 436.608,832.086C442.525,832.086 446.99,830.162 450.004,826.315C453.018,822.468 454.525,817.03 454.525,810.003C454.525,802.892 453.018,797.378 450.004,793.461C446.99,789.544 442.539,787.586 436.65,787.586C430.733,787.586 426.254,789.551 423.212,793.482C420.17,797.412 418.65,802.919 418.65,810.003C418.65,817.003 420.164,822.433 423.191,826.294ZM436.566,841.294C427.372,841.294 420.115,838.51 414.795,832.94C409.476,827.371 406.816,819.683 406.816,809.878C406.816,800.017 409.483,792.322 414.816,786.794C420.15,781.267 427.414,778.503 436.608,778.503C445.802,778.503 453.052,781.274 458.358,786.815C463.664,792.357 466.316,800.058 466.316,809.919C466.316,819.669 463.65,827.336 458.316,832.919C452.983,838.503 445.733,841.294 436.566,841.294Z" style="fill:white;fill-rule:nonzero;"/>
            <path d="M477.025,840.419L477.025,779.378L489.025,779.378C491.191,782.767 495.594,789.6 502.233,799.878C508.872,810.155 512.914,816.405 514.358,818.628C514.775,819.267 515.49,820.343 516.504,821.857C517.518,823.371 518.233,824.447 518.65,825.086C518.455,815.558 518.358,810.614 518.358,810.253L518.358,779.378L528.65,779.378L528.65,840.419L516.483,840.419L488.941,797.503L486.941,794.211C487.164,801.544 487.275,806.697 487.275,809.669L487.275,840.419L477.025,840.419Z" style="fill:white;fill-rule:nonzero;"/>
            <path d="M541.775,840.419L541.775,779.378L578.775,779.378L578.316,788.336L553.066,788.336L553.066,804.086L577.066,804.086L577.066,813.044L553.066,813.044L553.066,831.419L579.233,831.419L578.858,840.419L541.775,840.419Z" style="fill:white;fill-rule:nonzero;"/>
            <path d="M612.025,840.419L612.025,779.211L634.65,779.211C637.733,779.211 640.407,779.35 642.67,779.628C644.934,779.905 647.087,780.412 649.129,781.149C651.17,781.885 652.823,782.878 654.087,784.128C655.351,785.378 656.351,787.01 657.087,789.024C657.823,791.037 658.191,793.419 658.191,796.169C658.191,804.28 654.511,809.614 647.15,812.169C648.65,813.864 650.511,817.003 652.733,821.586L661.816,840.419L649.483,840.419L642.358,824.461C639.664,818.739 637.997,815.35 637.358,814.294C636.886,814.267 635.316,814.253 632.65,814.253L623.191,814.169L623.191,840.419L612.025,840.419ZM635.65,806.086C639.983,806.086 643.094,805.315 644.983,803.774C646.872,802.232 647.816,799.753 647.816,796.336C647.816,793.336 646.858,791.128 644.941,789.711C643.025,788.294 640.094,787.586 636.15,787.586L623.191,787.586L623.191,806.044C623.608,806.044 625.677,806.051 629.4,806.065C633.122,806.079 635.205,806.086 635.65,806.086Z" style="fill:white;fill-rule:nonzero;"/>
            <path d="M690.525,841.294C683.164,841.294 677.434,839.176 673.337,834.94C669.24,830.704 667.191,824.85 667.191,817.378C667.191,810.1 669.122,804.308 672.983,800.003C676.844,795.697 682.108,793.53 688.775,793.503C695.08,793.503 699.976,795.475 703.462,799.419C706.948,803.364 708.691,808.6 708.691,815.128C708.691,815.6 708.684,816.364 708.67,817.419C708.657,818.475 708.65,819.253 708.65,819.753L678.191,819.753C678.302,824.03 679.476,827.343 681.712,829.69C683.948,832.037 687.025,833.211 690.941,833.211C695.941,833.211 700.747,831.905 705.358,829.294L706.9,837.044C702.316,839.878 696.858,841.294 690.525,841.294ZM678.4,812.878L698.4,812.878C698.4,809.155 697.552,806.294 695.858,804.294C694.164,802.294 691.816,801.294 688.816,801.294C686.011,801.294 683.643,802.267 681.712,804.211C679.782,806.155 678.677,809.044 678.4,812.878Z" style="fill:white;fill-rule:nonzero;"/>
            <path d="M732.191,841.253C725.441,841.253 720.039,840.1 715.983,837.794L717.108,829.586C718.941,830.586 721.275,831.482 724.108,832.274C726.941,833.065 729.525,833.461 731.858,833.461C734.275,833.461 736.157,833.01 737.504,832.107C738.851,831.204 739.539,829.878 739.566,828.128C739.566,826.544 738.934,825.294 737.67,824.378C736.407,823.461 733.997,822.322 730.441,820.961C729.219,820.517 728.427,820.225 728.066,820.086C723.844,818.447 720.802,816.621 718.941,814.607C717.08,812.593 716.15,809.864 716.15,806.419C716.15,802.253 717.657,799.058 720.67,796.836C723.684,794.614 727.886,793.503 733.275,793.503C739.108,793.503 744.233,794.6 748.65,796.794L745.941,804.336C741.58,802.308 737.427,801.294 733.483,801.294C731.289,801.294 729.573,801.662 728.337,802.399C727.101,803.135 726.483,804.253 726.483,805.753C726.483,807.169 727.08,808.274 728.275,809.065C729.469,809.857 731.802,810.892 735.275,812.169C735.386,812.197 735.747,812.322 736.358,812.544C736.969,812.767 737.441,812.947 737.775,813.086C741.969,814.614 745.052,816.44 747.025,818.565C748.997,820.69 749.983,823.461 749.983,826.878C749.955,831.461 748.4,835.003 745.316,837.503C742.233,840.003 737.858,841.253 732.191,841.253Z" style="fill:white;fill-rule:nonzero;"/>
            <path d="M776.9,841.044C773.789,841.044 771.198,840.676 769.129,839.94C767.059,839.204 765.441,838.044 764.275,836.461C763.108,834.878 762.282,833.01 761.795,830.857C761.309,828.704 761.066,826.044 761.066,822.878L761.066,801.253L753.566,801.253L753.983,795.336L761.816,794.628L765.316,782.211L771.983,782.169L771.983,794.628L783.358,794.628L783.358,801.253L771.983,801.253L771.983,823.086C771.983,826.558 772.483,829.03 773.483,830.503C774.483,831.975 776.33,832.711 779.025,832.711C780.608,832.711 782.302,832.572 784.108,832.294L784.4,840.128C784.344,840.128 784.004,840.19 783.379,840.315C782.754,840.44 782.157,840.551 781.587,840.649C781.018,840.746 780.289,840.836 779.4,840.919C778.511,841.003 777.677,841.044 776.9,841.044Z" style="fill:white;fill-rule:nonzero;"/>
            <path d="M811.65,833.003C815.344,833.003 818.122,831.655 819.983,828.961C821.844,826.267 822.775,822.405 822.775,817.378C822.775,812.294 821.844,808.419 819.983,805.753C818.122,803.086 815.316,801.753 811.566,801.753C807.872,801.753 805.087,803.093 803.212,805.774C801.337,808.454 800.4,812.336 800.4,817.419C800.4,822.419 801.344,826.267 803.233,828.961C805.122,831.655 807.927,833.003 811.65,833.003ZM811.358,841.294C804.58,841.294 799.247,839.1 795.358,834.711C791.469,830.322 789.525,824.544 789.525,817.378C789.525,809.989 791.469,804.162 795.358,799.899C799.247,795.635 804.733,793.503 811.816,793.503C818.65,793.503 824.004,795.676 827.879,800.024C831.754,804.371 833.691,810.155 833.691,817.378C833.691,824.683 831.733,830.496 827.816,834.815C823.9,839.135 818.414,841.294 811.358,841.294Z" style="fill:white;fill-rule:nonzero;"/>
            <path d="M842.65,840.419L842.65,794.628L851.816,794.628L853.233,801.628C856.233,796.822 860.58,794.419 866.275,794.419C867.469,794.419 868.441,794.475 869.191,794.586L869.025,803.711C867.914,803.544 866.761,803.461 865.566,803.461C861.539,803.461 858.532,804.53 856.545,806.669C854.559,808.808 853.566,811.78 853.566,815.586L853.566,840.419L842.65,840.419Z" style="fill:white;fill-rule:nonzero;"/>
            <path d="M896.608,841.294C889.247,841.294 883.518,839.176 879.42,834.94C875.323,830.704 873.275,824.85 873.275,817.378C873.275,810.1 875.205,804.308 879.066,800.003C882.927,795.697 888.191,793.53 894.858,793.503C901.164,793.503 906.059,795.475 909.545,799.419C913.032,803.364 914.775,808.6 914.775,815.128C914.775,815.6 914.768,816.364 914.754,817.419C914.74,818.475 914.733,819.253 914.733,819.753L884.275,819.753C884.386,824.03 885.559,827.343 887.795,829.69C890.032,832.037 893.108,833.211 897.025,833.211C902.025,833.211 906.83,831.905 911.441,829.294L912.983,837.044C908.4,839.878 902.941,841.294 896.608,841.294ZM884.483,812.878L904.483,812.878C904.483,809.155 903.636,806.294 901.941,804.294C900.247,802.294 897.9,801.294 894.9,801.294C892.094,801.294 889.726,802.267 887.795,804.211C885.865,806.155 884.761,809.044 884.483,812.878Z" style="fill:white;fill-rule:nonzero;"/>
        </g>
    </g>
</svg>
