<?xml version="1.0" encoding="UTF-8" standalone="no"?>
<!DOCTYPE svg PUBLIC "-//W3C//DTD SVG 1.1//EN" "http://www.w3.org/Graphics/SVG/1.1/DTD/svg11.dtd">
<svg width="100%" height="100%" viewBox="0 0 1200 1080" version="1.1" xmlns="http://www.w3.org/2000/svg" xmlns:xlink="http://www.w3.org/1999/xlink" xml:space="preserve" xmlns:serif="http://www.serif.com/" style="fill-rule:evenodd;clip-rule:evenodd;stroke-linejoin:round;stroke-miterlimit:2;">
    <g transform="matrix(1,0,0,1.09091,-720,207.273)">
        <rect x="720" y="-190" width="1200" height="990" style="fill:rgb(46,46,46);"/>
    </g>
    <g transform="matrix(0.707107,-0.707107,0.707107,0.707107,-575.938,-155.145)">
        <path d="M-466.129,1280.63L207,607.5L207,1953.76L-466.129,1280.63Z" style="fill:rgb(51,51,51);"/>
    </g>
    <g id="Remove-._-Files" serif:id="Remove ._ Files">
        <g id="Cleanup-Tool" serif:id="Cleanup Tool" transform="matrix(0.742188,0,0,0.742188,433.125,280.021)">
            <path d="M135.2,17.7C140.6,6.8 151.7,0 163.8,0L284.2,0C296.3,0 307.4,6.8 312.8,17.7L320,32L416,32C433.7,32 448,46.3 448,64C448,81.7 433.7,96 416,96L32,96C14.3,96 0,81.7 0,64C0,46.3 14.3,32 32,32L128,32L135.2,17.7ZM32,128L416,128L416,448C416,483.3 387.3,512 352,512L96,512C60.7,512 32,483.3 32,448L32,128ZM128,192C119.2,192 112,199.2 112,208L112,432C112,440.8 119.2,448 128,448C136.8,448 144,440.8 144,432L144,208C144,199.2 136.8,192 128,192ZM224,192C215.2,192 208,199.2 208,208L208,432C208,440.8 215.2,448 224,448C232.8,448 240,440.8 240,432L240,208C240,199.2 232.8,192 224,192ZM320,192C311.2,192 304,199.2 304,208L304,432C304,440.8 311.2,448 320,448C328.8,448 336,440.8 336,432L336,208C336,199.2 328.8,192 320,192Z" style="fill:white;fill-rule:nonzero;"/>
        </g>
        <g transform="matrix(1,0,0,1,14.6837,-61.2735)">
            <path d="M274.108,840.419L274.108,779.211L296.733,779.211C299.816,779.211 302.49,779.35 304.754,779.628C307.018,779.905 309.17,780.412 311.212,781.149C313.254,781.885 314.907,782.878 316.17,784.128C317.434,785.378 318.434,787.01 319.17,789.024C319.907,791.037 320.275,793.419 320.275,796.169C320.275,804.28 316.594,809.614 309.233,812.169C310.733,813.864 312.594,817.003 314.816,821.586L323.9,840.419L311.566,840.419L304.441,824.461C301.747,818.739 300.08,815.35 299.441,814.294C298.969,814.267 297.4,814.253 294.733,814.253L285.275,814.169L285.275,840.419L274.108,840.419ZM297.733,806.086C302.066,806.086 305.177,805.315 307.066,803.774C308.955,802.232 309.9,799.753 309.9,796.336C309.9,793.336 308.941,791.128 307.025,789.711C305.108,788.294 302.177,787.586 298.233,787.586L285.275,787.586L285.275,806.044C285.691,806.044 287.761,806.051 291.483,806.065C295.205,806.079 297.289,806.086 297.733,806.086Z" style="fill:white;fill-rule:nonzero;"/>
            <path d="M352.608,841.294C345.247,841.294 339.518,839.176 335.42,834.94C331.323,830.704 329.275,824.85 329.275,817.378C329.275,810.1 331.205,804.308 335.066,800.003C338.927,795.697 344.191,793.53 350.858,793.503C357.164,793.503 362.059,795.475 365.545,799.419C369.032,803.364 370.775,808.6 370.775,815.128C370.775,815.6 370.768,816.364 370.754,817.419C370.74,818.475 370.733,819.253 370.733,819.753L340.275,819.753C340.386,824.03 341.559,827.343 343.795,829.69C346.032,832.037 349.108,833.211 353.025,833.211C358.025,833.211 362.83,831.905 367.441,829.294L368.983,837.044C364.4,839.878 358.941,841.294 352.608,841.294ZM340.483,812.878L360.483,812.878C360.483,809.155 359.636,806.294 357.941,804.294C356.247,802.294 353.9,801.294 350.9,801.294C348.094,801.294 345.726,802.267 343.795,804.211C341.865,806.155 340.761,809.044 340.483,812.878Z" style="fill:white;fill-rule:nonzero;"/>
            <path d="M379.65,840.419L379.65,794.628L388.483,794.628L389.733,800.461C390.289,799.767 390.823,799.149 391.337,798.607C391.851,798.065 392.559,797.454 393.462,796.774C394.365,796.093 395.323,795.53 396.337,795.086C397.351,794.642 398.601,794.267 400.087,793.961C401.573,793.655 403.164,793.503 404.858,793.503C408.497,793.503 411.407,794.239 413.587,795.711C415.768,797.183 417.302,798.905 418.191,800.878C419.83,798.517 421.955,796.697 424.566,795.419C427.177,794.142 430.08,793.503 433.275,793.503C438.525,793.503 442.379,794.989 444.837,797.961C447.295,800.933 448.525,805.336 448.525,811.169L448.525,840.419L437.566,840.419L437.566,814.419C437.566,809.947 437.073,806.718 436.087,804.732C435.101,802.746 433.219,801.753 430.441,801.753C426.191,801.753 423.136,803.669 421.275,807.503C420.497,809.197 419.969,811.239 419.691,813.628L419.691,840.419L408.775,840.419L408.775,813.919C408.775,809.836 408.233,806.794 407.15,804.794C406.066,802.794 404.108,801.794 401.275,801.794C398.969,801.794 396.983,802.378 395.316,803.544C393.65,804.711 392.386,806.239 391.525,808.128C390.886,810.933 390.566,814.294 390.566,818.211L390.566,840.419L379.65,840.419Z" style="fill:white;fill-rule:nonzero;"/>
            <path d="M479.233,833.003C482.927,833.003 485.705,831.655 487.566,828.961C489.427,826.267 490.358,822.405 490.358,817.378C490.358,812.294 489.427,808.419 487.566,805.753C485.705,803.086 482.9,801.753 479.15,801.753C475.455,801.753 472.67,803.093 470.795,805.774C468.92,808.454 467.983,812.336 467.983,817.419C467.983,822.419 468.927,826.267 470.816,828.961C472.705,831.655 475.511,833.003 479.233,833.003ZM478.941,841.294C472.164,841.294 466.83,839.1 462.941,834.711C459.052,830.322 457.108,824.544 457.108,817.378C457.108,809.989 459.052,804.162 462.941,799.899C466.83,795.635 472.316,793.503 479.4,793.503C486.233,793.503 491.587,795.676 495.462,800.024C499.337,804.371 501.275,810.155 501.275,817.378C501.275,824.683 499.316,830.496 495.4,834.815C491.483,839.135 485.997,841.294 478.941,841.294Z" style="fill:white;fill-rule:nonzero;"/>
            <path d="M522.358,840.419L504.108,794.628L515.691,794.628C516.136,795.878 517.545,799.76 519.92,806.274C522.295,812.787 523.872,817.225 524.65,819.586C526.233,824.197 527.372,827.683 528.066,830.044C528.066,830.017 528.302,829.114 528.775,827.336C529.247,825.558 529.698,823.885 530.129,822.315C530.559,820.746 530.83,819.794 530.941,819.461C530.969,819.405 532.24,815.572 534.754,807.961C537.268,800.35 538.761,795.905 539.233,794.628L550.733,794.628L533.4,840.419L522.358,840.419Z" style="fill:white;fill-rule:nonzero;"/>
            <path d="M577.275,841.294C569.914,841.294 564.184,839.176 560.087,834.94C555.99,830.704 553.941,824.85 553.941,817.378C553.941,810.1 555.872,804.308 559.733,800.003C563.594,795.697 568.858,793.53 575.525,793.503C581.83,793.503 586.726,795.475 590.212,799.419C593.698,803.364 595.441,808.6 595.441,815.128C595.441,815.6 595.434,816.364 595.42,817.419C595.407,818.475 595.4,819.253 595.4,819.753L564.941,819.753C565.052,824.03 566.226,827.343 568.462,829.69C570.698,832.037 573.775,833.211 577.691,833.211C582.691,833.211 587.497,831.905 592.108,829.294L593.65,837.044C589.066,839.878 583.608,841.294 577.275,841.294ZM565.15,812.878L585.15,812.878C585.15,809.155 584.302,806.294 582.608,804.294C580.914,802.294 578.566,801.294 575.566,801.294C572.761,801.294 570.393,802.267 568.462,804.211C566.532,806.155 565.427,809.044 565.15,812.878Z" style="fill:white;fill-rule:nonzero;"/>
            <path d="M631.525,841.169C629.719,841.169 628.191,840.544 626.941,839.294C625.691,838.044 625.066,836.558 625.066,834.836C625.066,833.086 625.684,831.572 626.92,830.294C628.157,829.017 629.691,828.378 631.525,828.378C633.302,828.378 634.802,829.017 636.025,830.294C637.247,831.572 637.858,833.086 637.858,834.836C637.858,836.558 637.247,838.044 636.025,839.294C634.802,840.544 633.302,841.169 631.525,841.169Z" style="fill:white;fill-rule:nonzero;"/>
            <rect x="644.025" y="846.419" width="42.25" height="7.25" style="fill:white;fill-rule:nonzero;"/>
            <path d="M718.275,840.419L718.275,779.378L754.4,779.378L753.983,788.336L729.483,788.336L729.483,805.669L752.775,805.669L752.775,814.544L729.483,814.544L729.483,840.419L718.275,840.419Z" style="fill:white;fill-rule:nonzero;"/>
            <path d="M763.441,840.419L763.441,794.628L774.358,794.628L774.358,840.419L763.441,840.419ZM763.441,787.961L763.441,778.628L774.4,778.628L774.4,787.961L763.441,787.961Z" style="fill:white;fill-rule:nonzero;"/>
            <path d="M801.775,841.044C798.636,841.044 796.032,840.676 793.962,839.94C791.893,839.204 790.261,838.03 789.066,836.419C787.872,834.808 787.039,832.892 786.566,830.669C786.094,828.447 785.858,825.683 785.858,822.378L785.858,777.753L796.775,777.044L796.775,822.169C796.775,826.28 797.261,829.065 798.233,830.524C799.205,831.982 801.094,832.711 803.9,832.711C805.289,832.711 807.052,832.558 809.191,832.253L809.483,840.044C809.455,840.044 809.115,840.114 808.462,840.253C807.809,840.392 807.184,840.51 806.587,840.607C805.99,840.704 805.233,840.801 804.316,840.899C803.4,840.996 802.552,841.044 801.775,841.044Z" style="fill:white;fill-rule:nonzero;"/>
            <path d="M835.816,841.294C828.455,841.294 822.726,839.176 818.629,834.94C814.532,830.704 812.483,824.85 812.483,817.378C812.483,810.1 814.414,804.308 818.275,800.003C822.136,795.697 827.4,793.53 834.066,793.503C840.372,793.503 845.268,795.475 848.754,799.419C852.24,803.364 853.983,808.6 853.983,815.128C853.983,815.6 853.976,816.364 853.962,817.419C853.948,818.475 853.941,819.253 853.941,819.753L823.483,819.753C823.594,824.03 824.768,827.343 827.004,829.69C829.24,832.037 832.316,833.211 836.233,833.211C841.233,833.211 846.039,831.905 850.65,829.294L852.191,837.044C847.608,839.878 842.15,841.294 835.816,841.294ZM823.691,812.878L843.691,812.878C843.691,809.155 842.844,806.294 841.15,804.294C839.455,802.294 837.108,801.294 834.108,801.294C831.302,801.294 828.934,802.267 827.004,804.211C825.073,806.155 823.969,809.044 823.691,812.878Z" style="fill:white;fill-rule:nonzero;"/>
            <path d="M877.483,841.253C870.733,841.253 865.33,840.1 861.275,837.794L862.4,829.586C864.233,830.586 866.566,831.482 869.4,832.274C872.233,833.065 874.816,833.461 877.15,833.461C879.566,833.461 881.448,833.01 882.795,832.107C884.143,831.204 884.83,829.878 884.858,828.128C884.858,826.544 884.226,825.294 882.962,824.378C881.698,823.461 879.289,822.322 875.733,820.961C874.511,820.517 873.719,820.225 873.358,820.086C869.136,818.447 866.094,816.621 864.233,814.607C862.372,812.593 861.441,809.864 861.441,806.419C861.441,802.253 862.948,799.058 865.962,796.836C868.976,794.614 873.177,793.503 878.566,793.503C884.4,793.503 889.525,794.6 893.941,796.794L891.233,804.336C886.872,802.308 882.719,801.294 878.775,801.294C876.58,801.294 874.865,801.662 873.629,802.399C872.393,803.135 871.775,804.253 871.775,805.753C871.775,807.169 872.372,808.274 873.566,809.065C874.761,809.857 877.094,810.892 880.566,812.169C880.677,812.197 881.039,812.322 881.65,812.544C882.261,812.767 882.733,812.947 883.066,813.086C887.261,814.614 890.344,816.44 892.316,818.565C894.289,820.69 895.275,823.461 895.275,826.878C895.247,831.461 893.691,835.003 890.608,837.503C887.525,840.003 883.15,841.253 877.483,841.253Z" style="fill:white;fill-rule:nonzero;"/>
        </g>
    </g>
</svg>
