<?xml version="1.0" encoding="UTF-8" standalone="no"?>
<!DOCTYPE svg PUBLIC "-//W3C//DTD SVG 1.1//EN" "http://www.w3.org/Graphics/SVG/1.1/DTD/svg11.dtd">
<svg width="100%" height="100%" viewBox="0 0 1200 1080" version="1.1" xmlns="http://www.w3.org/2000/svg" xmlns:xlink="http://www.w3.org/1999/xlink" xml:space="preserve" xmlns:serif="http://www.serif.com/" style="fill-rule:evenodd;clip-rule:evenodd;stroke-linejoin:round;stroke-miterlimit:2;">
    <g transform="matrix(1,0,0,1.09091,-720,207.273)">
        <rect x="720" y="-190" width="1200" height="990" style="fill:rgb(46,46,46);"/>
    </g>
    <g transform="matrix(0.707107,-0.707107,0.707107,0.707107,-575.938,-155.145)">
        <path d="M-466.129,1280.63L207,607.5L207,1953.76L-466.129,1280.63Z" style="fill:rgb(51,51,51);"/>
    </g>
    <g id="RetroArch-32-Bit" serif:id="RetroArch 32-Bit">
        <g transform="matrix(1,0,0,1,14.6837,-61.2735)">
            <path d="M260.233,840.419L260.233,779.211L282.858,779.211C285.941,779.211 288.615,779.35 290.879,779.628C293.143,779.905 295.295,780.412 297.337,781.149C299.379,781.885 301.032,782.878 302.295,784.128C303.559,785.378 304.559,787.01 305.295,789.024C306.032,791.037 306.4,793.419 306.4,796.169C306.4,804.28 302.719,809.614 295.358,812.169C296.858,813.864 298.719,817.003 300.941,821.586L310.025,840.419L297.691,840.419L290.566,824.461C287.872,818.739 286.205,815.35 285.566,814.294C285.094,814.267 283.525,814.253 280.858,814.253L271.4,814.169L271.4,840.419L260.233,840.419ZM283.858,806.086C288.191,806.086 291.302,805.315 293.191,803.774C295.08,802.232 296.025,799.753 296.025,796.336C296.025,793.336 295.066,791.128 293.15,789.711C291.233,788.294 288.302,787.586 284.358,787.586L271.4,787.586L271.4,806.044C271.816,806.044 273.886,806.051 277.608,806.065C281.33,806.079 283.414,806.086 283.858,806.086Z" style="fill:white;fill-rule:nonzero;"/>
            <path d="M338.733,841.294C331.372,841.294 325.643,839.176 321.545,834.94C317.448,830.704 315.4,824.85 315.4,817.378C315.4,810.1 317.33,804.308 321.191,800.003C325.052,795.697 330.316,793.53 336.983,793.503C343.289,793.503 348.184,795.475 351.67,799.419C355.157,803.364 356.9,808.6 356.9,815.128C356.9,815.6 356.893,816.364 356.879,817.419C356.865,818.475 356.858,819.253 356.858,819.753L326.4,819.753C326.511,824.03 327.684,827.343 329.92,829.69C332.157,832.037 335.233,833.211 339.15,833.211C344.15,833.211 348.955,831.905 353.566,829.294L355.108,837.044C350.525,839.878 345.066,841.294 338.733,841.294ZM326.608,812.878L346.608,812.878C346.608,809.155 345.761,806.294 344.066,804.294C342.372,802.294 340.025,801.294 337.025,801.294C334.219,801.294 331.851,802.267 329.92,804.211C327.99,806.155 326.886,809.044 326.608,812.878Z" style="fill:white;fill-rule:nonzero;"/>
            <path d="M384.066,841.044C380.955,841.044 378.365,840.676 376.295,839.94C374.226,839.204 372.608,838.044 371.441,836.461C370.275,834.878 369.448,833.01 368.962,830.857C368.476,828.704 368.233,826.044 368.233,822.878L368.233,801.253L360.733,801.253L361.15,795.336L368.983,794.628L372.483,782.211L379.15,782.169L379.15,794.628L390.525,794.628L390.525,801.253L379.15,801.253L379.15,823.086C379.15,826.558 379.65,829.03 380.65,830.503C381.65,831.975 383.497,832.711 386.191,832.711C387.775,832.711 389.469,832.572 391.275,832.294L391.566,840.128C391.511,840.128 391.17,840.19 390.545,840.315C389.92,840.44 389.323,840.551 388.754,840.649C388.184,840.746 387.455,840.836 386.566,840.919C385.677,841.003 384.844,841.044 384.066,841.044Z" style="fill:white;fill-rule:nonzero;"/>
            <path d="M399.275,840.419L399.275,794.628L408.441,794.628L409.858,801.628C412.858,796.822 417.205,794.419 422.9,794.419C424.094,794.419 425.066,794.475 425.816,794.586L425.65,803.711C424.539,803.544 423.386,803.461 422.191,803.461C418.164,803.461 415.157,804.53 413.17,806.669C411.184,808.808 410.191,811.78 410.191,815.586L410.191,840.419L399.275,840.419Z" style="fill:white;fill-rule:nonzero;"/>
            <path d="M452.025,833.003C455.719,833.003 458.497,831.655 460.358,828.961C462.219,826.267 463.15,822.405 463.15,817.378C463.15,812.294 462.219,808.419 460.358,805.753C458.497,803.086 455.691,801.753 451.941,801.753C448.247,801.753 445.462,803.093 443.587,805.774C441.712,808.454 440.775,812.336 440.775,817.419C440.775,822.419 441.719,826.267 443.608,828.961C445.497,831.655 448.302,833.003 452.025,833.003ZM451.733,841.294C444.955,841.294 439.622,839.1 435.733,834.711C431.844,830.322 429.9,824.544 429.9,817.378C429.9,809.989 431.844,804.162 435.733,799.899C439.622,795.635 445.108,793.503 452.191,793.503C459.025,793.503 464.379,795.676 468.254,800.024C472.129,804.371 474.066,810.155 474.066,817.378C474.066,824.683 472.108,830.496 468.191,834.815C464.275,839.135 458.789,841.294 451.733,841.294Z" style="fill:white;fill-rule:nonzero;"/>
            <path d="M477.316,840.419L499.775,779.336L512.066,779.336L534.191,840.419L522.608,840.419L516.566,823.169L495.191,823.169L489.108,840.419L477.316,840.419ZM498.025,814.753L513.691,814.753C508.691,798.725 506.122,790.447 505.983,789.919L498.025,814.753Z" style="fill:white;fill-rule:nonzero;"/>
            <path d="M539.65,840.419L539.65,794.628L548.816,794.628L550.233,801.628C553.233,796.822 557.58,794.419 563.275,794.419C564.469,794.419 565.441,794.475 566.191,794.586L566.025,803.711C564.914,803.544 563.761,803.461 562.566,803.461C558.539,803.461 555.532,804.53 553.545,806.669C551.559,808.808 550.566,811.78 550.566,815.586L550.566,840.419L539.65,840.419Z" style="fill:white;fill-rule:nonzero;"/>
            <path d="M592.483,841.294C585.483,841.294 580.032,839.211 576.129,835.044C572.226,830.878 570.275,824.919 570.275,817.169C570.275,809.669 572.323,803.85 576.42,799.711C580.518,795.572 585.914,793.503 592.608,793.503C597.969,793.503 602.497,794.655 606.191,796.961L603.608,804.753C599.83,802.78 596.316,801.794 593.066,801.794C589.372,801.794 586.462,803.114 584.337,805.753C582.212,808.392 581.15,812.239 581.15,817.294C581.15,822.405 582.198,826.294 584.295,828.961C586.393,831.628 589.358,832.961 593.191,832.961C597.191,832.961 601.039,831.78 604.733,829.419L605.775,837.711C603.858,838.989 601.872,839.905 599.816,840.461C597.761,841.017 595.316,841.294 592.483,841.294Z" style="fill:white;fill-rule:nonzero;"/>
            <path d="M614.441,840.419L614.441,777.753L625.358,777.044L625.358,790.253C625.358,790.892 625.316,792.662 625.233,795.565C625.15,798.468 625.108,799.947 625.108,800.003C628.747,795.669 633.636,793.503 639.775,793.503C644.886,793.503 648.851,794.968 651.67,797.899C654.49,800.829 655.9,805.336 655.9,811.419L655.9,840.419L644.983,840.419L644.983,812.628C644.983,808.878 644.386,806.128 643.191,804.378C641.997,802.628 639.969,801.753 637.108,801.753C634.664,801.753 632.497,802.371 630.608,803.607C628.719,804.843 627.302,806.433 626.358,808.378C625.691,810.933 625.358,814.267 625.358,818.378L625.358,840.419L614.441,840.419Z" style="fill:white;fill-rule:nonzero;"/>
            <path d="M703.858,841.294C700.275,841.294 696.907,840.829 693.754,839.899C690.601,838.968 688.108,837.711 686.275,836.128L689.275,828.253C690.802,829.53 692.914,830.579 695.608,831.399C698.302,832.218 701.066,832.628 703.9,832.628C707.094,832.628 709.67,831.767 711.629,830.044C713.587,828.322 714.566,826.072 714.566,823.294C714.566,821.572 714.295,820.086 713.754,818.836C713.212,817.586 712.497,816.586 711.608,815.836C710.719,815.086 709.532,814.482 708.045,814.024C706.559,813.565 705.039,813.253 703.483,813.086C701.927,812.919 700.052,812.822 697.858,812.794C697.775,812.794 697.372,812.787 696.65,812.774C695.927,812.76 695.525,812.753 695.441,812.753L695.441,804.336L697.775,804.336C700.191,804.336 702.268,804.211 704.004,803.961C705.74,803.711 707.351,803.28 708.837,802.669C710.323,802.058 711.448,801.155 712.212,799.961C712.976,798.767 713.358,797.294 713.358,795.544C713.358,793.183 712.469,791.169 710.691,789.503C708.914,787.836 706.414,787.003 703.191,787.003C697.969,787.003 693.316,788.308 689.233,790.919L686.233,783.003C691.289,779.892 697.289,778.336 704.233,778.336C710.039,778.336 714.782,779.864 718.462,782.919C722.143,785.975 723.983,789.892 723.983,794.669C723.983,798.003 723.129,800.843 721.42,803.19C719.712,805.537 717.233,807.253 713.983,808.336C717.705,809.058 720.587,810.85 722.629,813.711C724.67,816.572 725.691,819.947 725.691,823.836C725.691,827.53 724.705,830.718 722.733,833.399C720.761,836.079 718.15,838.065 714.9,839.357C711.65,840.649 707.969,841.294 703.858,841.294Z" style="fill:white;fill-rule:nonzero;"/>
            <path d="M732.108,840.419L731.858,831.419L751.15,809.586C753.539,807.03 755.282,804.676 756.379,802.524C757.476,800.371 758.025,798.1 758.025,795.711C758.025,793.072 757.164,790.968 755.441,789.399C753.719,787.829 751.455,787.044 748.65,787.044C746.066,787.044 743.518,787.524 741.004,788.482C738.49,789.44 736.427,790.642 734.816,792.086L731.691,783.836C735.858,780.169 741.719,778.336 749.275,778.336C755.275,778.336 760.101,779.843 763.754,782.857C767.407,785.871 769.233,790.128 769.233,795.628C769.233,799.517 768.198,803.225 766.129,806.753C764.059,810.28 761.233,813.905 757.65,817.628L743.9,832.211L768.525,832.211L767.775,840.419L732.108,840.419Z" style="fill:white;fill-rule:nonzero;"/>
            <rect x="775.4" y="813.378" width="22.333" height="8.5" style="fill:white;fill-rule:nonzero;"/>
            <path d="M807.275,840.419L807.275,779.378L826.316,779.378C834.4,779.378 840.427,780.558 844.4,782.919C848.372,785.28 850.358,789.211 850.358,794.711C850.358,795.6 850.302,796.475 850.191,797.336C850.08,798.197 849.83,799.176 849.441,800.274C849.052,801.371 848.539,802.364 847.9,803.253C847.261,804.142 846.372,805.01 845.233,805.857C844.094,806.704 842.761,807.364 841.233,807.836C845.011,808.753 847.9,810.51 849.9,813.107C851.9,815.704 852.9,818.905 852.9,822.711C852.9,828.461 850.865,832.85 846.795,835.878C842.726,838.905 837.094,840.419 829.9,840.419L807.275,840.419ZM818.566,832.253L828.358,832.253C837.025,832.253 841.358,828.864 841.358,822.086C841.358,818.669 840.275,816.211 838.108,814.711C835.941,813.211 832.594,812.461 828.066,812.461L818.566,812.461L818.566,832.253ZM818.566,804.586L828.233,804.586C835.705,804.586 839.441,801.739 839.441,796.044C839.441,792.85 838.365,790.655 836.212,789.461C834.059,788.267 830.636,787.669 825.941,787.669L818.566,787.669L818.566,804.586Z" style="fill:white;fill-rule:nonzero;"/>
            <path d="M862.025,840.419L862.025,794.628L872.941,794.628L872.941,840.419L862.025,840.419ZM862.025,787.961L862.025,778.628L872.983,778.628L872.983,787.961L862.025,787.961Z" style="fill:white;fill-rule:nonzero;"/>
            <path d="M902.608,841.044C899.497,841.044 896.907,840.676 894.837,839.94C892.768,839.204 891.15,838.044 889.983,836.461C888.816,834.878 887.99,833.01 887.504,830.857C887.018,828.704 886.775,826.044 886.775,822.878L886.775,801.253L879.275,801.253L879.691,795.336L887.525,794.628L891.025,782.211L897.691,782.169L897.691,794.628L909.066,794.628L909.066,801.253L897.691,801.253L897.691,823.086C897.691,826.558 898.191,829.03 899.191,830.503C900.191,831.975 902.039,832.711 904.733,832.711C906.316,832.711 908.011,832.572 909.816,832.294L910.108,840.128C910.052,840.128 909.712,840.19 909.087,840.315C908.462,840.44 907.865,840.551 907.295,840.649C906.726,840.746 905.997,840.836 905.108,840.919C904.219,841.003 903.386,841.044 902.608,841.044Z" style="fill:white;fill-rule:nonzero;"/>
        </g>
        <g transform="matrix(30.4487,0,0,30.4487,234.615,104.636)">
            <path d="M6.84,5.76L8.4,7.68L5.28,7.68L4.56,10.56L2.64,10.56L3.36,7.68L1.44,7.68L0,13.44L3.84,13.44L3.36,15.36L6.72,15.36L4.2,18.24L7.02,18.24L9.36,15.36L14.64,15.36L16.98,18.24L19.8,18.24L17.28,15.36L20.64,15.36L20.16,13.44L24,13.44L22.56,7.68L20.64,7.68L21.36,10.56L19.44,10.56L18.72,7.68L15.6,7.68L17.16,5.76L15.12,5.76L13.44,7.68L10.56,7.68L8.88,5.76L6.84,5.76ZM7.08,9.6L9,9.6L9,11.52L7.08,11.52L7.08,9.6ZM15.005,9.6L16.925,9.6L16.925,11.52L15.005,11.52L15.005,9.6Z" style="fill:white;fill-rule:nonzero;"/>
        </g>
    </g>
</svg>
