<?xml version="1.0" encoding="UTF-8" standalone="no"?>
<!DOCTYPE svg PUBLIC "-//W3C//DTD SVG 1.1//EN" "http://www.w3.org/Graphics/SVG/1.1/DTD/svg11.dtd">
<svg width="100%" height="100%" viewBox="0 0 1200 1080" version="1.1" xmlns="http://www.w3.org/2000/svg" xmlns:xlink="http://www.w3.org/1999/xlink" xml:space="preserve" xmlns:serif="http://www.serif.com/" style="fill-rule:evenodd;clip-rule:evenodd;stroke-linejoin:round;stroke-miterlimit:2;">
    <g transform="matrix(1,0,0,1.09091,-720,207.273)">
        <rect x="720" y="-190" width="1200" height="990" style="fill:rgb(46,46,46);"/>
    </g>
    <g transform="matrix(0.707107,-0.707107,0.707107,0.707107,-575.938,-155.145)">
        <path d="M-466.129,1280.63L207,607.5L207,1953.76L-466.129,1280.63Z" style="fill:rgb(51,51,51);"/>
    </g>
    <g id="RetroArch-64-Bit" serif:id="RetroArch 64-Bit">
        <g transform="matrix(1,0,0,1,14.6837,-61.2735)">
            <path d="M253.441,840.419L253.441,779.211L276.066,779.211C279.15,779.211 281.823,779.35 284.087,779.628C286.351,779.905 288.504,780.412 290.545,781.149C292.587,781.885 294.24,782.878 295.504,784.128C296.768,785.378 297.768,787.01 298.504,789.024C299.24,791.037 299.608,793.419 299.608,796.169C299.608,804.28 295.927,809.614 288.566,812.169C290.066,813.864 291.927,817.003 294.15,821.586L303.233,840.419L290.9,840.419L283.775,824.461C281.08,818.739 279.414,815.35 278.775,814.294C278.302,814.267 276.733,814.253 274.066,814.253L264.608,814.169L264.608,840.419L253.441,840.419ZM277.066,806.086C281.4,806.086 284.511,805.315 286.4,803.774C288.289,802.232 289.233,799.753 289.233,796.336C289.233,793.336 288.275,791.128 286.358,789.711C284.441,788.294 281.511,787.586 277.566,787.586L264.608,787.586L264.608,806.044C265.025,806.044 267.094,806.051 270.816,806.065C274.539,806.079 276.622,806.086 277.066,806.086Z" style="fill:white;fill-rule:nonzero;"/>
            <path d="M331.941,841.294C324.58,841.294 318.851,839.176 314.754,834.94C310.657,830.704 308.608,824.85 308.608,817.378C308.608,810.1 310.539,804.308 314.4,800.003C318.261,795.697 323.525,793.53 330.191,793.503C336.497,793.503 341.393,795.475 344.879,799.419C348.365,803.364 350.108,808.6 350.108,815.128C350.108,815.6 350.101,816.364 350.087,817.419C350.073,818.475 350.066,819.253 350.066,819.753L319.608,819.753C319.719,824.03 320.893,827.343 323.129,829.69C325.365,832.037 328.441,833.211 332.358,833.211C337.358,833.211 342.164,831.905 346.775,829.294L348.316,837.044C343.733,839.878 338.275,841.294 331.941,841.294ZM319.816,812.878L339.816,812.878C339.816,809.155 338.969,806.294 337.275,804.294C335.58,802.294 333.233,801.294 330.233,801.294C327.427,801.294 325.059,802.267 323.129,804.211C321.198,806.155 320.094,809.044 319.816,812.878Z" style="fill:white;fill-rule:nonzero;"/>
            <path d="M377.275,841.044C374.164,841.044 371.573,840.676 369.504,839.94C367.434,839.204 365.816,838.044 364.65,836.461C363.483,834.878 362.657,833.01 362.17,830.857C361.684,828.704 361.441,826.044 361.441,822.878L361.441,801.253L353.941,801.253L354.358,795.336L362.191,794.628L365.691,782.211L372.358,782.169L372.358,794.628L383.733,794.628L383.733,801.253L372.358,801.253L372.358,823.086C372.358,826.558 372.858,829.03 373.858,830.503C374.858,831.975 376.705,832.711 379.4,832.711C380.983,832.711 382.677,832.572 384.483,832.294L384.775,840.128C384.719,840.128 384.379,840.19 383.754,840.315C383.129,840.44 382.532,840.551 381.962,840.649C381.393,840.746 380.664,840.836 379.775,840.919C378.886,841.003 378.052,841.044 377.275,841.044Z" style="fill:white;fill-rule:nonzero;"/>
            <path d="M392.483,840.419L392.483,794.628L401.65,794.628L403.066,801.628C406.066,796.822 410.414,794.419 416.108,794.419C417.302,794.419 418.275,794.475 419.025,794.586L418.858,803.711C417.747,803.544 416.594,803.461 415.4,803.461C411.372,803.461 408.365,804.53 406.379,806.669C404.393,808.808 403.4,811.78 403.4,815.586L403.4,840.419L392.483,840.419Z" style="fill:white;fill-rule:nonzero;"/>
            <path d="M445.233,833.003C448.927,833.003 451.705,831.655 453.566,828.961C455.427,826.267 456.358,822.405 456.358,817.378C456.358,812.294 455.427,808.419 453.566,805.753C451.705,803.086 448.9,801.753 445.15,801.753C441.455,801.753 438.67,803.093 436.795,805.774C434.92,808.454 433.983,812.336 433.983,817.419C433.983,822.419 434.927,826.267 436.816,828.961C438.705,831.655 441.511,833.003 445.233,833.003ZM444.941,841.294C438.164,841.294 432.83,839.1 428.941,834.711C425.052,830.322 423.108,824.544 423.108,817.378C423.108,809.989 425.052,804.162 428.941,799.899C432.83,795.635 438.316,793.503 445.4,793.503C452.233,793.503 457.587,795.676 461.462,800.024C465.337,804.371 467.275,810.155 467.275,817.378C467.275,824.683 465.316,830.496 461.4,834.815C457.483,839.135 451.997,841.294 444.941,841.294Z" style="fill:white;fill-rule:nonzero;"/>
            <path d="M470.525,840.419L492.983,779.336L505.275,779.336L527.4,840.419L515.816,840.419L509.775,823.169L488.4,823.169L482.316,840.419L470.525,840.419ZM491.233,814.753L506.9,814.753C501.9,798.725 499.33,790.447 499.191,789.919L491.233,814.753Z" style="fill:white;fill-rule:nonzero;"/>
            <path d="M532.858,840.419L532.858,794.628L542.025,794.628L543.441,801.628C546.441,796.822 550.789,794.419 556.483,794.419C557.677,794.419 558.65,794.475 559.4,794.586L559.233,803.711C558.122,803.544 556.969,803.461 555.775,803.461C551.747,803.461 548.74,804.53 546.754,806.669C544.768,808.808 543.775,811.78 543.775,815.586L543.775,840.419L532.858,840.419Z" style="fill:white;fill-rule:nonzero;"/>
            <path d="M585.691,841.294C578.691,841.294 573.24,839.211 569.337,835.044C565.434,830.878 563.483,824.919 563.483,817.169C563.483,809.669 565.532,803.85 569.629,799.711C573.726,795.572 579.122,793.503 585.816,793.503C591.177,793.503 595.705,794.655 599.4,796.961L596.816,804.753C593.039,802.78 589.525,801.794 586.275,801.794C582.58,801.794 579.67,803.114 577.545,805.753C575.42,808.392 574.358,812.239 574.358,817.294C574.358,822.405 575.407,826.294 577.504,828.961C579.601,831.628 582.566,832.961 586.4,832.961C590.4,832.961 594.247,831.78 597.941,829.419L598.983,837.711C597.066,838.989 595.08,839.905 593.025,840.461C590.969,841.017 588.525,841.294 585.691,841.294Z" style="fill:white;fill-rule:nonzero;"/>
            <path d="M607.65,840.419L607.65,777.753L618.566,777.044L618.566,790.253C618.566,790.892 618.525,792.662 618.441,795.565C618.358,798.468 618.316,799.947 618.316,800.003C621.955,795.669 626.844,793.503 632.983,793.503C638.094,793.503 642.059,794.968 644.879,797.899C647.698,800.829 649.108,805.336 649.108,811.419L649.108,840.419L638.191,840.419L638.191,812.628C638.191,808.878 637.594,806.128 636.4,804.378C635.205,802.628 633.177,801.753 630.316,801.753C627.872,801.753 625.705,802.371 623.816,803.607C621.927,804.843 620.511,806.433 619.566,808.378C618.9,810.933 618.566,814.267 618.566,818.378L618.566,840.419L607.65,840.419Z" style="fill:white;fill-rule:nonzero;"/>
            <path d="M702.483,841.294C695.705,841.294 690.191,839.447 685.941,835.753C681.691,832.058 679.566,827.183 679.566,821.128C679.566,819.183 679.775,817.322 680.191,815.544C680.608,813.767 681.247,812.03 682.108,810.336C682.969,808.642 683.83,807.142 684.691,805.836C685.552,804.53 686.664,802.975 688.025,801.169L705.358,779.294L718.275,779.294L699.358,803.169C701.386,802.475 703.08,802.128 704.441,802.128C710.414,802.128 715.302,803.912 719.108,807.482C722.914,811.051 724.816,815.697 724.816,821.419C724.816,827.364 722.733,832.162 718.566,835.815C714.4,839.468 709.039,841.294 702.483,841.294ZM701.983,832.961C705.65,832.961 708.518,831.912 710.587,829.815C712.657,827.718 713.691,824.961 713.691,821.544C713.691,817.961 712.719,815.135 710.775,813.065C708.83,810.996 705.941,809.961 702.108,809.961C698.219,809.961 695.358,811.003 693.525,813.086C691.691,815.169 690.775,818.017 690.775,821.628C690.775,825.044 691.747,827.787 693.691,829.857C695.636,831.926 698.4,832.961 701.983,832.961Z" style="fill:white;fill-rule:nonzero;"/>
            <path d="M758.441,840.419L758.441,826.878L730.9,826.878L730.9,819.461L755.608,779.669L769.483,779.669L769.483,818.628L776.983,818.628L776.441,826.878L769.483,826.878L769.483,840.419L758.441,840.419ZM741.733,818.669L758.441,818.669L758.441,790.336L741.733,818.669Z" style="fill:white;fill-rule:nonzero;"/>
            <rect x="782.191" y="813.378" width="22.333" height="8.5" style="fill:white;fill-rule:nonzero;"/>
            <path d="M814.066,840.419L814.066,779.378L833.108,779.378C841.191,779.378 847.219,780.558 851.191,782.919C855.164,785.28 857.15,789.211 857.15,794.711C857.15,795.6 857.094,796.475 856.983,797.336C856.872,798.197 856.622,799.176 856.233,800.274C855.844,801.371 855.33,802.364 854.691,803.253C854.052,804.142 853.164,805.01 852.025,805.857C850.886,806.704 849.552,807.364 848.025,807.836C851.802,808.753 854.691,810.51 856.691,813.107C858.691,815.704 859.691,818.905 859.691,822.711C859.691,828.461 857.657,832.85 853.587,835.878C849.518,838.905 843.886,840.419 836.691,840.419L814.066,840.419ZM825.358,832.253L835.15,832.253C843.816,832.253 848.15,828.864 848.15,822.086C848.15,818.669 847.066,816.211 844.9,814.711C842.733,813.211 839.386,812.461 834.858,812.461L825.358,812.461L825.358,832.253ZM825.358,804.586L835.025,804.586C842.497,804.586 846.233,801.739 846.233,796.044C846.233,792.85 845.157,790.655 843.004,789.461C840.851,788.267 837.427,787.669 832.733,787.669L825.358,787.669L825.358,804.586Z" style="fill:white;fill-rule:nonzero;"/>
            <path d="M868.816,840.419L868.816,794.628L879.733,794.628L879.733,840.419L868.816,840.419ZM868.816,787.961L868.816,778.628L879.775,778.628L879.775,787.961L868.816,787.961Z" style="fill:white;fill-rule:nonzero;"/>
            <path d="M909.4,841.044C906.289,841.044 903.698,840.676 901.629,839.94C899.559,839.204 897.941,838.044 896.775,836.461C895.608,834.878 894.782,833.01 894.295,830.857C893.809,828.704 893.566,826.044 893.566,822.878L893.566,801.253L886.066,801.253L886.483,795.336L894.316,794.628L897.816,782.211L904.483,782.169L904.483,794.628L915.858,794.628L915.858,801.253L904.483,801.253L904.483,823.086C904.483,826.558 904.983,829.03 905.983,830.503C906.983,831.975 908.83,832.711 911.525,832.711C913.108,832.711 914.802,832.572 916.608,832.294L916.9,840.128C916.844,840.128 916.504,840.19 915.879,840.315C915.254,840.44 914.657,840.551 914.087,840.649C913.518,840.746 912.789,840.836 911.9,840.919C911.011,841.003 910.177,841.044 909.4,841.044Z" style="fill:white;fill-rule:nonzero;"/>
        </g>
        <g transform="matrix(30.4487,0,0,30.4487,234.615,104.636)">
            <path d="M6.84,5.76L8.4,7.68L5.28,7.68L4.56,10.56L2.64,10.56L3.36,7.68L1.44,7.68L0,13.44L3.84,13.44L3.36,15.36L6.72,15.36L4.2,18.24L7.02,18.24L9.36,15.36L14.64,15.36L16.98,18.24L19.8,18.24L17.28,15.36L20.64,15.36L20.16,13.44L24,13.44L22.56,7.68L20.64,7.68L21.36,10.56L19.44,10.56L18.72,7.68L15.6,7.68L17.16,5.76L15.12,5.76L13.44,7.68L10.56,7.68L8.88,5.76L6.84,5.76ZM7.08,9.6L9,9.6L9,11.52L7.08,11.52L7.08,9.6ZM15.005,9.6L16.925,9.6L16.925,11.52L15.005,11.52L15.005,9.6Z" style="fill:white;fill-rule:nonzero;"/>
        </g>
    </g>
</svg>
