<?xml version="1.0" encoding="UTF-8" standalone="no"?>
<!DOCTYPE svg PUBLIC "-//W3C//DTD SVG 1.1//EN" "http://www.w3.org/Graphics/SVG/1.1/DTD/svg11.dtd">
<svg width="100%" height="100%" viewBox="0 0 1200 1080" version="1.1" xmlns="http://www.w3.org/2000/svg" xmlns:xlink="http://www.w3.org/1999/xlink" xml:space="preserve" xmlns:serif="http://www.serif.com/" style="fill-rule:evenodd;clip-rule:evenodd;stroke-linejoin:round;stroke-miterlimit:2;">
    <g transform="matrix(1,0,0,1.09091,-720,207.273)">
        <rect x="720" y="-190" width="1200" height="990" style="fill:rgb(46,46,46);"/>
    </g>
    <g transform="matrix(0.707107,-0.707107,0.707107,0.707107,-575.938,-155.145)">
        <path d="M-466.129,1280.63L207,607.5L207,1953.76L-466.129,1280.63Z" style="fill:rgb(51,51,51);"/>
    </g>
    <g id="RPCS3">
        <g transform="matrix(1,0,0,1,14.6837,-61.2735)">
            <path d="M460.295,840.419L460.295,779.211L482.92,779.211C486.004,779.211 488.677,779.35 490.941,779.628C493.205,779.905 495.358,780.412 497.4,781.149C499.441,781.885 501.094,782.878 502.358,784.128C503.622,785.378 504.622,787.01 505.358,789.024C506.094,791.037 506.462,793.419 506.462,796.169C506.462,804.28 502.782,809.614 495.42,812.169C496.92,813.864 498.782,817.003 501.004,821.586L510.087,840.419L497.754,840.419L490.629,824.461C487.934,818.739 486.268,815.35 485.629,814.294C485.157,814.267 483.587,814.253 480.92,814.253L471.462,814.169L471.462,840.419L460.295,840.419ZM483.92,806.086C488.254,806.086 491.365,805.315 493.254,803.774C495.143,802.232 496.087,799.753 496.087,796.336C496.087,793.336 495.129,791.128 493.212,789.711C491.295,788.294 488.365,787.586 484.42,787.586L471.462,787.586L471.462,806.044C471.879,806.044 473.948,806.051 477.67,806.065C481.393,806.079 483.476,806.086 483.92,806.086Z" style="fill:white;fill-rule:nonzero;"/>
            <path d="M517.92,840.419L517.92,779.211L538.254,779.211C543.059,779.211 547.17,779.829 550.587,781.065C554.004,782.301 556.705,784.308 558.691,787.086C560.677,789.864 561.67,793.35 561.67,797.544C561.67,800.461 561.295,803.051 560.545,805.315C559.795,807.579 558.559,809.635 556.837,811.482C555.115,813.329 552.691,814.753 549.566,815.753C546.441,816.753 542.67,817.253 538.254,817.253C534.476,817.253 531.407,817.142 529.045,816.919L529.045,840.419L517.92,840.419ZM537.045,809.086C539.351,809.086 541.358,808.864 543.066,808.419C544.775,807.975 546.108,807.405 547.066,806.711C548.025,806.017 548.789,805.155 549.358,804.128C549.927,803.1 550.302,802.107 550.483,801.149C550.664,800.19 550.754,799.114 550.754,797.919C550.754,794.558 549.67,792.003 547.504,790.253C545.337,788.503 542.282,787.628 538.337,787.628L529.045,787.628L529.045,809.003C529.379,809.058 532.045,809.086 537.045,809.086Z" style="fill:white;fill-rule:nonzero;"/>
            <path d="M596.712,841.294C587.795,841.294 580.726,838.489 575.504,832.878C570.282,827.267 567.67,819.517 567.67,809.628C567.67,800.239 570.4,792.704 575.858,787.024C581.316,781.343 588.462,778.503 597.295,778.503C604.434,778.503 610.476,780.155 615.42,783.461L611.879,792.003C607.129,789.086 602.351,787.628 597.545,787.628C591.934,787.628 587.497,789.649 584.233,793.69C580.969,797.732 579.337,803.155 579.337,809.961C579.337,817.017 580.914,822.475 584.066,826.336C587.219,830.197 591.712,832.128 597.545,832.128C602.657,832.128 607.726,830.85 612.754,828.294L614.254,837.128C609.587,839.905 603.74,841.294 596.712,841.294Z" style="fill:white;fill-rule:nonzero;"/>
            <path d="M641.42,841.253C634.059,841.253 627.462,839.558 621.629,836.169L624.379,827.211C626.99,828.655 629.83,829.822 632.9,830.711C635.969,831.6 638.962,832.044 641.879,832.044C645.462,832.044 648.17,831.274 650.004,829.732C651.837,828.19 652.754,825.975 652.754,823.086C652.754,819.253 650.198,816.6 645.087,815.128C644.726,815.017 643.712,814.718 642.045,814.232C640.379,813.746 638.816,813.274 637.358,812.815C635.9,812.357 634.851,812.003 634.212,811.753C626.018,808.864 621.92,803.475 621.92,795.586C621.92,790.058 623.886,785.794 627.816,782.794C631.747,779.794 636.962,778.294 643.462,778.294C650.823,778.294 657.17,779.808 662.504,782.836L659.087,791.086C653.643,788.642 648.587,787.419 643.92,787.419C640.559,787.419 638.025,788.01 636.316,789.19C634.608,790.371 633.698,792.336 633.587,795.086C633.587,798.475 635.268,800.683 638.629,801.711C639.295,801.961 640.934,802.503 643.545,803.336C646.157,804.169 647.851,804.711 648.629,804.961C654.212,806.794 658.205,809.072 660.608,811.794C663.011,814.517 664.212,818.308 664.212,823.169C664.212,828.975 662.157,833.44 658.045,836.565C653.934,839.69 648.393,841.253 641.42,841.253Z" style="fill:white;fill-rule:nonzero;"/>
            <path d="M687.462,841.294C683.879,841.294 680.511,840.829 677.358,839.899C674.205,838.968 671.712,837.711 669.879,836.128L672.879,828.253C674.407,829.53 676.518,830.579 679.212,831.399C681.907,832.218 684.67,832.628 687.504,832.628C690.698,832.628 693.275,831.767 695.233,830.044C697.191,828.322 698.17,826.072 698.17,823.294C698.17,821.572 697.9,820.086 697.358,818.836C696.816,817.586 696.101,816.586 695.212,815.836C694.323,815.086 693.136,814.482 691.65,814.024C690.164,813.565 688.643,813.253 687.087,813.086C685.532,812.919 683.657,812.822 681.462,812.794C681.379,812.794 680.976,812.787 680.254,812.774C679.532,812.76 679.129,812.753 679.045,812.753L679.045,804.336L681.379,804.336C683.795,804.336 685.872,804.211 687.608,803.961C689.344,803.711 690.955,803.28 692.441,802.669C693.927,802.058 695.052,801.155 695.816,799.961C696.58,798.767 696.962,797.294 696.962,795.544C696.962,793.183 696.073,791.169 694.295,789.503C692.518,787.836 690.018,787.003 686.795,787.003C681.573,787.003 676.92,788.308 672.837,790.919L669.837,783.003C674.893,779.892 680.893,778.336 687.837,778.336C693.643,778.336 698.386,779.864 702.066,782.919C705.747,785.975 707.587,789.892 707.587,794.669C707.587,798.003 706.733,800.843 705.025,803.19C703.316,805.537 700.837,807.253 697.587,808.336C701.309,809.058 704.191,810.85 706.233,813.711C708.275,816.572 709.295,819.947 709.295,823.836C709.295,827.53 708.309,830.718 706.337,833.399C704.365,836.079 701.754,838.065 698.504,839.357C695.254,840.649 691.573,841.294 687.462,841.294Z" style="fill:white;fill-rule:nonzero;"/>
        </g>
        <g id="RPCS31" serif:id="RPCS3" transform="matrix(0.0101559,-2.63538e-34,2.63538e-34,-0.0101559,391.444,677.709)">
            <path d="M6855,39149C6572,39129 6418,39108 6140,39049C5927,39004 5839,38982 5705,38940C5639,38919 5558,38894 5525,38885C5492,38876 5411,38846 5344,38819C5277,38792 5217,38770 5210,38770C5203,38770 5141,38743 5073,38710C5004,38677 4943,38650 4938,38650C4923,38650 4560,38461 4513,38429C4490,38413 4467,38400 4462,38400C4457,38400 4430,38385 4404,38367C4377,38348 4317,38310 4270,38282C4223,38254 4175,38222 4162,38210C4149,38198 4122,38179 4102,38167C3994,38104 3672,37847 3530,37710C3504,37685 3448,37631 3404,37590C3322,37513 3205,37390 3110,37281C3080,37246 3037,37197 3014,37171C2963,37113 2806,36910 2792,36884C2786,36873 2763,36842 2741,36815C2718,36788 2693,36751 2685,36733C2676,36716 2659,36688 2646,36673C2634,36658 2599,36605 2570,36555C2541,36506 2511,36458 2504,36450C2489,36431 2368,36213 2333,36140C2318,36110 2285,36042 2259,35990C2233,35938 2201,35866 2187,35830C2173,35794 2150,35738 2135,35705C2103,35635 2010,35375 1969,35240C1927,35099 1842,34765 1830,34690C1772,34325 1756,34199 1740,34006C1733,33919 1730,29515 1730,20446C1730,5961 1727,6907 1779,6550C1815,6301 1821,6265 1840,6166C1888,5917 2044,5407 2136,5198C2161,5141 2186,5080 2191,5062C2197,5045 2225,4982 2255,4924C2285,4865 2310,4813 2310,4809C2310,4804 2331,4763 2357,4718C2382,4672 2416,4610 2431,4580C2447,4550 2480,4494 2505,4455C2529,4417 2554,4374 2560,4361C2566,4348 2594,4303 2623,4261C2651,4219 2680,4178 2685,4169C2691,4160 2715,4124 2740,4090C2765,4055 2799,4007 2816,3982C2834,3957 2859,3925 2873,3911C2887,3896 2909,3868 2922,3849C2971,3777 3276,3436 3391,3324C3531,3189 3819,2937 3855,2918C3866,2912 3889,2895 3905,2880C3938,2850 4188,2670 4197,2670C4200,2670 4230,2650 4264,2627C4297,2603 4345,2572 4370,2558C4395,2544 4456,2508 4506,2477C4556,2445 4603,2420 4610,2420C4617,2420 4631,2414 4639,2407C4667,2382 5077,2180 5097,2180C5103,2180 5158,2158 5221,2131C5284,2104 5360,2074 5390,2065C5420,2055 5518,2023 5607,1993C5696,1963 5790,1935 5817,1930C5843,1925 5935,1903 6020,1882C6226,1830 6291,1819 6730,1762C6844,1747 8028,1746 20375,1743C29913,1740 33938,1742 34040,1750C34347,1772 34696,1826 34935,1886C35012,1906 35102,1928 35135,1935C35168,1942 35256,1969 35330,1995C35404,2020 35489,2048 35518,2056C35548,2064 35619,2091 35677,2116C35735,2141 35810,2171 35843,2184C35964,2231 36340,2420 36455,2493C36488,2514 36547,2549 36585,2572C36624,2594 36664,2621 36675,2630C36686,2640 36713,2658 36735,2670C36757,2682 36798,2709 36825,2729C37058,2901 37190,3003 37190,3011C37190,3015 37202,3025 37216,3033C37294,3074 37656,3429 37853,3658C37887,3697 37934,3751 37956,3778C38007,3836 38145,4019 38184,4080C38200,4105 38226,4140 38242,4159C38258,4177 38277,4204 38283,4219C38290,4233 38321,4283 38353,4329C38384,4376 38410,4418 38410,4422C38410,4427 38430,4461 38453,4498C38535,4623 38750,5059 38790,5180C38802,5216 38815,5250 38819,5255C38846,5291 38999,5754 39029,5890C39039,5937 39063,6045 39083,6130C39135,6358 39160,6540 39190,6900C39196,6973 39200,11920 39200,20455C39200,32260 39198,33916 39185,34065C39177,34159 39168,34246 39165,34260C39162,34274 39156,34333 39150,34392C39140,34506 39109,34672 39060,34880C39043,34949 39025,35028 39019,35055C39013,35083 38983,35179 38954,35269C38924,35358 38900,35436 38900,35441C38900,35452 38832,35624 38801,35692C38790,35718 38780,35745 38780,35752C38780,35764 38688,35967 38635,36070C38543,36250 38498,36333 38464,36389C38443,36424 38412,36476 38395,36505C38349,36584 38290,36675 38235,36752C38208,36791 38177,36837 38167,36854C38156,36871 38136,36899 38121,36915C38105,36932 38074,36971 38051,37003C37868,37255 37518,37623 37245,37849C37195,37890 37130,37945 37100,37970C37070,37995 37029,38026 37010,38037C36991,38049 36965,38068 36952,38080C36940,38092 36902,38120 36867,38144C36833,38168 36775,38208 36739,38233C36702,38259 36669,38280 36665,38280C36661,38280 36629,38300 36594,38325C36559,38350 36513,38379 36493,38388C36472,38398 36435,38419 36410,38434C36385,38450 36313,38490 36250,38523C36187,38556 36110,38595 36080,38611C36002,38652 35768,38754 35685,38784C35647,38797 35568,38827 35510,38848C35396,38891 35104,38980 35000,39004C34572,39101 34396,39128 34060,39150C33870,39162 7037,39161 6855,39149ZM27590,28952C27984,28942 28036,28938 28445,28884C28926,28821 29142,28782 29495,28694C30161,28527 30748,28278 31258,27944C32193,27331 32813,26424 33074,25283C33110,25127 33164,24817 33192,24610C33214,24443 33215,24407 33215,23830C33215,23306 33213,23207 33197,23090C33098,22346 32963,21856 32716,21355C32547,21013 32330,20692 32097,20436L32018,20351L32120,20238C32661,19638 33009,18846 33159,17875C33215,17512 33215,17515 33215,16870C33215,16225 33215,16227 33159,15865C33064,15252 32900,14737 32649,14271C32441,13882 32222,13591 31904,13280C31610,12992 31346,12796 30970,12583C30395,12259 29686,12019 28910,11886C28659,11843 28348,11802 28020,11768C27817,11748 27781,11747 23340,11740C20879,11736 16495,11732 13599,11731C8363,11730 8333,11730 8255,11750C8165,11773 8114,11801 8044,11863C7979,11922 7926,12001 7898,12080L7875,12145L7872,13360C7869,14701 7867,14655 7931,14778C7998,14906 8144,15015 8289,15046C8345,15058 9625,15060 17000,15061C21755,15061 26025,15065 26490,15070L27335,15078L27480,15108C28156,15252 28466,15517 28641,16100C28713,16341 28735,16529 28734,16885C28733,17125 28729,17199 28712,17312C28637,17804 28461,18150 28179,18360C28011,18485 27798,18570 27488,18636L27315,18673L17850,18681C11674,18687 8358,18693 8307,18699C8198,18713 8115,18755 8030,18839C7947,18921 7915,18975 7890,19077C7870,19154 7870,19183 7872,20375L7875,21595L7898,21660C7957,21830 8115,21968 8285,21999C8328,22007 10849,22012 17160,22016C22008,22019 26286,22025 26665,22030L27355,22038L27503,22069C28268,22230 28608,22616 28721,23455C28730,23521 28734,23653 28734,23840C28733,24080 28730,24148 28712,24272C28664,24592 28573,24851 28439,25047C28226,25357 27853,25549 27320,25621C27270,25627 24065,25634 17805,25640C11246,25647 8344,25653 8296,25660C8121,25687 7960,25825 7898,26000L7875,26065L7872,27285C7870,28477 7870,28506 7890,28583C7915,28685 7947,28739 8030,28821C8103,28893 8178,28935 8268,28956C8315,28967 10060,28968 17760,28965C23331,28963 27357,28957 27590,28952Z" style="fill:white;fill-rule:nonzero;"/>
        </g>
    </g>
</svg>
