<?xml version="1.0" encoding="UTF-8" standalone="no"?>
<!DOCTYPE svg PUBLIC "-//W3C//DTD SVG 1.1//EN" "http://www.w3.org/Graphics/SVG/1.1/DTD/svg11.dtd">
<svg width="100%" height="100%" viewBox="0 0 1200 1080" version="1.1" xmlns="http://www.w3.org/2000/svg" xmlns:xlink="http://www.w3.org/1999/xlink" xml:space="preserve" xmlns:serif="http://www.serif.com/" style="fill-rule:evenodd;clip-rule:evenodd;stroke-linejoin:round;stroke-miterlimit:2;">
    <g transform="matrix(1,0,0,1.09091,-720,207.273)">
        <rect x="720" y="-190" width="1200" height="990" style="fill:rgb(46,46,46);"/>
    </g>
    <g transform="matrix(0.707107,-0.707107,0.707107,0.707107,-575.938,-155.145)">
        <path d="M-466.129,1280.63L207,607.5L207,1953.76L-466.129,1280.63Z" style="fill:rgb(51,51,51);"/>
    </g>
    <g id="Ryujinx">
        <g id="Text-Template" serif:id="Text Template" transform="matrix(1,0,0,1,14.6837,-61.2735)">
            <path d="M440.358,840.419L440.358,779.211L462.983,779.211C466.066,779.211 468.74,779.35 471.004,779.628C473.268,779.905 475.42,780.412 477.462,781.149C479.504,781.885 481.157,782.878 482.42,784.128C483.684,785.378 484.684,787.01 485.42,789.024C486.157,791.037 486.525,793.419 486.525,796.169C486.525,804.28 482.844,809.614 475.483,812.169C476.983,813.864 478.844,817.003 481.066,821.586L490.15,840.419L477.816,840.419L470.691,824.461C467.997,818.739 466.33,815.35 465.691,814.294C465.219,814.267 463.65,814.253 460.983,814.253L451.525,814.169L451.525,840.419L440.358,840.419ZM463.983,806.086C468.316,806.086 471.427,805.315 473.316,803.774C475.205,802.232 476.15,799.753 476.15,796.336C476.15,793.336 475.191,791.128 473.275,789.711C471.358,788.294 468.427,787.586 464.483,787.586L451.525,787.586L451.525,806.044C451.941,806.044 454.011,806.051 457.733,806.065C461.455,806.079 463.539,806.086 463.983,806.086Z" style="fill:white;fill-rule:nonzero;"/>
            <path d="M500.108,859.711C498.33,859.711 496.441,859.6 494.441,859.378L493.9,850.919C495.177,851.058 496.802,851.128 498.775,851.128C501.302,851.128 503.33,850.628 504.858,849.628C506.386,848.628 507.65,846.85 508.65,844.294C508.761,844.017 509.316,842.447 510.316,839.586L491.9,794.628L503.566,794.628L515.608,827.836C516.497,824.53 518.49,818.392 521.587,809.419C524.684,800.447 526.386,795.517 526.691,794.628L538.358,794.628C525.664,828.183 519.261,845.1 519.15,845.378C517.177,850.517 514.691,854.19 511.691,856.399C508.691,858.607 504.83,859.711 500.108,859.711Z" style="fill:white;fill-rule:nonzero;"/>
            <path d="M577.233,836.836C573.594,839.808 568.802,841.294 562.858,841.294C556.914,841.294 552.129,839.808 548.504,836.836C544.879,833.864 543.066,829.503 543.066,823.753L543.066,794.628L554.025,794.628L554.025,823.336C554.025,826.753 554.74,829.225 556.17,830.753C557.601,832.28 559.872,833.044 562.983,833.044C566.039,833.044 568.268,832.287 569.67,830.774C571.073,829.26 571.775,826.78 571.775,823.336L571.775,794.628L582.691,794.628L582.691,823.753C582.691,829.475 580.872,833.836 577.233,836.836Z" style="fill:white;fill-rule:nonzero;"/>
            <path d="M585.108,858.211L583.9,850.128L586.316,850.128C587.705,850.128 588.844,850.024 589.733,849.815C590.622,849.607 591.358,849.315 591.941,848.94C592.525,848.565 592.955,847.989 593.233,847.211C593.511,846.433 593.698,845.593 593.795,844.69C593.893,843.787 593.941,842.586 593.941,841.086L593.941,794.628L604.858,794.628L604.858,839.336C604.858,841.614 604.768,843.572 604.587,845.211C604.407,846.85 604.08,848.412 603.608,849.899C603.136,851.385 602.49,852.614 601.67,853.586C600.851,854.558 599.802,855.412 598.525,856.149C597.247,856.885 595.705,857.412 593.9,857.732C592.094,858.051 589.983,858.211 587.566,858.211L585.108,858.211ZM593.941,787.961L593.941,778.628L604.858,778.628L604.858,787.961L593.941,787.961Z" style="fill:white;fill-rule:nonzero;"/>
            <path d="M614.858,840.419L614.858,794.628L625.775,794.628L625.775,840.419L614.858,840.419ZM614.858,787.961L614.858,778.628L625.816,778.628L625.816,787.961L614.858,787.961Z" style="fill:white;fill-rule:nonzero;"/>
            <path d="M637.15,840.419L637.15,794.628L645.941,794.628L647.15,800.419C651.816,795.808 656.997,793.503 662.691,793.503C668.025,793.503 672.018,795.037 674.67,798.107C677.323,801.176 678.65,805.628 678.65,811.461L678.65,840.419L667.691,840.419L667.691,812.794C667.664,809.1 667.066,806.336 665.9,804.503C664.733,802.669 662.636,801.753 659.608,801.753C657.247,801.753 655.087,802.357 653.129,803.565C651.17,804.774 649.747,806.294 648.858,808.128C648.33,810.294 648.066,813.628 648.066,818.128L648.066,840.419L637.15,840.419Z" style="fill:white;fill-rule:nonzero;"/>
            <path d="M684.733,840.419L701.025,816.961L685.525,794.628L697.9,794.628L708.066,810.211L718.525,794.628L730.691,794.628L715.066,816.919L731.233,840.419L718.733,840.419L708.066,823.794L697.066,840.419L684.733,840.419Z" style="fill:white;fill-rule:nonzero;"/>
        </g>
        <g transform="matrix(0.584615,0,0,0.584615,418.664,280.021)">
            <path d="M106.06,0L191.91,0L192,592.51C192,592.779 191.779,593 191.51,593L116.56,593C107.893,592.993 101.24,592.697 96.6,592.11C42.6,585.24 2.79,541.48 0,486.94L0,106.19C3.41,47.69 47.34,2.88 106.06,0Z" style="fill:white;fill-rule:nonzero;"/>
        </g>
        <g transform="matrix(0.584615,0,0,0.584615,418.664,280.021)">
            <path d="M622,163.56L622,543.31C619.48,602.29 574.64,646.44 515.94,650L430.09,650L430,57.49C430,57.489 430,57.488 430,57.487C430.001,57.225 430.218,57.01 430.48,57.01C457.767,56.997 485.107,56.997 512.5,57.01C536.08,57.02 559.92,65.17 578.72,79.72C605.42,100.387 619.847,128.333 622,163.56Z" style="fill:white;fill-rule:nonzero;"/>
        </g>
        <g transform="matrix(0.584615,0,0,0.584615,418.664,280.021)">
            <path d="M299.75,369.71L283.88,369.88C283.589,369.888 283.33,370.147 283.26,370.5L272.03,426.01C271.943,426.436 271.717,426.751 271.5,426.75L238.75,426.75C238.738,426.75 238.726,426.749 238.714,426.748C238.507,426.72 238.371,426.447 238.411,426.142C238.414,426.125 238.417,426.107 238.42,426.09L249.74,370.25C249.742,370.237 249.744,370.224 249.745,370.212C249.765,369.982 249.56,369.774 249.292,369.752C249.278,369.751 249.264,369.75 249.25,369.75L230.5,369.75C230.226,369.75 230,369.524 230,369.25L230,338C230,337.589 230.339,337.25 230.75,337.25L255.75,337.25C256.099,337.251 256.398,337.037 256.46,336.74L265,294.75C265.002,294.739 265.003,294.728 265.004,294.717C265.02,294.504 264.813,294.312 264.545,294.292C264.53,294.291 264.515,294.29 264.5,294.29L230.5,294.45L230.495,294.45C230.226,294.453 230.003,294.252 230,294.005L230,294L230,262C230,261.726 230.226,261.5 230.5,261.5L271.25,261.5C271.568,261.5 271.844,261.282 271.91,260.98L283.24,205C283.298,204.712 283.512,204.502 283.75,204.5L316,204.5C316.016,204.5 316.033,204.501 316.049,204.502C316.328,204.527 316.539,204.754 316.516,205.006C316.515,205.021 316.513,205.035 316.51,205.05L305.25,260.75C305.247,260.763 305.245,260.777 305.244,260.79C305.215,261.041 305.389,261.27 305.629,261.297C305.642,261.299 305.656,261.3 305.67,261.3L320.1,261.46L336.63,261.5C336.869,261.499 337.078,261.323 337.13,261.08L348.21,204.94C348.262,204.684 348.489,204.499 348.75,204.5L382,204.5C382.014,204.5 382.028,204.501 382.042,204.502C382.31,204.524 382.515,204.732 382.495,204.962C382.494,204.974 382.492,204.987 382.49,205L371.06,260.76C371.056,260.779 371.053,260.799 371.052,260.818C371.021,261.157 371.307,261.463 371.684,261.497C371.706,261.499 371.728,261.5 371.75,261.5L390.5,261.5C390.774,261.5 391,261.839 391,262.25L391,293.75C391,294.024 390.774,294.25 390.5,294.25L364.75,294.25C364.443,294.249 364.171,294.488 364.1,294.82L355.56,336.76C355.557,336.773 355.556,336.786 355.554,336.799C355.534,337.023 355.714,337.226 355.955,337.248C355.97,337.249 355.985,337.25 356,337.25L390.5,337.25C390.774,337.25 391,337.476 391,337.75L391,369.25C391,369.524 390.774,369.75 390.5,369.75L349.25,369.75C349.007,369.75 348.788,369.961 348.73,370.25L337.39,426.18C337.32,426.511 337.051,426.75 336.75,426.75L305,426.75C304.982,426.75 304.965,426.749 304.947,426.747C304.642,426.713 304.422,426.398 304.461,426.049C304.463,426.03 304.466,426.01 304.47,425.99L315.45,370.49C315.454,370.471 315.457,370.451 315.459,370.431C315.492,370.088 315.237,369.777 314.893,369.743C314.872,369.741 314.851,369.74 314.83,369.74L299.75,369.71ZM313.75,294.21C308.777,294.623 303.81,294.67 298.85,294.35C298.641,294.331 298.45,294.474 298.41,294.68L290.02,336.75C290.018,336.761 290.016,336.772 290.015,336.784C289.998,336.991 290.182,337.179 290.423,337.198C290.439,337.2 290.454,337.2 290.47,337.2L306.02,337.21L321.59,337.13C321.887,337.13 322.136,336.961 322.18,336.73L330.44,294.74C330.442,294.728 330.444,294.716 330.445,294.703C330.46,294.507 330.279,294.33 330.044,294.311C330.029,294.31 330.015,294.31 330,294.31L313.75,294.21Z" style="fill:white;"/>
        </g>
    </g>
</svg>
