<?xml version="1.0" encoding="UTF-8" standalone="no"?>
<!DOCTYPE svg PUBLIC "-//W3C//DTD SVG 1.1//EN" "http://www.w3.org/Graphics/SVG/1.1/DTD/svg11.dtd">
<svg width="100%" height="100%" viewBox="0 0 1200 1080" version="1.1" xmlns="http://www.w3.org/2000/svg" xmlns:xlink="http://www.w3.org/1999/xlink" xml:space="preserve" xmlns:serif="http://www.serif.com/" style="fill-rule:evenodd;clip-rule:evenodd;stroke-linejoin:round;stroke-miterlimit:2;">
    <g transform="matrix(1,0,0,1.09091,-720,207.273)">
        <rect x="720" y="-190" width="1200" height="990" style="fill:rgb(46,46,46);"/>
    </g>
    <g transform="matrix(0.707107,-0.707107,0.707107,0.707107,-575.938,-155.145)">
        <path d="M-466.129,1280.63L207,607.5L207,1953.76L-466.129,1280.63Z" style="fill:rgb(51,51,51);"/>
    </g>
    <g id="ScummVM">
        <g transform="matrix(1,0,0,1,14.6837,-61.2735)">
            <path d="M391.525,841.253C384.164,841.253 377.566,839.558 371.733,836.169L374.483,827.211C377.094,828.655 379.934,829.822 383.004,830.711C386.073,831.6 389.066,832.044 391.983,832.044C395.566,832.044 398.275,831.274 400.108,829.732C401.941,828.19 402.858,825.975 402.858,823.086C402.858,819.253 400.302,816.6 395.191,815.128C394.83,815.017 393.816,814.718 392.15,814.232C390.483,813.746 388.92,813.274 387.462,812.815C386.004,812.357 384.955,812.003 384.316,811.753C376.122,808.864 372.025,803.475 372.025,795.586C372.025,790.058 373.99,785.794 377.92,782.794C381.851,779.794 387.066,778.294 393.566,778.294C400.927,778.294 407.275,779.808 412.608,782.836L409.191,791.086C403.747,788.642 398.691,787.419 394.025,787.419C390.664,787.419 388.129,788.01 386.42,789.19C384.712,790.371 383.802,792.336 383.691,795.086C383.691,798.475 385.372,800.683 388.733,801.711C389.4,801.961 391.039,802.503 393.65,803.336C396.261,804.169 397.955,804.711 398.733,804.961C404.316,806.794 408.309,809.072 410.712,811.794C413.115,814.517 414.316,818.308 414.316,823.169C414.316,828.975 412.261,833.44 408.15,836.565C404.039,839.69 398.497,841.253 391.525,841.253Z" style="fill:white;fill-rule:nonzero;"/>
            <path d="M442.941,841.294C435.941,841.294 430.49,839.211 426.587,835.044C422.684,830.878 420.733,824.919 420.733,817.169C420.733,809.669 422.782,803.85 426.879,799.711C430.976,795.572 436.372,793.503 443.066,793.503C448.427,793.503 452.955,794.655 456.65,796.961L454.066,804.753C450.289,802.78 446.775,801.794 443.525,801.794C439.83,801.794 436.92,803.114 434.795,805.753C432.67,808.392 431.608,812.239 431.608,817.294C431.608,822.405 432.657,826.294 434.754,828.961C436.851,831.628 439.816,832.961 443.65,832.961C447.65,832.961 451.497,831.78 455.191,829.419L456.233,837.711C454.316,838.989 452.33,839.905 450.275,840.461C448.219,841.017 445.775,841.294 442.941,841.294Z" style="fill:white;fill-rule:nonzero;"/>
            <path d="M497.941,836.836C494.302,839.808 489.511,841.294 483.566,841.294C477.622,841.294 472.837,839.808 469.212,836.836C465.587,833.864 463.775,829.503 463.775,823.753L463.775,794.628L474.733,794.628L474.733,823.336C474.733,826.753 475.448,829.225 476.879,830.753C478.309,832.28 480.58,833.044 483.691,833.044C486.747,833.044 488.976,832.287 490.379,830.774C491.782,829.26 492.483,826.78 492.483,823.336L492.483,794.628L503.4,794.628L503.4,823.753C503.4,829.475 501.58,833.836 497.941,836.836Z" style="fill:white;fill-rule:nonzero;"/>
            <path d="M513.358,840.419L513.358,794.628L522.191,794.628L523.441,800.461C523.997,799.767 524.532,799.149 525.045,798.607C525.559,798.065 526.268,797.454 527.17,796.774C528.073,796.093 529.032,795.53 530.045,795.086C531.059,794.642 532.309,794.267 533.795,793.961C535.282,793.655 536.872,793.503 538.566,793.503C542.205,793.503 545.115,794.239 547.295,795.711C549.476,797.183 551.011,798.905 551.9,800.878C553.539,798.517 555.664,796.697 558.275,795.419C560.886,794.142 563.789,793.503 566.983,793.503C572.233,793.503 576.087,794.989 578.545,797.961C581.004,800.933 582.233,805.336 582.233,811.169L582.233,840.419L571.275,840.419L571.275,814.419C571.275,809.947 570.782,806.718 569.795,804.732C568.809,802.746 566.927,801.753 564.15,801.753C559.9,801.753 556.844,803.669 554.983,807.503C554.205,809.197 553.677,811.239 553.4,813.628L553.4,840.419L542.483,840.419L542.483,813.919C542.483,809.836 541.941,806.794 540.858,804.794C539.775,802.794 537.816,801.794 534.983,801.794C532.677,801.794 530.691,802.378 529.025,803.544C527.358,804.711 526.094,806.239 525.233,808.128C524.594,810.933 524.275,814.294 524.275,818.211L524.275,840.419L513.358,840.419Z" style="fill:white;fill-rule:nonzero;"/>
            <path d="M592.983,840.419L592.983,794.628L601.816,794.628L603.066,800.461C603.622,799.767 604.157,799.149 604.67,798.607C605.184,798.065 605.893,797.454 606.795,796.774C607.698,796.093 608.657,795.53 609.67,795.086C610.684,794.642 611.934,794.267 613.42,793.961C614.907,793.655 616.497,793.503 618.191,793.503C621.83,793.503 624.74,794.239 626.92,795.711C629.101,797.183 630.636,798.905 631.525,800.878C633.164,798.517 635.289,796.697 637.9,795.419C640.511,794.142 643.414,793.503 646.608,793.503C651.858,793.503 655.712,794.989 658.17,797.961C660.629,800.933 661.858,805.336 661.858,811.169L661.858,840.419L650.9,840.419L650.9,814.419C650.9,809.947 650.407,806.718 649.42,804.732C648.434,802.746 646.552,801.753 643.775,801.753C639.525,801.753 636.469,803.669 634.608,807.503C633.83,809.197 633.302,811.239 633.025,813.628L633.025,840.419L622.108,840.419L622.108,813.919C622.108,809.836 621.566,806.794 620.483,804.794C619.4,802.794 617.441,801.794 614.608,801.794C612.302,801.794 610.316,802.378 608.65,803.544C606.983,804.711 605.719,806.239 604.858,808.128C604.219,810.933 603.9,814.294 603.9,818.211L603.9,840.419L592.983,840.419Z" style="fill:white;fill-rule:nonzero;"/>
            <path d="M689.025,840.419L666.816,779.378L678.441,779.378L691.358,817.086C691.858,818.392 693.011,822.211 694.816,828.544C694.927,828.1 695.441,826.274 696.358,823.065C697.275,819.857 697.872,817.892 698.15,817.169C698.483,816.225 700.594,809.954 704.483,798.357C708.372,786.76 710.497,780.433 710.858,779.378L722.358,779.378L700.441,840.419L689.025,840.419Z" style="fill:white;fill-rule:nonzero;"/>
            <path d="M728.233,840.419L728.233,779.378L741.566,779.378L760.025,823.461L778.608,779.378L791.775,779.378L791.775,840.419L781.358,840.419L781.358,810.253L781.691,792.961L780.15,797.544L764.525,836.253L754.858,836.253L739.566,797.336L738.025,792.753L738.4,810.419L738.4,840.419L728.233,840.419Z" style="fill:white;fill-rule:nonzero;"/>
        </g>
        <g id="path300" transform="matrix(0.706381,0,0,0.706381,365.517,229.117)">
            <path d="M326.052,72.063C367.932,72.063 405.504,79.661 438.756,94.836C472.008,110.021 503.556,132.534 533.4,162.362L488.22,230.904C485.592,234.893 481.507,236.982 477.311,236.982C474.284,236.982 471.199,235.894 468.564,233.646C467.996,233.162 457.212,223.98 444.648,215.99C432.083,208.025 419.772,201.218 407.736,195.545C395.688,189.897 384.432,185.642 373.956,182.818C363.48,179.993 354.324,178.564 346.475,178.564C337.044,178.564 330.096,180.88 325.656,185.512C321.204,190.145 318.984,196.054 318.984,203.262C318.984,212.516 324.348,221.144 335.087,229.12C345.803,237.097 359.292,245.321 375.527,253.818C393.096,263.048 410.52,272.562 427.764,282.37C446.34,292.924 463.751,305.662 479.988,320.577C496.224,335.514 509.712,353.394 520.452,374.229C531.18,395.064 536.556,419.893 536.556,448.704C536.556,476.488 530.664,500.549 518.88,520.862C507.096,541.201 491.784,557.912 472.932,571.041C454.092,584.158 432.732,593.932 408.924,600.373C385.092,606.789 361.128,610.016 337.056,610.016C288.876,610.016 248.424,601.258 215.7,583.781C182.976,566.29 153.528,539.784 127.344,504.284L183.144,434.913C185.816,431.597 189.447,429.925 193.097,429.925C196.511,429.925 199.941,431.388 202.62,434.334C202.94,434.686 209.028,441.377 220.032,449.874C231.168,458.465 243.144,465.957 255.768,472.245C268.38,478.604 281.508,483.897 295.032,488.069C308.388,492.205 320.82,494.249 332.34,494.249C343.848,494.249 352.632,492.193 358.656,488.069C364.668,483.956 367.691,476.24 367.691,464.918C367.691,455.145 362.303,445.892 351.587,437.134C340.848,428.39 327.492,419.266 311.52,409.729C295.548,400.217 278.268,389.936 259.68,378.849C241.032,367.741 223.644,354.682 207.852,339.888C191.868,324.973 178.524,307.849 167.784,288.562C157.056,269.264 151.692,247.012 151.692,221.793C151.692,197.093 156.396,175.49 165.828,156.973C175.248,138.442 187.944,122.891 203.916,110.269C219.888,97.672 238.344,88.159 259.284,81.719C280.224,75.289 302.484,72.063 326.052,72.063" style="fill:white;fill-rule:nonzero;"/>
        </g>
    </g>
</svg>
