<?xml version="1.0" encoding="UTF-8" standalone="no"?>
<!DOCTYPE svg PUBLIC "-//W3C//DTD SVG 1.1//EN" "http://www.w3.org/Graphics/SVG/1.1/DTD/svg11.dtd">
<svg width="100%" height="100%" viewBox="0 0 1200 1080" version="1.1" xmlns="http://www.w3.org/2000/svg" xmlns:xlink="http://www.w3.org/1999/xlink" xml:space="preserve" xmlns:serif="http://www.serif.com/" style="fill-rule:evenodd;clip-rule:evenodd;stroke-linejoin:round;stroke-miterlimit:2;">
    <g transform="matrix(1,0,0,1.09091,-720,207.273)">
        <rect x="720" y="-190" width="1200" height="990" style="fill:rgb(46,46,46);"/>
    </g>
    <g transform="matrix(0.707107,-0.707107,0.707107,0.707107,-575.938,-155.145)">
        <path d="M-466.129,1280.63L207,607.5L207,1953.76L-466.129,1280.63Z" style="fill:rgb(51,51,51);"/>
    </g>
    <g id="Vita3k">
        <g id="face" transform="matrix(0.466996,0,0,0.466996,270.651,598.301)">
            <path d="M279.978,-329.377L279.992,-329.376L648.899,-649.041C649.037,-649.174 649.129,-649.295 649.359,-649.433C661.67,-654.057 684.535,-651.978 699.594,-654.824C722.862,-659.141 724.463,-665.419 740.358,-679.961C791.105,-684.773 854.897,-678.728 918.237,-660.608L992.806,-639.275C1051.63,-622.446 1102.03,-598.331 1136.94,-571.739C1129.18,-560.156 1113.6,-542.411 1121.98,-526.732C1130.41,-509.509 1169.32,-493.422 1180.61,-470.383L970.468,-1.298C927.374,22.327 867.535,0.621 831.257,18.901C794.326,36.224 773.166,95.876 755.711,131.654C664.356,136.225 561.947,110.051 473.329,54.585L364.992,-13.223C276.199,-68.798 230.09,-141.413 226.231,-207.104C263.509,-241.553 280.646,-250.097 283.598,-277.638C285.562,-294.703 271.725,-313.786 279.404,-328.865C279.588,-329.035 279.748,-329.216 279.978,-329.377ZM830.354,-661.599C819.399,-664.774 807.579,-664.351 803.85,-660.647C800.091,-656.912 805.933,-651.221 817.009,-647.944C828.169,-644.643 840.252,-645.084 843.89,-648.923C847.496,-652.728 841.389,-658.4 830.354,-661.599ZM1014.08,-604.466C991.756,-610.997 969.253,-610.139 963.444,-602.521C957.536,-594.776 970.957,-582.849 993.814,-575.906C1017.02,-568.858 1040.5,-569.791 1045.86,-577.958C1051.13,-585.987 1036.73,-597.84 1014.08,-604.466ZM478.806,-151.714L447.926,-151.348L439.363,-141.709L449.81,-118.249L487.128,-97.51C492.614,-94.462 502.652,-98.852 509.542,-107.276L513.281,-111.848C520.046,-120.12 521.062,-129.055 515.649,-131.957L478.806,-151.714ZM405.401,-191.076L371.617,-209.192C366.811,-211.769 357.193,-208.044 349.962,-200.778L345.969,-196.765C338.617,-189.374 336.531,-181.2 341.389,-178.502L375.537,-159.525L406.233,-159.885L414.912,-169.273L405.401,-191.076ZM422.482,-191.977L428.863,-169.974L443.889,-161.865L473.565,-164.791L492.649,-186.515C495.358,-189.597 487.582,-197.207 475.333,-203.535L468.674,-206.975C456.604,-213.209 444.691,-215.841 441.984,-212.847L422.482,-191.977ZM919.611,-635.726C907.977,-639.098 895.836,-638.65 892.384,-634.719C888.901,-630.754 895.533,-624.709 907.306,-621.225C919.171,-617.715 931.592,-618.182 934.933,-622.261C938.243,-626.303 931.334,-632.328 919.611,-635.726ZM379.849,-146.353L358.319,-123.31C355.084,-119.953 362.571,-111.396 375.09,-104.154L382.001,-100.155C394.722,-92.797 407.573,-89.678 410.687,-93.22L431.8,-117.254L425.042,-140.883L409.901,-149.243L379.849,-146.353ZM902.184,-651.04C905.53,-654.828 899.054,-660.474 887.825,-663.659C876.679,-666.82 864.908,-666.399 861.433,-662.712C857.928,-658.993 864.14,-653.329 875.414,-650.067C886.775,-646.78 898.808,-647.218 902.184,-651.04ZM671.165,-113.1C641.532,-128.612 607.356,-126.682 593.941,-108.689C580.178,-90.231 592.968,-61.38 623.466,-44.331C654.683,-26.879 691.227,-29.08 704.092,-49.132C716.621,-68.657 701.467,-97.237 671.165,-113.1ZM683.557,-615.573L359.296,-311.439C517.313,-232.237 668.442,-156.467 826.457,-77.262C829.181,-75.888 832.447,-76.281 833.343,-77.868C912.192,-217.173 988.409,-351.846 1067.26,-491.15L687.593,-615.733C686.008,-616.241 684.207,-616.174 683.557,-615.573ZM874.768,-620.006C878.355,-624.067 871.839,-630.121 860.321,-633.535C848.894,-636.922 836.7,-636.473 832.978,-632.524C829.223,-628.54 835.461,-622.467 847.021,-618.967C858.676,-615.438 871.148,-615.908 874.768,-620.006Z" style="fill:white;"/>
        </g>
        <g id="Text-Template" serif:id="Text Template" transform="matrix(1,0,0,1,14.6837,-61.2735)">
            <path d="M478.858,840.419L456.65,779.378L468.275,779.378L481.191,817.086C481.691,818.392 482.844,822.211 484.65,828.544C484.761,828.1 485.275,826.274 486.191,823.065C487.108,819.857 487.705,817.892 487.983,817.169C488.316,816.225 490.427,809.954 494.316,798.357C498.205,786.76 500.33,780.433 500.691,779.378L512.191,779.378L490.275,840.419L478.858,840.419Z" style="fill:white;fill-rule:nonzero;"/>
            <path d="M517.733,840.419L517.733,794.628L528.65,794.628L528.65,840.419L517.733,840.419ZM517.733,787.961L517.733,778.628L528.691,778.628L528.691,787.961L517.733,787.961Z" style="fill:white;fill-rule:nonzero;"/>
            <path d="M558.316,841.044C555.205,841.044 552.615,840.676 550.545,839.94C548.476,839.204 546.858,838.044 545.691,836.461C544.525,834.878 543.698,833.01 543.212,830.857C542.726,828.704 542.483,826.044 542.483,822.878L542.483,801.253L534.983,801.253L535.4,795.336L543.233,794.628L546.733,782.211L553.4,782.169L553.4,794.628L564.775,794.628L564.775,801.253L553.4,801.253L553.4,823.086C553.4,826.558 553.9,829.03 554.9,830.503C555.9,831.975 557.747,832.711 560.441,832.711C562.025,832.711 563.719,832.572 565.525,832.294L565.816,840.128C565.761,840.128 565.42,840.19 564.795,840.315C564.17,840.44 563.573,840.551 563.004,840.649C562.434,840.746 561.705,840.836 560.816,840.919C559.927,841.003 559.094,841.044 558.316,841.044Z" style="fill:white;fill-rule:nonzero;"/>
            <path d="M585.525,841.294C581.275,841.294 577.837,840.121 575.212,837.774C572.587,835.426 571.275,832.044 571.275,827.628C571.275,822.878 572.83,819.357 575.941,817.065C579.052,814.774 583.747,813.322 590.025,812.711C590.886,812.6 591.816,812.489 592.816,812.378C593.816,812.267 594.941,812.155 596.191,812.044C597.441,811.933 598.427,811.836 599.15,811.753L599.15,809.336C599.15,806.558 598.511,804.537 597.233,803.274C595.955,802.01 594.011,801.378 591.4,801.378C587.677,801.378 583.08,802.419 577.608,804.503C577.58,804.419 577.122,803.155 576.233,800.711C575.344,798.267 574.886,797.017 574.858,796.961C580.247,794.655 586.08,793.503 592.358,793.503C598.525,793.503 603.011,794.843 605.816,797.524C608.622,800.204 610.025,804.544 610.025,810.544L610.025,840.419L601.941,840.419C601.914,840.308 601.608,839.378 601.025,837.628C600.441,835.878 600.15,834.947 600.15,834.836C597.872,837.058 595.643,838.69 593.462,839.732C591.282,840.774 588.636,841.294 585.525,841.294ZM588.483,833.544C591.011,833.544 593.212,832.94 595.087,831.732C596.962,830.524 598.302,829.058 599.108,827.336L599.108,818.503C599.025,818.503 598.295,818.558 596.92,818.669C595.545,818.78 594.802,818.836 594.691,818.836C590.275,819.225 587.039,820.058 584.983,821.336C582.927,822.614 581.9,824.669 581.9,827.503C581.9,829.447 582.469,830.94 583.608,831.982C584.747,833.024 586.372,833.544 588.483,833.544Z" style="fill:white;fill-rule:nonzero;"/>
            <path d="M635.691,841.294C632.108,841.294 628.74,840.829 625.587,839.899C622.434,838.968 619.941,837.711 618.108,836.128L621.108,828.253C622.636,829.53 624.747,830.579 627.441,831.399C630.136,832.218 632.9,832.628 635.733,832.628C638.927,832.628 641.504,831.767 643.462,830.044C645.42,828.322 646.4,826.072 646.4,823.294C646.4,821.572 646.129,820.086 645.587,818.836C645.045,817.586 644.33,816.586 643.441,815.836C642.552,815.086 641.365,814.482 639.879,814.024C638.393,813.565 636.872,813.253 635.316,813.086C633.761,812.919 631.886,812.822 629.691,812.794C629.608,812.794 629.205,812.787 628.483,812.774C627.761,812.76 627.358,812.753 627.275,812.753L627.275,804.336L629.608,804.336C632.025,804.336 634.101,804.211 635.837,803.961C637.573,803.711 639.184,803.28 640.67,802.669C642.157,802.058 643.282,801.155 644.045,799.961C644.809,798.767 645.191,797.294 645.191,795.544C645.191,793.183 644.302,791.169 642.525,789.503C640.747,787.836 638.247,787.003 635.025,787.003C629.802,787.003 625.15,788.308 621.066,790.919L618.066,783.003C623.122,779.892 629.122,778.336 636.066,778.336C641.872,778.336 646.615,779.864 650.295,782.919C653.976,785.975 655.816,789.892 655.816,794.669C655.816,798.003 654.962,800.843 653.254,803.19C651.545,805.537 649.066,807.253 645.816,808.336C649.539,809.058 652.42,810.85 654.462,813.711C656.504,816.572 657.525,819.947 657.525,823.836C657.525,827.53 656.539,830.718 654.566,833.399C652.594,836.079 649.983,838.065 646.733,839.357C643.483,840.649 639.802,841.294 635.691,841.294Z" style="fill:white;fill-rule:nonzero;"/>
            <path d="M665.941,840.419L665.941,777.753L676.858,777.044L676.858,805.169L676.608,814.419C676.636,814.392 676.92,814.114 677.462,813.586C678.004,813.058 678.302,812.767 678.358,812.711C679.886,810.905 681.545,809.044 683.337,807.128C685.129,805.211 687.393,802.864 690.129,800.086C692.865,797.308 694.65,795.489 695.483,794.628L708.483,794.628L689.65,814.128L709.691,840.419L696.483,840.419L681.4,819.628L676.858,823.211L676.858,840.419L665.941,840.419Z" style="fill:white;fill-rule:nonzero;"/>
        </g>
    </g>
</svg>
