<?xml version="1.0" encoding="UTF-8" standalone="no"?>
<!DOCTYPE svg PUBLIC "-//W3C//DTD SVG 1.1//EN" "http://www.w3.org/Graphics/SVG/1.1/DTD/svg11.dtd">
<svg width="100%" height="100%" viewBox="0 0 1200 1080" version="1.1" xmlns="http://www.w3.org/2000/svg" xmlns:xlink="http://www.w3.org/1999/xlink" xml:space="preserve" xmlns:serif="http://www.serif.com/" style="fill-rule:evenodd;clip-rule:evenodd;stroke-linejoin:round;stroke-miterlimit:2;">
    <g transform="matrix(1,0,0,1.09091,-720,207.273)">
        <rect x="720" y="-190" width="1200" height="990" style="fill:rgb(46,46,46);"/>
    </g>
    <g transform="matrix(0.707107,-0.707107,0.707107,0.707107,-575.938,-155.145)">
        <path d="M-466.129,1280.63L207,607.5L207,1953.76L-466.129,1280.63Z" style="fill:rgb(51,51,51);"/>
    </g>
    <g id="Yuzu">
        <g transform="matrix(1,0,0,1,159.905,228.74)">
            <g id="path835" transform="matrix(0.558692,0,0,0.558692,268.793,50.2081)">
                <path d="M340.81,138L340.81,682.08C491.07,682.08 612.87,560.27 612.87,410.02C612.87,259.77 491.07,138 340.81,138M394,197.55C491.102,221.921 559.733,309.906 559.733,410.02C559.733,510.134 491.102,598.119 394,622.49L394,197.55" style="fill:white;fill-rule:nonzero;"/>
            </g>
            <g id="path847" transform="matrix(0.558692,0,0,0.558692,268.793,50.2081)">
                <path d="M272.79,1.92C122.53,1.92 0.73,123.73 0.73,274C0.73,424.27 122.53,546.07 272.79,546.07L272.79,1.92ZM219.65,61.51L219.65,486.51C122.51,462.194 53.828,374.202 53.828,274.065C53.828,215.991 76.928,160.237 118,119.18C145.985,91.046 181.143,71.099 219.65,61.51" style="fill:white;fill-rule:nonzero;"/>
            </g>
        </g>
        <g transform="matrix(1,0,0,1,14.6837,-61.2735)">
            <path d="M509.191,840.419L509.191,816.211L488.066,779.378L500.316,779.378L514.858,805.794L529.483,779.378L541.566,779.378L520.525,816.003L520.525,840.419L509.191,840.419Z" style="fill:white;fill-rule:nonzero;"/>
            <path d="M578.441,836.836C574.802,839.808 570.011,841.294 564.066,841.294C558.122,841.294 553.337,839.808 549.712,836.836C546.087,833.864 544.275,829.503 544.275,823.753L544.275,794.628L555.233,794.628L555.233,823.336C555.233,826.753 555.948,829.225 557.379,830.753C558.809,832.28 561.08,833.044 564.191,833.044C567.247,833.044 569.476,832.287 570.879,830.774C572.282,829.26 572.983,826.78 572.983,823.336L572.983,794.628L583.9,794.628L583.9,823.753C583.9,829.475 582.08,833.836 578.441,836.836Z" style="fill:white;fill-rule:nonzero;"/>
            <path d="M591.025,840.419L591.025,833.794L613.691,802.211L592.108,802.211L592.108,794.628L625.775,794.628L625.775,802.086L604.316,832.461L626.525,832.461L626.525,840.419L591.025,840.419Z" style="fill:white;fill-rule:nonzero;"/>
            <path d="M667.608,836.836C663.969,839.808 659.177,841.294 653.233,841.294C647.289,841.294 642.504,839.808 638.879,836.836C635.254,833.864 633.441,829.503 633.441,823.753L633.441,794.628L644.4,794.628L644.4,823.336C644.4,826.753 645.115,829.225 646.545,830.753C647.976,832.28 650.247,833.044 653.358,833.044C656.414,833.044 658.643,832.287 660.045,830.774C661.448,829.26 662.15,826.78 662.15,823.336L662.15,794.628L673.066,794.628L673.066,823.753C673.066,829.475 671.247,833.836 667.608,836.836Z" style="fill:white;fill-rule:nonzero;"/>
        </g>
    </g>
</svg>
